<?xml version="1.0" standalone="no"?>
<!DOCTYPE svg PUBLIC "-//W3C//DTD SVG 1.1//EN" "http://www.w3.org/Graphics/SVG/1.1/DTD/svg11.dtd" >
<svg>
<metadata>
Created by FontForge 20090914 at Mon Jun 13 13:42:27 2016
 By www-data
2000 Albert-Jan Pool, published by Fontshop International for the FontFont library.
</metadata>
<defs>
<font id="AdiHaus-Italic" horiz-adv-x="535" >
  <font-face 
    font-family="AdiHaus"
    font-weight="400"
    font-style="italic"
    font-stretch="normal"
    units-per-em="1000"
    panose-1="2 0 5 3 2 0 0 9 0 4"
    ascent="800"
    descent="-200"
    x-height="493"
    cap-height="712"
    bbox="-148 -225.002 1066 991.002"
    underline-thickness="49"
    underline-position="-85"
    slope="-11"
    unicode-range="U+0020-U+F002"
  />
<missing-glyph horiz-adv-x="502" 
d="M-1 0v500h500v-500h-500zM9 10h480v480h-480v-480z" />
    <glyph glyph-name=".notdef" horiz-adv-x="502" 
d="M-1 0v500h500v-500h-500zM9 10h480v480h-480v-480z" />
    <glyph glyph-name="space" unicode=" " horiz-adv-x="236" 
 />
    <glyph glyph-name="exclam" unicode="!" horiz-adv-x="301" 
d="M297 712l-112 -515h-60l91 515h81zM176 86l-16 -86h-83l17 86h82z" />
    <glyph glyph-name="quotedbl" unicode="&#x22;" horiz-adv-x="403" 
d="M414 712l-35 -172h-76l35 172h76zM252 712l-34 -172h-76l35 172h75z" />
    <glyph glyph-name="numbersign" unicode="#" horiz-adv-x="627" 
d="M629 498l-13 -63h-90l-53 -146h88l-12 -62h-97l-80 -227h-72l79 227h-152l-79 -227h-74l80 227h-84l12 62h93l53 146h-91l13 63h98l76 216h73l-75 -216h152l75 216h73l-75 -216h82zM453 435h-153l-52 -146h152z" />
    <glyph glyph-name="dollar" unicode="$" horiz-adv-x="567" 
d="M560 636l-52.001 -44.9951c-16.667 19.333 -34.5 34.166 -53.5 44.499s-42.5 16.5 -70.5 18.5l-51 -267l25 -5c52.667 -10.667 91.5 -29.834 116.5 -57.501s37.5 -65.5 37.5 -113.5c0 -33.333 -6.5 -63.333 -19.5 -90s-31.167 -49.167 -54.5 -67.5s-50 -32.5 -80 -42.5
s-62 -15.667 -96 -17l-20 -108h-57l21 109c-41.333 2.66699 -76.833 11.667 -106.5 27s-57.5 38.666 -83.5 69.999l55 48c20 -25.333 42 -44.666 66 -57.999s52 -21 84 -23l52 272c-1.33301 0 -4.5 0.666992 -9.5 2l-11.5 3c-45.333 11.333 -80.5 29.666 -105.5 54.999
s-37.5 59.333 -37.5 102c0 25.333 4.5 50.666 13.5 75.999s23 48.833 42 70.5s43.333 39.667 73 54s64.5 22.5 104.5 24.5l17 88h57l-17 -90c32.667 -2.66699 62.334 -10.334 89.001 -23.001s50.667 -31.667 72 -57zM438.999 207.005c0 36.667 -9.66797 62.667 -29.001 78
s-49 27.333 -89 36l-50 -263c48.667 4.66699 88.834 20.667 120.501 48s47.5 61 47.5 101zM333.998 655.005c-45.333 -4.66699 -82.167 -22.333 -110.5 -53s-42.5 -66 -42.5 -106c0 -28.667 9.5 -50.5 28.5 -65.5s44.167 -25.833 75.5 -32.5z" />
    <glyph glyph-name="percent" unicode="%" horiz-adv-x="800" 
d="M388 614c0 -13.333 -1 -25 -3 -35l-19 -99c-8 -43.333 -24.5 -76.666 -49.5 -99.999s-58.833 -35 -101.5 -35c-28.667 0 -53.834 8.5 -75.501 25.5s-32.5 43.5 -32.5 79.5c0 13.333 1 25 3 35l18 99c8 43.333 24.667 76.666 50 99.999s59.333 35 102 35
c28.667 0 53.834 -8.5 75.501 -25.5s32.5 -43.5 32.5 -79.5zM334 610c0 18.667 -4.66699 33.334 -14 44.001s-25 16 -47 16c-26 0 -46.333 -7.83301 -61 -23.5s-24.334 -36.5 -29.001 -62.5l-19 -103c-2 -8.66699 -3 -17.667 -3 -27c0 -18.667 4.66699 -33.334 14 -44.001
s25 -16 47 -16c25.333 0 45.333 7.66699 60 23s24.334 36.333 29.001 63l20 103c2 9.33301 3 18.333 3 27zM629 368c28.667 0 53.835 -8.49805 75.502 -25.498s32.5 -43.5 32.5 -79.5c0 -13.333 -1 -25 -3 -35l-18 -99c-7.33301 -42.667 -23.833 -75.834 -49.5 -99.501
s-59.834 -35.5 -102.501 -35.5c-28.667 0 -53.834 8.5 -75.501 25.5s-32.5 43.5 -32.5 79.5c0 13.333 1 25 3 35l19 99c8 43.333 24.667 76.666 50 99.999s59 35 101 35zM683.001 259.002c0 18.667 -4.66602 33.334 -13.999 44.001s-25 16 -47 16
c-25.333 0 -45.333 -7.66699 -60 -23s-24.334 -36.333 -29.001 -63l-20 -103c-1.33301 -6 -2 -15 -2 -27c0 -18.667 4.66699 -33.334 14 -44.001s24.666 -16 45.999 -16c26 0 46.333 7.83301 61 23.5s24.334 36.5 29.001 62.5l19 103c2 9.33301 3 18.333 3 27z
M163.002 0.00195312l458 712h61l-459 -712h-60z" />
    <glyph glyph-name="ampersand" unicode="&#x26;" horiz-adv-x="704" 
d="M617 348c-7.33301 -45.333 -18.834 -85.334 -34.501 -120.001s-38.834 -67.667 -69.501 -99l80 -129h-87l-48 78c-24 -22 -54.5 -41.5 -91.5 -58.5s-77.833 -25.5 -122.5 -25.5c-54 0 -98.167 14.833 -132.5 44.5s-51.5 71.167 -51.5 124.5c0 30 4.66699 57 14 81
s22.166 45.667 38.499 65s36 37.5 59 54.5s50.5 35.167 82.5 54.5l-2 4c-14 22 -25 42.667 -33 62s-12 41 -12 65c0 20.667 3.5 41 10.5 61s17.5 38.167 31.5 54.5s32 29.333 54 39s47.667 14.5 77 14.5c42.667 0 75.334 -12.667 98.001 -38s34 -56 34 -92
c0 -29.333 -8.5 -56.166 -25.5 -80.499s-43.833 -47.833 -80.5 -70.5l-57 -36l128 -215c18.667 20.667 33.334 43.5 44.001 68.5s19.334 56.167 26.001 93.5h70zM423.999 132.999l-139 231.001c-53.333 -32.667 -92 -62.834 -116 -90.501s-36 -62.167 -36 -103.5
c0 -32.667 10.667 -59.5 32 -80.5s49 -31.5 83 -31.5c28 0 57.167 6 87.5 18s59.833 31 88.5 57zM441.999 587c0 22.667 -6.16602 39.832 -18.499 51.499s-28.166 17.5 -47.499 17.5c-28.667 0 -51.834 -10.167 -69.501 -30.5s-26.5 -46.166 -26.5 -77.499
c0 -24 12.667 -56 38 -96c11.333 6.66699 18.833 11.167 22.5 13.5l10.5 7c3.33301 2.33301 5.66602 3.83301 6.99902 4.5c28 17.333 49 34 63 50s21 36 21 60z" />
    <glyph glyph-name="quotesingle" unicode="'" horiz-adv-x="242" 
d="M252 712l-34 -172h-76l35 172h75z" />
    <glyph glyph-name="parenleft" unicode="(" horiz-adv-x="284" 
d="M324 753c-16 -13.333 -28.667 -24.666 -38 -33.999s-17.333 -18.666 -24 -27.999c-7.33301 -10.667 -13.333 -21.334 -18 -32.001s-8.66699 -24 -12 -40l-101 -509c-4.66699 -23.333 -7 -42 -7 -56s3 -29.167 9 -45.5s18 -34.833 36 -55.5l-52 -47
c-24.667 29.333 -41.5 54.833 -50.5 76.5s-13.5 42.167 -13.5 61.5c0 9.33301 0.666992 19.5 2 30.5s3.66602 24.167 6.99902 39.5l102 511c4.66699 20.667 9.5 38.167 14.5 52.5s12.5 29.166 22.5 44.499c9.33301 13.333 21.333 27.333 36 42s30.334 28.667 47.001 42z" />
    <glyph glyph-name="parenright" unicode=")" horiz-adv-x="284" 
d="M272 668c0 -10 -0.5 -20.332 -1.5 -30.999s-3.16699 -23.667 -6.5 -39l-102 -511c-4 -20 -8.66699 -37.333 -14 -52s-13.333 -29.667 -24 -45c-9.33301 -13.333 -21.333 -27.333 -36 -42s-30.334 -28.667 -47.001 -42l-40 53c16 13.333 28.667 24.666 38 33.999
s17.333 18.666 24 27.999c7.33301 10.667 13.333 21.334 18 32.001s8.66699 24 12 40l102 509c4.66699 23.333 7 42 7 56s-3.16699 29 -9.5 45s-18.5 34.667 -36.5 56l53 47c24.667 -28.667 41.334 -54 50.001 -76s13 -42.667 13 -62z" />
    <glyph glyph-name="asterisk" unicode="*" horiz-adv-x="451" 
d="M455 566l-124 -39l99 -83l-35 -41l-95 89l-23 -129l-54 11l29 127l-121 -45l-18 51l124 39l-99 83l35 41l95 -88l23 128l54 -11l-29 -127l121 45z" />
    <glyph glyph-name="plus" unicode="+" horiz-adv-x="496" 
d="M458 299l-13 -64h-165l-35 -177h-66l35 177h-166l12 64h167l36 177h65l-35 -177h165z" />
    <glyph glyph-name="comma" unicode="," horiz-adv-x="252" 
d="M138 89l-30 -153l-101 -80l47 233h84z" />
    <glyph glyph-name="hyphen" unicode="-" horiz-adv-x="405" 
d="M345 302l-13 -65h-262l13 65h262z" />
    <glyph glyph-name="period" unicode="." horiz-adv-x="257" 
d="M143 95l-18 -95h-91l19 95h90z" />
    <glyph glyph-name="slash" unicode="/" horiz-adv-x="341" 
d="M450 786l-442 -860h-72l443 860h71z" />
    <glyph glyph-name="zero" unicode="0" horiz-adv-x="528" 
d="M509 563c0 -14.667 -1.66699 -30.334 -5 -47.001l-64 -322c-7.33301 -38 -19.166 -70.167 -35.499 -96.5s-34.833 -47 -55.5 -62s-42 -25.667 -64 -32s-43.667 -9.5 -65 -9.5c-43.333 0 -80 13.167 -110 39.5s-45 64.833 -45 115.5c0 14.667 1.66699 30.334 5 47.001
l63 322c7.33301 38 19 70.167 35 96.5s34.5 47 55.5 62s42.5 25.667 64.5 32s43.667 9.5 65 9.5c43.333 0 80.166 -13.167 110.499 -39.5s45.5 -64.833 45.5 -115.5zM439 561c0 32 -8.66699 55.835 -26 71.502s-38 23.5 -62 23.5c-15.333 0 -30.666 -2.33301 -45.999 -7
s-29.833 -12.334 -43.5 -23.001s-25.667 -24.834 -36 -42.501s-17.833 -39.167 -22.5 -64.5l-63 -324c-4 -18.667 -6 -33.334 -6 -44.001c0 -32 8.83301 -55.833 26.5 -71.5s38.5 -23.5 62.5 -23.5c15.333 0 30.666 2.33301 45.999 7s29.833 12.334 43.5 23.001
s25.667 25 36 43s17.833 39.333 22.5 64l63 324c3.33301 15.333 5 30 5 44z" />
    <glyph glyph-name="one" unicode="1" horiz-adv-x="528" 
d="M425 712l-130 -648l-13 -64h-70l13 63l114 566l-152 -114l16 85l151 112h71z" />
    <glyph glyph-name="two" unicode="2" horiz-adv-x="528" 
d="M512 555c0 -38 -7.66797 -70.666 -23.001 -97.999s-37.666 -56.333 -66.999 -87l-289 -308h291l-12 -62h-380l13 62l333 356c22.667 24 38.834 46 48.501 66s14.5 43.333 14.5 70c0 33.333 -8.16699 58.666 -24.5 75.999s-39.833 26 -70.5 26
c-34.667 0 -64.834 -10.333 -90.501 -31s-43.167 -53 -52.5 -97h-71c12 62 37 109.167 75 141.5s85.333 48.5 142 48.5c50.667 0 90.5 -14.167 119.5 -42.5s43.5 -68.5 43.5 -120.5z" />
    <glyph glyph-name="three" unicode="3" horiz-adv-x="528" 
d="M498 564c0 -45.333 -10.668 -86.001 -32.001 -122.001s-52 -61.667 -92 -77c50.667 -19.333 76 -62.333 76 -129c0 -30.667 -5.16699 -60.5 -15.5 -89.5s-25.666 -55 -45.999 -78s-45 -41.333 -74 -55s-61.167 -20.5 -96.5 -20.5c-57.333 0 -100.666 14.333 -129.999 43
s-44 66.667 -44 114c0 12 0.333008 21.333 1 28h69v-2c-1.33301 -8 -2 -14.667 -2 -20c0 -30 9.16699 -54.333 27.5 -73s44.5 -28 78.5 -28c22.667 0 44 4.66699 64 14s37.333 22.333 52 39s26 36 34 58s12 45 12 69c0 66 -36.333 99 -109 99h-16l12 60h16
c21.333 0 41 4.5 59 13.5s33.5 21.333 46.5 37s23 33.5 30 53.5s10.5 41 10.5 63c0 30 -8.5 53.5 -25.5 70.5s-41.167 25.5 -72.5 25.5c-32.667 0 -61.834 -10.667 -87.501 -32s-43.167 -49.666 -52.5 -84.999h-72c15.333 59.333 42.5 104 81.5 134s85.5 45 139.5 45
c48 0 86.333 -13.833 115 -41.5s43 -65.5 43 -113.5z" />
    <glyph glyph-name="four" unicode="4" horiz-adv-x="528" 
d="M466 179l-14 -64h-84l-23 -115h-68l23 115h-273l12 64l347 533h77l-346 -533h195l39 196h69l-39 -196h85z" />
    <glyph glyph-name="five" unicode="5" horiz-adv-x="528" 
d="M532 712l-11.999 -62.001h-280l-45 -226c18 16.667 36.667 28.5 56 35.5s42.666 10.5 69.999 10.5c48 0 84.167 -14 108.5 -42s36.5 -63.667 36.5 -107c0 -24 -3 -52.667 -9 -86c-8 -42 -18.167 -78 -30.5 -108s-28.833 -55.333 -49.5 -76
c-38.667 -38.667 -88 -58 -148 -58c-54.667 0 -95 14.167 -121 42.5s-39 63.833 -39 106.5v6c0.666992 8 1 14.667 1 20h68c-0.666992 -5.33301 -1 -12.333 -1 -21c0 -27.333 7.83301 -49.5 23.5 -66.5s38.167 -25.5 67.5 -25.5c25.333 0 47 4.5 65 13.5s33 21.667 45 38
s21.667 35 29 56s13.666 45.167 18.999 72.5c6 32.667 9 58.334 9 77.001c0 30.667 -6.66699 54.667 -20 72s-35.666 26 -66.999 26c-28.667 0 -54.167 -6 -76.5 -18s-40.5 -30 -54.5 -54h-62l17 85l58 289h342z" />
    <glyph glyph-name="six" unicode="6" horiz-adv-x="528" 
d="M448 224c0 -32.667 -5.33105 -63 -15.998 -91s-25.5 -52.5 -44.5 -73.5s-41 -37.167 -66 -48.5s-51.5 -17 -79.5 -17c-30.667 0 -57.334 5 -80.001 15s-41 23.5 -55 40.5s-24.333 36 -31 57s-10 42.833 -10 65.5c0 31.333 5.5 61 16.5 89s30.167 62.667 57.5 104l231 347
h76l-215 -321c19.333 7.33301 37.666 11 54.999 11c50 0 89.333 -16.5 118 -49.5s43 -75.833 43 -128.5zM377.002 223c0 34.667 -9 63.501 -27 86.501s-43.333 34.5 -76 34.5c-23.333 0 -43.833 -5.16699 -61.5 -15.5s-32.167 -23.833 -43.5 -40.5
s-19.833 -34.834 -25.5 -54.501s-8.5 -38.5 -8.5 -56.5c0 -34.667 9.16699 -63.5 27.5 -86.5s43.5 -34.5 75.5 -34.5c21.333 0 40.833 4.83301 58.5 14.5s32.5 22.5 44.5 38.5s21 34 27 54s9 40 9 60z" />
    <glyph glyph-name="seven" unicode="7" horiz-adv-x="528" 
d="M560 712l-12 -62l-358 -650h-77l358 650h-237l-21 -107h-68l33 169h382z" />
    <glyph glyph-name="eight" unicode="8" horiz-adv-x="528" 
d="M440 556c0 30 -8.49902 54.167 -25.499 72.5s-40.833 27.5 -71.5 27.5c-22 0 -42 -4.5 -60 -13.5s-33 -21.167 -45 -36.5s-21.333 -32.5 -28 -51.5s-10 -37.833 -10 -56.5c0 -30 8.66699 -54.167 26 -72.5s41.333 -27.5 72 -27.5c22 0 41.833 4.5 59.5 13.5
s32.667 21.167 45 36.5s21.666 32.333 27.999 51s9.5 37.667 9.5 57zM388.001 364c23.333 -16.667 40.834 -36.166 52.501 -58.499s17.5 -50.166 17.5 -83.499c0 -28.667 -4.83301 -56.667 -14.5 -84s-24.334 -51.833 -44.001 -73.5s-44 -38.834 -73 -51.501
s-62.167 -19 -99.5 -19c-49.333 0 -90.833 14.5 -124.5 43.5s-50.5 71.167 -50.5 126.5c0 48 11.667 90 35 126s58 64 104 84c-18.667 14 -33.334 30.833 -44.001 50.5s-16 42.834 -16 69.501c0 31.333 5.33301 60.833 16 88.5s25.667 51.667 45 72s42.333 36 69 47
s55.334 16.5 86.001 16.5c47.333 0 86.333 -14.5 117 -43.5s46 -68.167 46 -117.5c0 -42.667 -11 -81.334 -33 -116.001s-51.667 -60.334 -89 -77.001zM388.002 224.001c0 34.667 -9.83203 62.166 -29.499 82.499s-45.834 30.5 -78.501 30.5
c-46.667 0 -84.667 -16.167 -114 -48.5s-44 -72.166 -44 -119.499c0 -34.667 10 -62.167 30 -82.5s46.333 -30.5 79 -30.5c47.333 0 85.333 16 114 48s43 72 43 120z" />
    <glyph glyph-name="nine" unicode="9" horiz-adv-x="528" 
d="M507 540c0 -31.333 -5.5 -61 -16.5 -89s-30.5 -62.667 -58.5 -104l-231 -347h-75l214 321c-10 -4 -18.833 -6.83301 -26.5 -8.5s-16.834 -2.5 -27.501 -2.5c-50 0 -89.333 16.5 -118 49.5s-43 75.833 -43 128.5c0 32.667 5.33301 63.167 16 91.5s25.5 52.833 44.5 73.5
s41 36.667 66 48s51.5 17 79.5 17c30.667 0 57.334 -5 80.001 -15s41 -23.5 55 -40.5s24.333 -36 31 -57s10 -42.833 10 -65.5zM438 535c0 34.667 -9.16602 63.5 -27.499 86.5s-43.833 34.5 -76.5 34.5c-21.333 0 -40.833 -4.83301 -58.5 -14.5s-32.334 -22.5 -44.001 -38.5
s-20.5 -33.833 -26.5 -53.5s-9 -39.834 -9 -60.501c0 -34.667 9.16699 -63.5 27.5 -86.5s43.5 -34.5 75.5 -34.5c23.333 0 43.833 5.16699 61.5 15.5s32.167 23.833 43.5 40.5s19.833 34.834 25.5 54.501s8.5 38.5 8.5 56.5z" />
    <glyph glyph-name="colon" unicode=":" horiz-adv-x="282" 
d="M227 395l-19 -95h-91l20 95h90zM170 95l-19 -95h-90l19 95h90z" />
    <glyph glyph-name="semicolon" unicode=";" horiz-adv-x="282" 
d="M167 89l-30 -153l-101 -80l46 233h85zM228 395l-19 -95h-90l19 95h90z" />
    <glyph glyph-name="less" unicode="&#x3c;" horiz-adv-x="496" 
d="M436 471l-15 -78l-261 -124l213 -126l-14 -71l-281 171l13 62z" />
    <glyph glyph-name="equal" unicode="=" horiz-adv-x="496" 
d="M443 219l-14 -65h-396l13 65h397zM475 384l-13 -64h-398l14 64h397z" />
    <glyph glyph-name="greater" unicode="&#x3e;" horiz-adv-x="496" 
d="M431 293l-13 -62l-344 -166l15 78l260 124l-213 126l15 71z" />
    <glyph glyph-name="question" unicode="?" horiz-adv-x="474" 
d="M491 571c0 -29.333 -5.83691 -55.999 -17.5039 -79.999s-29.167 -49.667 -52.5 -77l-101 -118c-6.66699 -7.33301 -12.5 -16.5 -17.5 -27.5s-8.83301 -21.167 -11.5 -30.5l-10 -42h-70l10 45c4 20 9.5 36.833 16.5 50.5s17.5 28.5 31.5 44.5l100 115
c18 20.667 31 39.667 39 57s12 37 12 59c0 25.333 -7.83301 46.5 -23.5 63.5s-37.5 25.5 -65.5 25.5c-33.333 0 -61.666 -10.333 -84.999 -31s-38.666 -49 -45.999 -85h-72c10.667 56 34.834 99.667 72.501 131s84.834 47 141.501 47c41.333 0 76.5 -13.333 105.5 -40
s43.5 -62.334 43.5 -107.001zM271.996 86.001l-16 -86h-83l17 86h82z" />
    <glyph glyph-name="at" unicode="@" horiz-adv-x="767" 
d="M758 454c0 -43.333 -9.82812 -86.834 -29.4951 -130.501s-45.5 -81.5 -77.5 -113.5c-18.667 -18.667 -38.667 -33.834 -60 -45.501s-42.333 -17.5 -63 -17.5c-23.333 0 -40.666 4.83301 -51.999 14.5s-17 21.167 -17 34.5v13c-10 -14.667 -26.333 -28.667 -49 -42
s-43.667 -20 -63 -20c-34.667 0 -62.167 10.333 -82.5 31s-30.5 49.334 -30.5 86.001c0 38.667 8.83301 81 26.5 127s40.167 82.667 67.5 110c40 40 84 60 132 60c21.333 0 40.333 -6.83301 57 -20.5s26 -28.167 28 -43.5l17 53h58l-54 -158l-40 -118
c-3.33301 -10.667 -6.16602 -20.167 -8.49902 -28.5s-3.5 -15.5 -3.5 -21.5c0 -14.667 8.33301 -22 25 -22c20.667 0 44.334 13.333 71.001 40c27.333 27.333 48.833 59.333 64.5 96s23.5 74.667 23.5 114c0 61.333 -19.833 111.666 -59.5 150.999s-92.834 59 -159.501 59
c-41.333 0 -81.833 -8.83301 -121.5 -26.5s-75.834 -42.834 -108.501 -75.501c-36 -36 -63.667 -78.333 -83 -127s-29 -101.667 -29 -159c0 -32 5.5 -61.833 16.5 -89.5s26.667 -51.667 47 -72s44.666 -36.166 72.999 -47.499s59.166 -17 92.499 -17
c49.333 0 97.666 4.83301 144.999 14.5s87.666 23.834 120.999 42.501l16 -52c-34.667 -20 -77.667 -34.833 -129 -44.5s-103.333 -14.5 -156 -14.5c-43.333 0 -82.833 6.66699 -118.5 20s-66.334 32.333 -92.001 57s-45.334 54.334 -59.001 89.001s-20.5 72.667 -20.5 114
c0 60.667 11.167 118.667 33.5 174s54.5 104 96.5 146c40 40 83.667 70.667 131 92s96 32 146 32c86 0 153.833 -23.5 203.5 -70.5s74.5 -111.5 74.5 -193.5zM510.005 435.999c0 19.333 -5.16797 35.667 -15.501 49s-23.833 20 -40.5 20c-28 0 -54.667 -12.667 -80 -38
c-22 -22 -40.167 -52 -54.5 -90s-21.5 -74.333 -21.5 -109c0 -18.667 5.16699 -34.5 15.5 -47.5s23.5 -19.5 39.5 -19.5c13.333 0 26.333 3.66699 39 11s25.667 17.666 39 30.999c22 22 41.333 56.333 58 103c0.666992 1.33301 1.33398 3 2.00098 5
c5.33301 17.333 9.33301 31 12 41c4.66699 18.667 7 33.334 7 44.001z" />
    <glyph glyph-name="A" unicode="A" horiz-adv-x="581" 
d="M521 0h-74l-22 162h-296l-87 -162h-78l389 712h61zM418 223l-53 384l-204 -384h257z" />
    <glyph glyph-name="B" unicode="B" horiz-adv-x="636" 
d="M536 547c0 13.333 -1.66895 25.8311 -5.00195 37.498s-9.16602 22.334 -17.499 32.001s-20.166 17.334 -35.499 23.001s-34 8.5 -56 8.5h-170l-51 -252h178c48 0 86.167 14.667 114.5 44s42.5 65 42.5 107zM476.998 362.998c27.333 -12.667 48.001 -30 62.001 -52
s21 -49.667 21 -83s-5.66699 -64 -17 -92s-27.333 -52.167 -48 -72.5s-45.167 -36 -73.5 -47s-58.833 -16.5 -91.5 -16.5h-281l13 63l117 586l13 63h239c36 0 66 -5.16699 90 -15.5s42.5 -23.5 55.5 -39.5s21.833 -33 26.5 -51s7 -36 7 -54
c0 -17.333 -2.16699 -34.833 -6.5 -52.5s-11.5 -35 -21.5 -52s-23.833 -33 -41.5 -48s-38.834 -27.167 -63.501 -36.5zM486.999 225.998c0 33.333 -10.001 59.168 -30.001 77.501s-47.667 27.5 -83 27.5h-186l-54 -267h194c46.667 0 84.834 15.167 114.501 45.5
s44.5 69.166 44.5 116.499z" />
    <glyph glyph-name="C" unicode="C" horiz-adv-x="607" 
d="M592 509h-72.998c0 44.667 -11.667 80.167 -35 106.5s-55.333 39.5 -96 39.5c-52 0 -98 -20 -138 -60c-19.333 -19.333 -34.666 -45.666 -45.999 -78.999s-24 -86.666 -38 -159.999c-8.66699 -45.333 -14.834 -80.5 -18.501 -105.5s-5.5 -45.833 -5.5 -62.5
c0 -40 13 -71.833 39 -95.5s57.667 -35.5 95 -35.5c45.333 0 84.5 14 117.5 42s57.167 62.667 72.5 104h74c-20.667 -65.333 -55 -116.5 -103 -153.5s-102.667 -55.5 -164 -55.5c-58 0 -106.5 17.167 -145.5 51.5s-58.5 81.166 -58.5 140.499c0 14.667 1.66699 34.667 5 60
s9.66602 62 18.999 110c8 44 15.167 79.833 21.5 107.5s13.333 52.167 21 73.5s16.5 40.166 26.5 56.499s22.333 31.833 37 46.5c24 24 52.667 43 86 57s67.666 21 102.999 21c66 0 116.5 -19.167 151.5 -57.5s52.5 -88.833 52.5 -151.5z" />
    <glyph glyph-name="D" unicode="D" horiz-adv-x="639" 
d="M613 518c0 -18 -1.5 -37.666 -4.5 -58.999s-8.5 -53 -16.5 -95c-8 -43.333 -16 -80.333 -24 -111s-16.5 -57.334 -25.5 -80.001s-19.167 -42.667 -30.5 -60s-25.333 -33.333 -42 -48c-23.333 -21.333 -51 -37.5 -83 -48.5s-66 -16.5 -102 -16.5h-236l13 63l117 585l13 64
h222c26 0 50.667 -3.33301 74 -10s44.5 -17.5 63.5 -32.5s34 -35 45 -60s16.5 -55.5 16.5 -91.5zM541 515.001c0 42 -11.666 74.834 -34.999 98.501s-58.666 35.5 -105.999 35.5h-148l-118 -586h147c27.333 0 53 4 77 12s46 21 66 39
c21.333 19.333 39.166 47.666 53.499 84.999s28.166 92.333 41.499 165c8.66699 44.667 14.5 77 17.5 97s4.5 38 4.5 54z" />
    <glyph glyph-name="E" unicode="E" horiz-adv-x="572" 
d="M611 712l-13 -63h-346l-52 -258h297l-12 -63h-297l-54 -265h353l-12 -63h-426l13 63l117 586l13 63h419z" />
    <glyph glyph-name="F" unicode="F" horiz-adv-x="550" 
d="M611 712l-13 -63h-346l-53 -269h296l-13 -63h-297l-51 -254l-13 -63h-72l13 63l117 586l13 63h419z" />
    <glyph glyph-name="G" unicode="G" horiz-adv-x="619" 
d="M593 508l-73.0029 -0.00195312c0 44.667 -11.833 80.334 -35.5 107.001s-55.5 40 -95.5 40c-52.667 0 -99 -20 -139 -60c-10 -10 -18.667 -21.167 -26 -33.5s-14.166 -27.666 -20.499 -45.999s-12.5 -40.166 -18.5 -65.499s-12.667 -56.666 -20 -93.999
c-8.66699 -46 -14.667 -81.167 -18 -105.5s-5 -44.5 -5 -60.5c0 -42.667 13.833 -75.5 41.5 -98.5s59.5 -34.5 95.5 -34.5c19.333 0 39 3.66699 59 11s39.167 18.666 57.5 33.999s34.666 35.5 48.999 60.5s24.833 54.5 31.5 88.5l12 59h-167l11 62h239l-11 -58l-10 -55
c-8 -42.667 -19 -78.834 -33 -108.501s-32.667 -56.167 -56 -79.5s-50.833 -42 -82.5 -56s-66.5 -21 -104.5 -21c-58 0 -106.667 17.333 -146 52s-59 81.334 -59 140.001c0 17.333 1.83301 38.333 5.5 63s9.83398 60.334 18.501 107.001s16.334 84 23.001 112
s13.5 52.167 20.5 72.5s15.333 38.166 25 53.499s21.834 30.333 36.501 45c24 24 52.833 43.167 86.5 57.5s68.5 21.5 104.5 21.5c66 0 116.5 -19.333 151.5 -58s52.5 -89.334 52.5 -152.001z" />
    <glyph glyph-name="H" unicode="H" horiz-adv-x="661" 
d="M657 712l-13 -63l-117 -586l-13 -63h-72l13 63l53 265h-320l-54 -265l-13 -63h-72l13 63l117 586l13 63h72l-12 -63l-51 -258h320l51 258l13 63h72z" />
    <glyph glyph-name="I" unicode="I" horiz-adv-x="268" 
d="M264 712l-13 -63l-117 -586l-13 -63h-72l13 63l117 586l13 63h72z" />
    <glyph glyph-name="J" unicode="J" horiz-adv-x="476" 
d="M482 712l-12.998 -63.001l-87 -436c-14 -71.333 -42.333 -125.666 -85 -162.999s-95.334 -56 -158.001 -56c-34.667 0 -64.334 5.66699 -89.001 17s-45.334 27.666 -62.001 48.999l53 45c14 -16 29 -28 45 -36s35.667 -12 59 -12c41.333 0 76.833 14.333 106.5 43
s49.834 70.334 60.501 125.001l85 424l12 63h73z" />
    <glyph glyph-name="K" unicode="K" horiz-adv-x="621" 
d="M667 712l-14 -15l-254 -264l17 -46l147 -387h-79l-142 383l-181 -183l-27 -137l-13 -63h-72l13 63l117 586l13 63h72l-13 -63l-68 -342l393 405h91z" />
    <glyph glyph-name="L" unicode="L" horiz-adv-x="546" 
d="M482 63l-12 -63h-421l13 63l117 586l13 63h72l-13 -63l-117 -586h348z" />
    <glyph glyph-name="M" unicode="M" horiz-adv-x="775" 
d="M772 712l-130 -649l-13 -63h-73l13 63l97 479l-268 -414h-62l-104 420l-97 -485l-13 -63h-73l13 63l97 484l33 165h70l119 -495l320 495h71z" />
    <glyph glyph-name="N" unicode="N" horiz-adv-x="696" 
d="M692 712l-13 -63l-130 -649h-67l-245 577l-103 -514l-13 -63h-72l13 63l130 649h67l245 -577l102 514l13 63h73z" />
    <glyph glyph-name="O" unicode="O" horiz-adv-x="617" 
d="M590 526c0 -14.667 -1.83105 -33.6689 -5.49805 -57.002s-10.167 -61 -19.5 -113c-8 -43.333 -15.333 -79.166 -22 -107.499s-13.667 -52.833 -21 -73.5s-16 -39.167 -26 -55.5s-22.333 -31.833 -37 -46.5c-24.667 -24.667 -54 -44 -88 -58s-69 -21 -105 -21
c-57.333 0 -104.5 17.833 -141.5 53.5s-55.5 81.834 -55.5 138.501c0 16 1.66699 36 5 60s9.66602 60.667 18.999 110c8 43.333 15.333 79.166 22 107.499s13.667 52.833 21 73.5s16 39.167 26 55.5s22.333 31.833 37 46.5c24.667 24.667 54 44 88 58s69 21 105 21
c57.333 0 104.666 -17.667 141.999 -53s56 -81.666 56 -138.999zM516.002 521.998c0 41.333 -12.501 73.832 -37.501 97.499s-54.5 35.5 -88.5 35.5c-54.667 0 -101.667 -20.333 -141 -61c-9.33301 -9.33301 -17.666 -20 -24.999 -32s-14 -26.833 -20 -44.5
s-12 -39.5 -18 -65.5s-12.667 -58 -20 -96c-9.33301 -48 -15.666 -83.667 -18.999 -107s-5 -43 -5 -59c0 -41.333 12.5 -73.833 37.5 -97.5s54.5 -35.5 88.5 -35.5c54.667 0 101.667 20.333 141 61c10 10 18.5 20.833 25.5 32.5s13.5 26.334 19.5 44.001s12 39.5 18 65.5
s12.667 58 20 96c9.33301 48.667 15.666 84.5 18.999 107.5s5 42.5 5 58.5z" />
    <glyph glyph-name="P" unicode="P" horiz-adv-x="598" 
d="M615 540c0 -34 -5.66797 -65.666 -17.001 -94.999s-27.833 -55 -49.5 -77s-48.167 -39.167 -79.5 -51.5s-66.666 -18.5 -105.999 -18.5h-182l-47 -235l-13 -63h-72l13 63l117 586l13 63h242c31.333 0 58.666 -4.66699 81.999 -14s42.333 -22 57 -38
s25.334 -34.333 32.001 -55s10 -42.334 10 -65.001zM541.999 537.001c0 32 -9.5 58.5 -28.5 79.5s-48.833 31.5 -89.5 31.5h-173l-57 -287h172c52 0 94.333 16.5 127 49.5s49 75.167 49 126.5z" />
    <glyph glyph-name="Q" unicode="Q" horiz-adv-x="617" 
d="M590 526c0 -14.667 -1.83105 -33.668 -5.49805 -57.001s-10.167 -61 -19.5 -113c-8 -42 -15 -76.5 -21 -103.5s-12.5 -50.5 -19.5 -70.5s-15 -38.167 -24 -54.5s-19.833 -31.5 -32.5 -45.5l60 -78l-49 -43l-61 79c-45.333 -30.667 -96 -46 -152 -46
c-57.333 0 -104.5 17.833 -141.5 53.5s-55.5 81.834 -55.5 138.501c0 16 1.66699 36 5 60s9.66602 60.667 18.999 110c8 43.333 15.333 79.166 22 107.499s13.667 52.833 21 73.5s16 39.167 26 55.5s22.333 31.833 37 46.5c24.667 24.667 54 44 88 58s69 21 105 21
c57.333 0 104.666 -17.667 141.999 -53s56 -81.666 56 -138.999zM516.002 521.999c0 41.333 -12.502 73.833 -37.502 97.5s-54.5 35.5 -88.5 35.5c-54.667 0 -101.667 -20.333 -141 -61c-9.33301 -9.33301 -17.666 -20 -24.999 -32s-14 -26.833 -20 -44.5
s-12 -39.5 -18 -65.5s-12.667 -58 -20 -96c-9.33301 -48 -15.666 -83.667 -18.999 -107s-5 -43 -5 -59c0 -41.333 12.5 -73.833 37.5 -97.5s54.5 -35.5 88.5 -35.5c40.667 0 77.334 12.333 110.001 37l-71 92l49 43l69 -89c14 18 25.667 42.5 35 73.5s20 78.5 32 142.5
c9.33301 48.667 15.666 84.5 18.999 107.5s5 42.5 5 58.5z" />
    <glyph glyph-name="R" unicode="R" horiz-adv-x="626" 
d="M614 548c0 -54 -16.667 -101.834 -50 -143.501s-79.333 -68.167 -138 -79.5l104 -325h-80l-98 320h-166l-52 -257l-13 -63h-72l13 63l117 586l13 63h245c32.667 0 60.5 -4.5 83.5 -13.5s41.333 -21.167 55 -36.5s23.5 -32.666 29.5 -51.999s9 -40 9 -62zM541 543.999
c0 32.667 -9.49902 58.166 -28.499 76.499s-47.167 27.5 -84.5 27.5h-176l-54 -266h178c51.333 0 91.666 16.333 120.999 49s44 70.334 44 113.001z" />
    <glyph glyph-name="S" unicode="S" horiz-adv-x="559" 
d="M552 636l-52.001 -44.001c-18.667 21.333 -38.667 37.333 -60 48s-49 16 -83 16c-52.667 0 -95.667 -16.667 -129 -50c-15.333 -14.667 -27 -31.667 -35 -51s-12 -39 -12 -59c0 -26.667 9 -47.834 27 -63.501s43 -27.167 75 -34.5l33 -7l34 -8
c54 -12 93.167 -31.5 117.5 -58.5s36.5 -65.167 36.5 -114.5c0 -34 -6.83301 -64.5 -20.5 -91.5s-33 -49.833 -58 -68.5s-53.667 -32.667 -86 -42s-66.833 -14 -103.5 -14c-50 0 -91.833 7.66699 -125.5 23s-65.167 40.333 -94.5 75l55 48
c22 -27.333 46.667 -47.833 74 -61.5s60 -20.5 98 -20.5c52.667 0 97.167 14 133.5 42s54.5 63.667 54.5 107c0 34 -8.5 58.833 -25.5 74.5s-42.167 27.5 -75.5 35.5l-33 8l-34 8c-19.333 4.66699 -37.833 10.667 -55.5 18s-34 17.333 -49 30s-27 28.334 -36 47.001
s-13.5 40.334 -13.5 65.001c0 26 5 52.333 15 79s25.333 51 46 73s47.334 39.667 80.001 53s70.667 20 114 20c38 0 72.833 -6.5 104.5 -19.5s59.5 -33.833 83.5 -62.5z" />
    <glyph glyph-name="T" unicode="T" horiz-adv-x="520" 
d="M585 712l-13 -64h-194l-117 -585l-13 -63h-73l13 63l117 585h-196l13 64h463z" />
    <glyph glyph-name="U" unicode="U" horiz-adv-x="649" 
d="M654 712l-12.001 -62.999l-83 -415c-15.333 -76.667 -47.833 -135.834 -97.5 -177.501s-110.167 -62.5 -181.5 -62.5c-24.667 0 -48.667 3.83301 -72 11.5s-44.5 19.5 -63.5 35.5s-34.167 36.167 -45.5 60.5s-17 52.833 -17 85.5c0 9.33301 0.666992 19.333 2 30
s3 21 5 31l92 464h73l-94 -471c0 -3.33301 -0.666992 -10 -2 -20c-2 -14 -3 -24.333 -3 -31c0 -36 10.833 -67 32.5 -93s54.834 -39 99.501 -39c48 0 90.667 16 128 48s62 78.667 74 140l80 403l12 63h73z" />
    <glyph glyph-name="V" unicode="V" horiz-adv-x="519" 
d="M604 712l-361 -712h-60l-83 712h73l64 -582l288 582h79z" />
    <glyph glyph-name="W" unicode="W" horiz-adv-x="815" 
d="M890 712l-309 -712h-68l-38 573l-267 -573h-67l-33 712h75l20 -577l248 542l16 35h65l2 -35l35 -542l243 577h78z" />
    <glyph glyph-name="X" unicode="X" horiz-adv-x="526" 
d="M587 712l-262 -351l141 -361h-81l-112 302l-223 -302h-85l279 371l-130 341h81l101 -284l205 284h86z" />
    <glyph glyph-name="Y" unicode="Y" horiz-adv-x="490" 
d="M575 712l-282 -421l-59 -291h-73l60 296l-121 416h76l94 -344l224 344h81z" />
    <glyph glyph-name="Z" unicode="Z" horiz-adv-x="532" 
d="M565 712l-12 -60l-4 -5l-448 -583h341l-13 -64h-423l13 61l1 6l447 581h-324l12 64h410z" />
    <glyph glyph-name="bracketleft" unicode="[" horiz-adv-x="300" 
d="M362 786l-13 -62h-96l-147 -736h104l-12 -62h-174l13 64l146 736l12 60h167z" />
    <glyph glyph-name="backslash" unicode="\" horiz-adv-x="335" 
d="M272 -74h-66l-99 856h66z" />
    <glyph glyph-name="bracketright" unicode="]" horiz-adv-x="300" 
d="M320 786l-12 -59l-148 -744l-11 -57h-167l12 59h99l148 742h-108l12 59h175z" />
    <glyph glyph-name="asciicircum" unicode="^" horiz-adv-x="514" 
d="M481 413h-68l-72 232l-165 -232h-75l217 305h67z" />
    <glyph glyph-name="underscore" unicode="_" horiz-adv-x="496" 
d="M425 -113l-10 -49h-497l11 49h496z" />
    <glyph glyph-name="grave" unicode="`" horiz-adv-x="475" 
d="M350 589h-60l-72 151h80z" />
    <glyph glyph-name="a" unicode="a" horiz-adv-x="501" 
d="M443 371c0 -3.33301 -0.670898 -9.33203 -2.00391 -17.999c-2 -10 -3 -17 -3 -21l-20 -102l-46 -230h-69l11 49c-18.667 -18.667 -39.167 -32.5 -61.5 -41.5s-48.833 -13.5 -79.5 -13.5c-42.667 0 -78 9.66699 -106 29s-42 49.666 -42 90.999c0 22 3.5 43 10.5 63
s18.167 37.333 33.5 52c19.333 18.667 41 32 65 40s50.667 12 80 12h144l11 52c2.66699 12 4 23 4 33c0 23.333 -8.66699 41.333 -26 54s-41.666 19 -72.999 19c-29.333 0 -54.166 -4.66699 -74.499 -14s-39.833 -24.333 -58.5 -45l-41 48
c22.667 24.667 47.834 42.667 75.501 54s61.834 17 102.501 17c20 0 39.333 -1.83301 58 -5.5s36.167 -10.167 52.5 -19.5s29.5 -22.5 39.5 -39.5s15 -38.167 15 -63.5zM336.996 172.001l11 56.999h-127c-38 0 -68.667 -9.66699 -92 -29s-35 -46.666 -35 -81.999
c0 -21.333 7.83301 -37.333 23.5 -48s40.5 -16 74.5 -16c44.667 0 79.667 12.667 105 38c20.667 19.333 34 46 40 80z" />
    <glyph glyph-name="b" unicode="b" horiz-adv-x="519" 
d="M399 334c0 31.333 -6.66797 56.333 -20.001 75s-36 28 -68 28c-24 0 -44.833 -4.83301 -62.5 -14.5s-32.5 -23.167 -44.5 -40.5s-21.667 -37.166 -29 -59.499s-13.666 -47.5 -18.999 -75.5c-3.33301 -16.667 -6 -32.5 -8 -47.5s-3 -28.5 -3 -40.5
c0 -31.333 6.83301 -56.333 20.5 -75s36.5 -28 68.5 -28c24 0 44.833 5 62.5 15s32.334 23.667 44.001 41s21.167 37 28.5 59s13.666 47.333 18.999 76c3.33301 17.333 6 33.166 8 47.499s3 27.5 3 39.5zM118.999 63l-12.9971 -63.002h-69l49 247l93 465h70l-55 -275
c14 18 31.667 32.833 53 44.5s48.666 17.5 81.999 17.5c45.333 0 80.166 -13.333 104.499 -40s36.5 -65.334 36.5 -116.001c0 -10 -0.833008 -23.667 -2.5 -41s-4.5 -35.666 -8.5 -54.999c-9.33301 -48 -20.5 -88.333 -33.5 -121s-30.167 -59.667 -51.5 -81
c-17.333 -17.333 -37.333 -30.166 -60 -38.499s-46.334 -12.5 -71.001 -12.5c-27.333 0 -51.833 5.33301 -73.5 16s-38.5 28.334 -50.5 53.001z" />
    <glyph glyph-name="c" unicode="c" horiz-adv-x="466" 
d="M450 426l-51.999 -43.9971c-12.667 19.333 -26.5 33.333 -41.5 42s-33.5 13 -55.5 13c-41.333 0 -77.666 -16 -108.999 -48c-16.667 -17.333 -30.167 -38.5 -40.5 -63.5s-18.166 -51.167 -23.499 -78.5c-5.33301 -28 -8 -52.667 -8 -74
c0 -38.667 10.333 -67.834 31 -87.501s46 -29.5 76 -29.5c23.333 0 44.166 4.5 62.499 13.5s37.166 23.5 56.499 43.5l41 -50c-46 -46 -100.667 -69 -164 -69c-56 0 -98.833 16.5 -128.5 49.5s-44.5 75.5 -44.5 127.5c0 11.333 0.5 23.666 1.5 36.999s2.83301 26.333 5.5 39
c14.667 81.333 44.167 143.666 88.5 186.999s98.5 65 162.5 65c32.667 0 60.167 -6.16699 82.5 -18.5s42.166 -30.5 59.499 -54.5z" />
    <glyph glyph-name="d" unicode="d" horiz-adv-x="519" 
d="M400 431l56.998 280.999h70l-93 -465l-49 -247h-69l12 59c-20.667 -24.667 -42 -41.667 -64 -51s-46.333 -14 -73 -14c-49.333 0 -85.166 14.167 -107.499 42.5s-33.5 65.833 -33.5 112.5c0 30 3.66699 62.667 11 98c9.33301 46.667 20.5 86.334 33.5 119.001
s30.167 59.667 51.5 81c18.667 18.667 38.834 32 60.501 40s45.5 12 71.5 12s49.667 -5.16699 71 -15.5s38.333 -27.833 51 -52.5zM374.998 335.999c0 30.667 -6.83203 55.168 -20.499 73.501s-36.5 27.5 -68.5 27.5c-24 0 -44.833 -4.83301 -62.5 -14.5
s-32.334 -23.167 -44.001 -40.5s-21.167 -37 -28.5 -59s-13.666 -47.333 -18.999 -76c-3.33301 -16.667 -6 -32.5 -8 -47.5s-3 -28.833 -3 -41.5c0 -30.667 6.66699 -55.334 20 -74.001s36 -28 68 -28c24 0 44.833 5 62.5 15s32.5 23.667 44.5 41s21.667 37.166 29 59.499
s13.666 47.5 18.999 75.5c3.33301 17.333 6 33.333 8 48s3 28.334 3 41.001z" />
    <glyph glyph-name="e" unicode="e" horiz-adv-x="506" 
d="M453 330c0 -12.667 -0.998047 -27.999 -2.99805 -45.999s-5 -36.333 -9 -55h-317c-4 -20.667 -6 -41.334 -6 -62.001c0 -34 8.83301 -61.167 26.5 -81.5s44.167 -30.5 79.5 -30.5c28 0 52.5 4.66699 73.5 14s42.5 24 64.5 44l42 -47c-50.667 -48 -112.667 -72 -186 -72
c-50.667 0 -91.334 14.5 -122.001 43.5s-46 71.167 -46 126.5c0 38.667 4.66699 77.667 14 117s23.833 75.5 43.5 108.5s45.167 59.5 76.5 79.5s67.666 30 108.999 30c50.667 0 90 -15.833 118 -47.5s42 -72.167 42 -121.5zM385.002 330.001c0 36 -9 63.168 -27 81.501
s-40.667 27.5 -68 27.5c-36.667 0 -68.5 -13 -95.5 -39s-47.5 -66 -61.5 -120h248c0 4.66699 0.666992 12 2 22c1.33301 11.333 2 20.666 2 27.999z" />
    <glyph glyph-name="f" unicode="f" horiz-adv-x="299" 
d="M364 714l-11.999 -60h-36c-20 0 -36.833 -5.66699 -50.5 -17s-22.834 -29 -27.501 -53l-19 -95h102l-11 -53h-102l-87 -436h-70l87 436h-59l10 53h59l20 99c9.33301 46 27 78.5 53 97.5s56 28.5 90 28.5h53z" />
    <glyph glyph-name="g" unicode="g" horiz-adv-x="517" 
d="M374 337c0 66.667 -29.6689 100 -89.002 100c-23.333 0 -43.666 -4.83301 -60.999 -14.5s-32 -23.167 -44 -40.5s-21.667 -36.833 -29 -58.5s-13.666 -46.167 -18.999 -73.5c-7.33301 -38 -11 -66.667 -11 -86c0 -30.667 6.83301 -55 20.5 -73s36.5 -27 68.5 -27
c22.667 0 42.667 5 60 15s32 23.5 44 40.5s21.833 36.5 29.5 58.5s14.167 46.333 19.5 73c7.33301 38 11 66.667 11 86zM399.998 430l11.998 63h69l-49 -243l-52 -261c-8 -42 -20.333 -77.167 -37 -105.5s-35.834 -50.333 -57.501 -66s-43.834 -26.667 -66.501 -33
s-45.667 -9.5 -69 -9.5c-63.333 0 -113.666 22 -150.999 66l50 44c12.667 -16 26.834 -28.333 42.501 -37s35.167 -13 58.5 -13c38 0 71.5 12.5 100.5 37.5s49.167 63.833 60.5 116.5l16 76c-16.667 -20.667 -35.667 -36.334 -57 -47.001s-47.666 -16 -78.999 -16
c-44 0 -78.5 13.333 -103.5 40s-37.5 64 -37.5 112c0 26 3.66699 58.333 11 97c8.66699 46 19.5 85.167 32.5 117.5s29.833 58.833 50.5 79.5c18 18 38.333 31 61 39s46.334 12 71.001 12c27.333 0 51.833 -5.16699 73.5 -15.5s38.5 -28.166 50.5 -53.499z" />
    <glyph glyph-name="h" unicode="h" 
d="M474 360c0 -14.667 -1.66699 -31.0029 -5 -49.0029l-63 -311h-70l61 304c3.33301 18 5 33.333 5 46c0 28.667 -8.16699 50.334 -24.5 65.001s-37.833 22 -64.5 22c-10.667 0 -23 -1.66699 -37 -5s-28.167 -9.66602 -42.5 -18.999s-27.666 -23.166 -39.999 -41.499
s-21.166 -41.5 -26.499 -69.5l-47 -239l-13 -63h-70l13 63l117 586l12 63h70l-13 -63l-41 -208c17.333 18.667 37.666 33 60.999 43s50.666 15 81.999 15c39.333 0 71.833 -12.333 97.5 -37s38.5 -58.667 38.5 -102z" />
    <glyph glyph-name="i" unicode="i" horiz-adv-x="241" 
d="M205 493l-85 -430l-13 -63h-70l13 63l85 430h70zM251 706l-15 -73h-79l14 73h80z" />
    <glyph glyph-name="j" unicode="j" horiz-adv-x="241" 
d="M205 493l-85.001 -430l-31 -155c-17.333 -85.333 -65.666 -128 -144.999 -128h-51l12 60h34c22.667 0 40.5 6 53.5 18s21.833 31 26.5 57l30 148l86 430h70zM250.999 706l-15 -73h-79l14 73h80z" />
    <glyph glyph-name="k" unicode="k" horiz-adv-x="513" 
d="M501 492l-196 -191l133 -301h-81l-106 256l-115 -109l-17 -84l-12 -63h-70l13 63l117 586l12 63h70l-13 -63l-81 -408l256 251h90z" />
    <glyph glyph-name="l" unicode="l" horiz-adv-x="285" 
d="M247 712l-13 -62.998l-103 -515c-1.33301 -7.33301 -2.33301 -13.333 -3 -18s-1 -9.66699 -1 -15c0 -13.333 4 -23.5 12 -30.5s22 -10.5 42 -10.5h41l-12 -60h-52c-12 0 -23.833 1.66699 -35.5 5s-22.5 8.5 -32.5 15.5s-18 16.667 -24 29s-9 27.166 -9 44.499
c0 15.333 1.33301 28.666 4 39.999l103 515l13 63h70z" />
    <glyph glyph-name="m" unicode="m" horiz-adv-x="834" 
d="M193 438c35.333 40.667 83.998 60.9961 145.998 60.9961c58 0 99 -27.333 123 -82c22 27.333 46.5 47.833 73.5 61.5s60.167 20.5 99.5 20.5c40 0 73 -12.5 99 -37.5s39 -58.833 39 -101.5c0 -16 -1.66699 -32.333 -5 -49l-62 -311h-71l61 304
c4 21.333 6 36.666 6 45.999c0 28 -8.33301 49.5 -25 64.5s-38.334 22.5 -65.001 22.5c-10.667 0 -22.834 -1.66699 -36.501 -5s-27.667 -9.66602 -42 -18.999s-27.666 -23.166 -39.999 -41.499s-21.166 -41.5 -26.499 -69.5l-61 -302h-70l61 304c3.33301 18 5 33.333 5 46
c0 28.667 -8.16699 50.334 -24.5 65.001s-37.833 22 -64.5 22c-10.667 0 -23 -1.66699 -37 -5s-28.167 -9.66602 -42.5 -18.999s-27.666 -23.166 -39.999 -41.499s-21.166 -41.5 -26.499 -69.5l-60 -302h-70l60 303l38 190h69z" />
    <glyph glyph-name="n" unicode="n" 
d="M474 360c0 -14.667 -1.66992 -31.0029 -5.00293 -49.0029l-63 -311h-70l61 304c3.33301 18 5 33.333 5 46c0 28.667 -8.16699 50.334 -24.5 65.001s-37.833 22 -64.5 22c-10.667 0 -23 -1.66699 -37 -5s-28.167 -9.66602 -42.5 -18.999s-27.666 -23.166 -39.999 -41.499
s-21.166 -41.5 -26.499 -69.5l-60 -302h-70l61 304l37 189h69l-11 -55c35.333 40.667 84 61 146 61c38.667 0 70.834 -12.333 96.501 -37s38.5 -58.667 38.5 -102z" />
    <glyph glyph-name="o" unicode="o" horiz-adv-x="502" 
d="M452 336c0 -14 -0.833008 -29 -2.5 -45s-3.83398 -30.667 -6.50098 -44c-10 -51.333 -22.667 -92.5 -38 -123.5s-33.666 -56.167 -54.999 -75.5c-40 -36 -87 -54 -141 -54c-16 0 -33 2.33301 -51 7s-35.167 13.167 -51.5 25.5s-29.833 29.333 -40.5 51s-16 48.5 -16 80.5
c0 14 1 29 3 45s4 30.667 6 44c10 51.333 22.667 92.5 38 123.5s33.666 56.167 54.999 75.5c20 18 42 31.333 66 40s49 13 75 13c16.667 0 33.834 -2.33301 51.501 -7s34.667 -13 51 -25s29.833 -28.833 40.5 -50.5s16 -48.5 16 -80.5zM383 333
c0 35.333 -9.16797 61.501 -27.501 78.501s-40.833 25.5 -67.5 25.5c-16.667 0 -33.167 -3.33301 -49.5 -10s-30.5 -16 -42.5 -28c-15.333 -15.333 -28.166 -34.666 -38.499 -57.999s-19.5 -54.666 -27.5 -93.999c-7.33301 -38 -11 -67 -11 -87
c0 -35.333 9.16699 -61.5 27.5 -78.5s40.833 -25.5 67.5 -25.5c16.667 0 33.334 3.66699 50.001 11s30.667 16.666 42 27.999c15.333 15.333 28.166 34.666 38.499 57.999s19.5 54.666 27.5 93.999c7.33301 38 11 66.667 11 86z" />
    <glyph glyph-name="p" unicode="p" horiz-adv-x="519" 
d="M192 435c20.667 24.667 42.1689 41.5 64.502 50.5s46.5 13.5 72.5 13.5c49.333 0 85.166 -14.167 107.499 -42.5s33.5 -65.5 33.5 -111.5c0 -14 -0.833008 -28.667 -2.5 -44s-4.5 -33.333 -8.5 -54c-9.33301 -47.333 -20.5 -87.333 -33.5 -120s-30.167 -59.667 -51.5 -81
c-18.667 -18.667 -38.834 -32 -60.501 -40s-45.5 -12 -71.5 -12s-49.667 5.16699 -71 15.5s-38.333 27.833 -51 52.5l-57 -281h-70l93 468l49 244h69zM399.002 336c0 30.667 -6.66797 55.165 -20.001 73.498s-36 27.5 -68 27.5c-24 0 -44.833 -4.83301 -62.5 -14.5
s-32.5 -23.167 -44.5 -40.5s-21.667 -37.166 -29 -59.499s-13.666 -47.5 -18.999 -75.5c-3.33301 -16.667 -6 -32.5 -8 -47.5s-3 -28.833 -3 -41.5c0 -30 6.83301 -54.5 20.5 -73.5s36.5 -28.5 68.5 -28.5c24 0 44.833 5 62.5 15s32.334 23.667 44.001 41s21.167 37 28.5 59
s13.666 47.333 18.999 76c3.33301 17.333 6 33.333 8 48s3 28.334 3 41.001z" />
    <glyph glyph-name="q" unicode="q" horiz-adv-x="519" 
d="M374 334c0 31.333 -6.83203 56.335 -20.499 75.002s-36.5 28 -68.5 28c-24 0 -44.833 -4.83301 -62.5 -14.5s-32.334 -23.167 -44.001 -40.5s-21.167 -37 -28.5 -59s-13.666 -47.333 -18.999 -76c-3.33301 -16.667 -6 -32.5 -8 -47.5s-3 -28.5 -3 -40.5
c0 -31.333 6.66699 -56.333 20 -75s36 -28 68 -28c24 0 44.833 5 62.5 15s32.5 23.667 44.5 41s21.667 37.166 29 59.499s13.666 47.5 18.999 75.5c3.33301 17.333 6 33.166 8 47.499s3 27.5 3 39.5zM400.001 430.002l12.998 63.001h70l-49 -246l-93 -466h-71l55 276
c-14 -18 -31.667 -33 -53 -45s-48.666 -18 -81.999 -18c-45.333 0 -80.166 13.333 -104.499 40s-36.5 65.334 -36.5 116.001c0 10.667 0.833008 24.667 2.5 42s4.5 35.666 8.5 54.999c9.33301 48 20.5 88.333 33.5 121s30.167 59.667 51.5 81c17.333 17.333 37.333 30 60 38
s46.667 12 72 12c27.333 0 51.833 -5.33301 73.5 -16s38.167 -28.334 49.5 -53.001z" />
    <glyph glyph-name="r" unicode="r" horiz-adv-x="399" 
d="M437 453l-57 -51c-8 10.667 -17.667 19.167 -29 25.5s-25 9.5 -41 9.5c-34.667 0 -65.334 -12.833 -92.001 -38.5s-43.667 -57.834 -51 -96.501l-47 -239l-13 -63h-70l13 63l85 430h69l-12 -60c15.333 20.667 34.833 36.834 58.5 48.501s50.167 17.5 79.5 17.5
c44.667 0 80.334 -15.333 107.001 -46z" />
    <glyph glyph-name="s" unicode="s" horiz-adv-x="471" 
d="M434 444l-49.999 -42.999c-16 14 -32.667 23.833 -50 29.5s-39 8.5 -65 8.5c-38.667 0 -68.834 -9.83301 -90.501 -29.5s-32.5 -42.5 -32.5 -68.5c0 -30 24.333 -48.667 73 -56l33 -4l33 -5c43.333 -6 74.166 -18.5 92.499 -37.5s27.5 -46.833 27.5 -83.5
c0 -18.667 -3.83301 -37.167 -11.5 -55.5s-20.167 -35.5 -37.5 -51.5c-18 -18 -42 -31.5 -72 -40.5s-62.333 -13.5 -97 -13.5c-78 0 -138.667 23.667 -182 71l52 45c16.667 -19.333 35.5 -33.5 56.5 -42.5s47.5 -13.5 79.5 -13.5c45.333 0 80.333 10.167 105 30.5
s37 43.166 37 68.499c0 20.667 -5.66699 35.334 -17 44.001s-28.666 14.667 -51.999 18l-33 5l-34 5c-24 3.33301 -44.333 8.83301 -61 16.5s-29.5 16.5 -38.5 26.5s-15.167 20.333 -18.5 31s-5 21.667 -5 33c0 19.333 4 39.166 12 59.499s19.333 37.833 34 52.5
c36.667 36.667 88.667 55 156 55c64.667 0 116.667 -18.333 156 -55z" />
    <glyph glyph-name="t" unicode="t" horiz-adv-x="319" 
d="M314 489l-11 -52.9971h-96l-61 -302c-2.66699 -12.667 -4 -23.334 -4 -32.001c0 -14 4.16699 -24.5 12.5 -31.5s22.5 -10.5 42.5 -10.5h40l-13 -60h-50c-12 0 -23.833 1.66699 -35.5 5s-22.5 8.5 -32.5 15.5s-18.167 16.667 -24.5 29s-9.5 27.166 -9.5 44.499
c0 5.33301 0.666992 12.666 2 21.999c1.33301 8.66699 2 14.667 2 18l60 302h-61l10 53h62l31 154h70l-31 -154h97z" />
    <glyph glyph-name="u" unicode="u" 
d="M341 55c-35.333 -40.667 -83.667 -61 -145 -61c-39.333 0 -71.833 12.333 -97.5 37s-38.5 58.667 -38.5 102c0 11.333 1.66699 26.333 5 45l1 4l62 311h70l-61 -304c-3.33301 -18 -5 -33.333 -5 -46c0 -28 8.33301 -49.5 25 -64.5s38.334 -22.5 65.001 -22.5
c10.667 0 22.834 1.66699 36.501 5s27.667 9.83301 42 19.5s27.666 23.5 39.999 41.5s21.166 41 26.499 69l60 302h71l-98 -493h-69z" />
    <glyph glyph-name="v" unicode="v" horiz-adv-x="425" 
d="M464 493l-268 -493h-63l-73 493h71l50 -397l205 397h78z" />
    <glyph glyph-name="w" unicode="w" horiz-adv-x="688" 
d="M724 493l-239 -493h-64l-48 382l-197 -382h-64l-51 493h71l31 -394l200 394h57l47 -394l183 394h74z" />
    <glyph glyph-name="x" unicode="x" horiz-adv-x="458" 
d="M467 493l-197 -244l114 -249h-82l-81 196l-152 -196h-86l206 256l-108 237h81l78 -185l141 185h86z" />
    <glyph glyph-name="y" unicode="y" horiz-adv-x="424" 
d="M462 493l-259 -482.001l-69 -129c-8 -14.667 -15.333 -26.667 -22 -36s-13.334 -17 -20.001 -23c-12.667 -11.333 -27 -19.666 -43 -24.999s-35.667 -8 -59 -8h-31l13 62h21c22.667 0 39.834 4.5 51.501 13.5s24.167 26.167 37.5 51.5l49 94l-71 482h70l51 -397l204 397
h77z" />
    <glyph glyph-name="z" unicode="z" horiz-adv-x="440" 
d="M439 493l-12 -59l-330 -372h262l-12 -62h-347l12 59l329 372h-247l12 62h333z" />
    <glyph glyph-name="braceleft" unicode="{" horiz-adv-x="338" 
d="M397 786l-12.999 -62h-25c-26.667 0 -44.667 -5 -54 -15s-17 -29.667 -23 -59l-39 -194c-6 -30 -15.333 -52.667 -28 -68s-30.334 -26.333 -53.001 -33c16 -8.66699 27.167 -19 33.5 -31s9.5 -25.333 9.5 -40c0 -4 -0.333008 -9.5 -1 -16.5
s-1.33398 -12.5 -2.00098 -16.5l-37 -185c-3.33301 -16.667 -5 -29.667 -5 -39c0 -15.333 4 -25.666 12 -30.999s21.667 -8 41 -8h33l-12 -62h-40c-39.333 0 -66.833 8.5 -82.5 25.5s-23.5 38.5 -23.5 64.5c0 5.33301 1 13.333 3 24c2 9.33301 3 16 3 20l38 188
c1.33301 4 2 9.33301 2 16v10c-0.666992 4.66699 -1 7.66699 -1 9c0 12 -4 22.333 -12 31s-21 13 -39 13h-20l13 62h24c18 0 34 6.33301 48 19c12.667 10.667 22 30.667 28 60l38 189c5.33301 28.667 11 50.167 17 64.5s15.667 27.166 29 38.499
c20.667 17.333 52.334 26 95.001 26h43z" />
    <glyph glyph-name="bar" unicode="|" horiz-adv-x="310" 
d="M298 786l-172 -860h-69l171 860h70z" />
    <glyph glyph-name="braceright" unicode="}" horiz-adv-x="338" 
d="M321 385l-13.001 -62h-24c-18.667 0 -35 -6.33301 -49 -19c-12.667 -10.667 -22 -30.667 -28 -60l-37 -189c-5.33301 -28.667 -11 -50.167 -17 -64.5s-15.667 -27.166 -29 -38.499c-20.667 -17.333 -52.334 -26 -95.001 -26h-43l12 62h26c27.333 0 45.5 5 54.5 15
s16.5 29.667 22.5 59l39 194c6 30 15.333 52.667 28 68s30.334 26.333 53.001 33c-16 8.66699 -27.167 19 -33.5 31s-9.5 25.333 -9.5 40c0 4 0.333008 9.5 1 16.5s1.33398 12.5 2.00098 16.5l37 185c3.33301 16.667 5 29.667 5 39c0 15.333 -4 25.666 -12 30.999
s-21.667 8 -41 8h-33l12 62h40c20.667 0 38 -2.5 52 -7.5s24.833 -11.833 32.5 -20.5s13 -18.167 16 -28.5s4.5 -21.5 4.5 -33.5c0 -5.33301 -1 -13.333 -3 -24c-1.33301 -9.33301 -2 -16 -2 -20l-38 -188c-1.33301 -4 -2 -9 -2 -15c0 -0.666992 0.333008 -3.66699 1 -9v-11
c0 -12 3.83301 -22.333 11.5 -31s20.5 -13 38.5 -13h21z" />
    <glyph glyph-name="asciitilde" unicode="~" horiz-adv-x="513" 
d="M476 275c-28.667 -26 -52.998 -43.167 -72.998 -51.5s-39.333 -12.5 -58 -12.5c-16.667 0 -31.834 2.16699 -45.501 6.5s-32.167 12.833 -55.5 25.5c-16 8.66699 -29 14.5 -39 17.5s-20.333 4.5 -31 4.5c-13.333 0 -26.333 -3 -39 -9s-29.667 -17.667 -51 -35l-37 47
c29.333 26 54 43.333 74 52s39.333 13 58 13c16.667 0 31.667 -2.16699 45 -6.5s31.666 -12.833 54.999 -25.5c16.667 -8.66699 30 -14.667 40 -18s20 -5 30 -5c13.333 0 26.5 3 39.5 9s30.167 17.667 51.5 35z" />
    <glyph glyph-name="Euro" horiz-adv-x="643" 
d="M625 509l-72.9961 0.00488281c0 44.667 -11.667 80.167 -35 106.5s-55.333 39.5 -96 39.5c-52.667 0 -99 -20 -139 -60c-14.667 -14.667 -26.834 -32.667 -36.501 -54s-18.834 -50 -27.501 -86h209l-9 -47h-210l-19 -98h210l-9 -47h-208
c-4.66699 -27.333 -7 -52.333 -7 -75c0 -40 13 -71.833 39 -95.5s57.667 -35.5 95 -35.5c40 0 77.5 13.167 112.5 39.5s60.833 61.833 77.5 106.5h74c-8.66699 -27.333 -20.667 -53.333 -36 -78s-34.166 -46.834 -56.499 -66.501s-48.333 -35.334 -78 -47.001
s-62.834 -17.5 -99.501 -17.5c-56.667 0 -104.334 17.167 -143.001 51.5s-58 81.166 -58 140.499c0 9.33301 0.666992 20.166 2 32.499s3.33301 27.166 6 44.499h-64l8 47h64l18 98h-63l9 47h64c10 45.333 21.333 82 34 110s30 53 52 75c24 24 52.667 43 86 57
s67.666 21 102.999 21c66 0 116.5 -19.167 151.5 -57.5s52.5 -88.833 52.5 -151.5z" />
    <glyph glyph-name="nonbreakingspace" unicode="&#xa0;" horiz-adv-x="236" 
 />
    <glyph glyph-name="exclamdown" unicode="&#xa1;" horiz-adv-x="301" 
d="M176 296l-91 -515h-82l113 515h60zM224 493l-17 -86h-83l17 86h83z" />
    <glyph glyph-name="cent" unicode="&#xa2;" horiz-adv-x="476" 
d="M481 541l-51.999 -41.999c-23.333 34.667 -52 53.334 -86 56.001l-71 -378c20.667 1.33301 39.167 6.5 55.5 15.5s33.166 22.5 50.499 40.5l41 -48c-42 -43.333 -94 -67 -156 -71l-22 -114h-57l23 117c-42.667 8 -75.5 28.167 -98.5 60.5s-34.5 71.5 -34.5 117.5
c0 36 4.66699 72.167 14 108.5s23.5 69.666 42.5 99.999s43 55.666 72 75.999s62.167 32.5 99.5 36.5l18 96h57l-19 -95c27.333 -2.66699 51 -10.5 71 -23.5s37.333 -30.5 52 -52.5zM293.001 552.001c-15.333 -3.33301 -30 -11.5 -44 -24.5s-28.333 -30.167 -43 -51.5
c-18.667 -25.333 -33.167 -55.5 -43.5 -90.5s-15.5 -69.167 -15.5 -102.5c0 -30 7.16699 -53.5 21.5 -70.5s32.5 -27.833 54.5 -32.5z" />
    <glyph glyph-name="sterling" unicode="&#xa3;" horiz-adv-x="522" 
d="M549 653l-53 -46c-23.333 31.333 -56.666 47 -99.999 47c-46 0 -83.333 -14.333 -112 -43s-48 -69 -58 -121l-21 -107h141l-11 -51h-140l-53 -268h298l-13 -64h-371l67 332h-60l9 51h61l23 115c14 70.667 41.5 125 82.5 163s96.5 57 166.5 57
c32 0 59.667 -5.66699 83 -17s43.666 -27.333 60.999 -48z" />
    <glyph glyph-name="currency" unicode="&#xa4;" horiz-adv-x="505" 
d="M425 334c0 -44.667 -14.667 -81.667 -44 -111s-66.333 -44 -111 -44s-81.667 14.667 -111 44s-44 66.333 -44 111s14.667 81.667 44 111s66.333 44 111 44s81.667 -14.667 111 -44s44 -66.333 44 -111z" />
    <glyph glyph-name="yen" unicode="&#xa5;" horiz-adv-x="490" 
d="M575 712l-211 -315h95l-10 -50h-119l-37 -55l-10 -50h146l-10 -51h-146l-38 -191h-73l38 191h-145l10 51h145l11 54l-15 51h-121l10 50h96l-91 315h76l94 -344l224 344h81z" />
    <glyph glyph-name="brokenbar" unicode="&#xa6;" horiz-adv-x="319" 
d="M298 786l-70 -350h-70l70 350h70zM196 276l-70 -350h-69l69 350h70z" />
    <glyph glyph-name="section" unicode="&#xa7;" horiz-adv-x="528" 
d="M497 584c0 -9.33301 -0.334961 -15.666 -1.00195 -18.999h-68c0 0.666992 0.333008 2.66699 1 6v6c0 25.333 -8.16699 44.833 -24.5 58.5s-37.166 20.5 -62.499 20.5c-36 0 -65.5 -10.667 -88.5 -32s-34.5 -49.333 -34.5 -84c0 -21.333 5.66699 -38.5 17 -51.5
s27.333 -22.833 48 -29.5l67 -22c26.667 -9.33301 49.667 -25.5 69 -48.5s29 -53.833 29 -92.5c0 -46 -11.167 -87.833 -33.5 -125.5s-56.166 -66.5 -101.499 -86.5c20.667 -10 37.167 -24.833 49.5 -44.5s18.5 -43.5 18.5 -71.5c0 -57.333 -18.833 -103.833 -56.5 -139.5
s-87.5 -53.5 -149.5 -53.5c-45.333 0 -82 12.167 -110 36.5s-42 57.833 -42 100.5c0 9.33301 0.333008 16.333 1 21h69v-7c-0.666992 -3.33301 -1 -5.33301 -1 -6c0 -26 8 -46.167 24 -60.5s38.667 -21.5 68 -21.5c35.333 0 65.166 11 89.499 33s36.5 52.333 36.5 91
c0 20 -5.66699 37.667 -17 53s-27.666 26.333 -48.999 33l-67 22c-26.667 9.33301 -49.667 25.5 -69 48.5s-29 53.833 -29 92.5c0 46 11.333 88 34 126s56.334 66.667 101.001 86c-43.333 24.667 -65 63 -65 115c0 27.333 5.16699 52.166 15.5 74.499
s24.666 41.333 42.999 57s39.333 27.667 63 36s48.167 12.5 73.5 12.5c49.333 0 87 -13.5 113 -40.5s39 -58.167 39 -93.5zM379.998 291c0 30 -8.66895 52.832 -26.002 68.499s-38.666 23.5 -63.999 23.5c-33.333 0 -62.333 -11.333 -87 -34
c-25.333 -23.333 -42 -55.333 -50 -96c-2.66699 -12.667 -4 -25 -4 -37c0 -32 9.33301 -55.5 28 -70.5s39.334 -22.5 62.001 -22.5c32.667 0 61.667 11.667 87 35c13.333 12.667 24 26.5 32 41.5s14 32.833 18 53.5c2.66699 12.667 4 25.334 4 38.001z" />
    <glyph glyph-name="dieresis" unicode="&#xa8;" horiz-adv-x="475" 
d="M461 685l-17 -88h-71l18 88h70zM260 685l-18 -88h-69l17 88h70z" />
    <glyph glyph-name="copyright" unicode="&#xa9;" horiz-adv-x="835" 
d="M781 356c0 -46.667 -8.83301 -91 -26.5 -133s-42.334 -78.833 -74.001 -110.5s-68.5 -56.334 -110.5 -74.001s-86.333 -26.5 -133 -26.5s-91 8.83301 -133 26.5s-78.833 42.334 -110.5 74.001s-56.334 68.5 -74.001 110.5s-26.5 86.333 -26.5 133s8.83301 91 26.5 133
s42.334 78.833 74.001 110.5s68.5 56.334 110.5 74.001s86.333 26.5 133 26.5s91 -8.83301 133 -26.5s78.833 -42.334 110.5 -74.001s56.334 -68.5 74.001 -110.5s26.5 -86.333 26.5 -133zM725 356c0 39.333 -7.49805 76.834 -22.498 112.501s-35.667 67 -62 94
s-57 48 -92 63s-72.167 22.5 -111.5 22.5s-76.333 -7.5 -111 -22.5s-65.334 -36.167 -92.001 -63.5s-47.334 -58.666 -62.001 -93.999s-22 -72.666 -22 -111.999s7.33301 -76.833 22 -112.5s35.167 -66.834 61.5 -93.501s57 -47.667 92 -63s72.167 -23 111.5 -23
s76.5 7.5 111.5 22.5s65.667 36.167 92 63.5s47 58.666 62 93.999s22.5 72.666 22.5 111.999zM566.002 213.001c-19.333 -16.667 -38.499 -29.167 -57.499 -37.5s-41.167 -12.5 -66.5 -12.5c-53.333 0 -94.833 17.833 -124.5 53.5s-44.5 82.167 -44.5 139.5
s14.833 104 44.5 140s71.167 54 124.5 54c25.333 0 47.166 -4 65.499 -12s37.833 -21 58.5 -39l-35 -35c-16 14 -30.5 23.667 -43.5 29s-28.167 8 -45.5 8c-40.667 0 -70.167 -13.333 -88.5 -40s-27.5 -61.667 -27.5 -105s9.16699 -78.333 27.5 -105s47.833 -40 88.5 -40
c17.333 0 32.5 2.66699 45.5 8s27.5 15 43.5 29z" />
    <glyph glyph-name="ordfeminine" unicode="&#xaa;" horiz-adv-x="427" 
d="M419 613c0 -10.667 -0.999023 -20.999 -2.99902 -30.999l-53 -264h-55l7 38c-24.667 -28.667 -61.667 -43 -111 -43c-34 0 -62.167 7.83301 -84.5 23.5s-33.5 40.167 -33.5 73.5c0 17.333 3 33.833 9 49.5s15 29.5 27 41.5c27.333 27.333 65.333 41 114 41h114l8 41
c2 8.66699 3.16699 14.667 3.5 18s0.5 6.33301 0.5 9c0 36.667 -25.667 55 -77 55c-24.667 0 -44.834 -3.33301 -60.501 -10s-30.834 -18 -45.501 -34l-34 40c19.333 19.333 39.833 33.333 61.5 42s48.834 13 81.501 13c15.333 0 30.5 -1.5 45.5 -4.5s29 -8.33301 42 -16
s23.5 -18.334 31.5 -32.001s12 -30.5 12 -50.5zM342.001 499.001l-100.002 0.00195312c-29.333 0 -53.166 -7.83301 -71.499 -23.5s-27.5 -36.834 -27.5 -63.501c0 -33.333 25.667 -50 77 -50c34.667 0 62.334 10.333 83.001 31c15.333 15.333 25.333 35.666 30 60.999z" />
    <glyph glyph-name="guillemotleft" unicode="&#xab;" horiz-adv-x="528" 
d="M285 478l-19 -95l-138 -121l91 -121l-16 -84l-161 211zM501 478l-19 -95l-139 -121l93 -121l-17 -84l-161 211z" />
    <glyph glyph-name="logicalnot" unicode="&#xac;" horiz-adv-x="496" 
d="M460 308l-13 -65l-28 -139h-64l28 139h-335l13 65h399z" />
    <glyph glyph-name="minus" unicode="&#xad;" horiz-adv-x="496" 
d="M458 303l-12 -64h-397l13 64h396z" />
    <glyph glyph-name="registered" unicode="&#xae;" horiz-adv-x="835" 
d="M781 356c0 -46.667 -8.83301 -91 -26.5 -133s-42.334 -78.833 -74.001 -110.5s-68.5 -56.334 -110.5 -74.001s-86.333 -26.5 -133 -26.5s-91 8.83301 -133 26.5s-78.833 42.334 -110.5 74.001s-56.334 68.5 -74.001 110.5s-26.5 86.333 -26.5 133s8.83301 91 26.5 133
s42.334 78.833 74.001 110.5s68.5 56.334 110.5 74.001s86.333 26.5 133 26.5s91 -8.83301 133 -26.5s78.833 -42.334 110.5 -74.001s56.334 -68.5 74.001 -110.5s26.5 -86.333 26.5 -133zM726 356c0 40 -7.5 77.668 -22.5 113.001s-35.833 66.666 -62.5 93.999
s-57.5 48.5 -92.5 63.5s-72.167 22.5 -111.5 22.5s-76.5 -7.5 -111.5 -22.5s-65.833 -36 -92.5 -63s-47.334 -58.5 -62.001 -94.5s-22 -73.667 -22 -113s7.33301 -76.833 22 -112.5s35.334 -67.167 62.001 -94.5s57.5 -48.5 92.5 -63.5s72.167 -22.5 111.5 -22.5
s76.5 7.5 111.5 22.5s65.833 36.167 92.5 63.5s47.5 58.833 62.5 94.5s22.5 73.167 22.5 112.5zM582 168.001h-62l-86 154h-56v-154h-54v377h129c33.333 0 61.5 -11 84.5 -33s34.5 -48.667 34.5 -80c0 -26 -7.33301 -48 -22 -66s-34 -30.667 -58 -38zM518 432.001
c0 18.667 -6.66699 34.333 -20 47s-30.333 19 -51 19h-69v-131h69c20.667 0 37.667 6.16699 51 18.5s20 27.833 20 46.5z" />
    <glyph glyph-name="macron" unicode="&#xaf;" horiz-adv-x="475" 
d="M466 666l-12 -54h-286l10 54h288z" />
    <glyph glyph-name="degree" unicode="&#xb0;" horiz-adv-x="456" 
d="M450 556c0 -45.333 -15.6699 -83.4971 -47.0029 -114.497s-69.666 -46.5 -114.999 -46.5s-83.5 15.5 -114.5 46.5s-46.5 69.167 -46.5 114.5s15.5 83.666 46.5 114.999s69.167 47 114.5 47c22.667 0 43.834 -4.16699 63.501 -12.5s36.834 -19.833 51.501 -34.5
s26.167 -31.834 34.5 -51.501s12.5 -40.834 12.5 -63.501zM390.997 556.003c0 29.333 -10 54.167 -30 74.5s-44.333 30.5 -73 30.5c-29.333 0 -53.666 -10 -72.999 -30s-29 -45 -29 -75s9.66699 -55 29 -75s43.666 -30 72.999 -30s53.833 10 73.5 30s29.5 45 29.5 75z" />
    <glyph glyph-name="plusminus" unicode="&#xb1;" horiz-adv-x="496" 
d="M467 352l-13 -64h-165l-35 -179h-65l36 179h-167l13 64h167l35 177h65l-36 -177h165zM412 64l-13 -64h-397l13 64h397z" />
    <glyph glyph-name="twosuperior" unicode="&#xb2;" horiz-adv-x="325" 
d="M352 617c0 -23.333 -5.66699 -44.833 -17 -64.5s-26.333 -39.167 -45 -58.5l-156 -159h168l-10 -50h-237l10 50l188 193c15.333 15.333 26.333 29.5 33 42.5s10 27.167 10 42.5c0 16 -4.16699 28.833 -12.5 38.5s-21.5 14.5 -39.5 14.5
c-23.333 0 -40.833 -6.16699 -52.5 -18.5s-19.167 -28.5 -22.5 -48.5h-55c2.66699 14.667 6.83398 28.667 12.501 42s13.667 25.666 24 36.999s23.666 20.5 39.999 27.5s35.833 10.5 58.5 10.5c34 0 59.667 -9.16699 77 -27.5s26 -42.166 26 -71.499z" />
    <glyph glyph-name="threesuperior" unicode="&#xb3;" horiz-adv-x="338" 
d="M359 614c0 -26 -6 -48.667 -18 -68s-30 -34 -54 -44c14.667 -8 25.334 -18.5 32.001 -31.5s10 -30.833 10 -53.5c0 -38 -12.333 -70.333 -37 -97s-59.667 -40 -105 -40c-38.667 0 -67 9.66699 -85 29s-27 41 -27 65c0 8 0.666992 16 2 24h56v-6
c-0.666992 -2.66699 -1 -4.66699 -1 -6c0 -37.333 20 -56 60 -56c20.667 0 39.334 7.5 56.001 22.5s25 36.5 25 64.5c0 20.667 -4.33301 36.167 -13 46.5s-24 15.5 -46 15.5h-9l10 48h8c27.333 0 47.5 8.33301 60.5 25s19.5 36.667 19.5 60c0 18.667 -5 32.334 -15 41.001
s-22 13 -36 13c-20.667 0 -37.167 -5 -49.5 -15s-21.5 -26.333 -27.5 -49h-56c9.33301 40 25.666 69 48.999 87s52.666 27 87.999 27c31.333 0 56.333 -9.33301 75 -28s28 -43.334 28 -74.001z" />
    <glyph glyph-name="acute" unicode="&#xb4;" horiz-adv-x="475" 
d="M455 740l-130 -151h-66l112 151h84z" />
    <glyph glyph-name="mu" unicode="&#xb5;" horiz-adv-x="536" 
d="M342 55c-35.333 -40.667 -83.667 -61 -145 -61c-38.667 0 -68.667 13.333 -90 40l-50 -253h-70l142 712h70l-61 -304c-3.33301 -18 -5 -33.333 -5 -46c0 -28 8.33301 -49.5 25 -64.5s38.334 -22.5 65.001 -22.5c10.667 0 22.834 1.66699 36.501 5s27.667 9.83301 42 19.5
s27.666 23.5 39.999 41.5s21.166 41 26.499 69l60 302h71l-98 -493h-69z" />
    <glyph glyph-name="paragraph" unicode="&#xb6;" horiz-adv-x="574" 
d="M571 712l-13 -63.998l-173 -867h-70l172 866h-110l-173 -866h-70l112 561c-44 2 -80.333 19 -109 51s-43 70.333 -43 115c0 26 4.83301 51.167 14.5 75.5s24.5 46.166 44.5 65.499s45 34.666 75 45.999s64.667 17 104 17h239z" />
    <glyph glyph-name="periodcentered" unicode="&#xb7;" horiz-adv-x="257" 
d="M187 315l-18 -90h-90l18 90h90z" />
    <glyph glyph-name="cedilla" unicode="&#xb8;" horiz-adv-x="475" 
d="M236 -66l-83 -146h-77l96 146h64z" />
    <glyph glyph-name="onesuperior" unicode="&#xb9;" horiz-adv-x="249" 
d="M269 712l-86 -427h-55l72 360l-95 -71l14 69l94 69h56z" />
    <glyph glyph-name="ordmasculine" unicode="&#xba;" horiz-adv-x="432" 
d="M425 586c0 -10.667 -0.669922 -22.501 -2.00293 -35.501s-3 -24.833 -5 -35.5c-14.667 -75.333 -39.334 -128.333 -74.001 -159c-32 -28 -69.333 -42 -112 -42c-12.667 0 -26.167 1.83301 -40.5 5.5s-28.166 10.334 -41.499 20.001s-24.166 23.167 -32.499 40.5
s-12.5 38.666 -12.5 63.999c0 10.667 0.666992 22.5 2 35.5s3 24.833 5 35.5c14.667 74.667 39.334 127.334 74.001 158.001c32.667 28.667 70.334 43 113.001 43c13.333 0 27 -1.83301 41 -5.5s27.5 -10.334 40.5 -20.001s23.667 -23.167 32 -40.5
s12.5 -38.666 12.5 -63.999zM368.997 581.999c0 28.667 -7.33105 49.501 -21.998 62.501s-32.334 19.5 -53.001 19.5c-16 0 -30 -2.83301 -42 -8.5s-22 -12.5 -30 -20.5c-12.667 -12.667 -23.334 -29.167 -32.001 -49.5s-15.667 -43.833 -21 -70.5
c-5.33301 -29.333 -8 -52 -8 -68c0 -28.667 7.33301 -49.5 22 -62.5s32.334 -19.5 53.001 -19.5c16 0 30.167 3 42.5 9s22.5 13 30.5 21c12.667 12.667 23.167 29 31.5 49s15.166 43.667 20.499 71c5.33301 29.333 8 51.666 8 66.999z" />
    <glyph glyph-name="guillemotright" unicode="&#xbb;" horiz-adv-x="528" 
d="M496 267l-243 -210l19 95l138 121l-91 121l16 84zM280 267l-243 -210l19 95l139 121l-93 121l17 84z" />
    <glyph glyph-name="onequarter" unicode="&#xbc;" horiz-adv-x="744" 
d="M634 712l-458 -712h-60l458 712h60zM683 427l-204 -310h104l21 104h54l-21 -104h45l-9 -51h-46l-13 -66h-54l13 66h-165l10 51l203 310h62zM269 712l-86 -427h-55l72 360l-95 -71l13 68l95 70h56z" />
    <glyph glyph-name="onehalf" unicode="&#xbd;" horiz-adv-x="758" 
d="M728 332c0 -23.333 -5.83203 -44.833 -17.499 -64.5s-26.834 -39.167 -45.501 -58.5l-155 -159h168l-11 -50h-237l11 50l188 193c15.333 15.333 26.333 29.5 33 42.5s10 27.167 10 42.5c0 16 -4.16699 28.833 -12.5 38.5s-21.5 14.5 -39.5 14.5
c-23.333 0 -40.833 -6.16699 -52.5 -18.5s-19.167 -28.5 -22.5 -48.5h-56c2.66699 14.667 6.83398 28.667 12.501 42s13.667 25.666 24 36.999s23.666 20.5 39.999 27.5s35.833 10.5 58.5 10.5c34 0 59.833 -9.16699 77.5 -27.5s26.5 -42.166 26.5 -71.499zM623.001 712
l-459 -712h-60l459 712h60zM269.001 712l-86 -427h-55l72 360l-95 -71l13 68l95 70h56z" />
    <glyph glyph-name="threequarters" unicode="&#xbe;" horiz-adv-x="794" 
d="M287 502c14.667 -8 25.334 -18.5 32.001 -31.5s10 -30.833 10 -53.5c0 -38 -12.333 -70.333 -37 -97s-59.667 -40 -105 -40c-38.667 0 -67 9.66699 -85 29s-27 41 -27 65c0 8 0.666992 16 2 24h56v-6c-0.666992 -2.66699 -1 -4.66699 -1 -6c0 -37.333 20 -56 60 -56
c20.667 0 39.334 7.5 56.001 22.5s25 36.5 25 64.5c0 20.667 -4.33301 36.167 -13 46.5s-24 15.5 -46 15.5h-9l10 48h8c27.333 0 47.5 8.33301 60.5 25s19.5 36.667 19.5 60c0 18.667 -5 32.334 -15 41.001s-22 13 -36 13c-20.667 0 -37.167 -5 -49.5 -15
s-21.5 -26.333 -27.5 -49h-56c9.33301 40 25.666 69 48.999 87s52.666 27 87.999 27c31.333 0 56.333 -9.33301 75 -28s28 -43.334 28 -74.001c0 -26 -6 -48.667 -18 -68s-30 -34 -54 -44zM689 712l-459 -712h-59l458 712h60zM731 117l-10 -51h-46l-13 -66h-54l14 66h-166
l10 51l203 310h62l-204 -310h104l21 104h54l-21 -104h46z" />
    <glyph glyph-name="questiondown" unicode="&#xbf;" horiz-adv-x="474" 
d="M347 -47c-10.667 -56 -34.832 -99.6689 -72.499 -131.002s-84.834 -47 -141.501 -47c-41.333 0 -76.5 13.333 -105.5 40s-43.5 62.334 -43.5 107.001c0 29.333 5.83301 56.333 17.5 81s29.167 50.334 52.5 77.001l101 117c7.33301 8 13.833 17.5 19.5 28.5
s9.16699 20.833 10.5 29.5l8 42h70l-9 -45c-4 -19.333 -9.5 -36 -16.5 -50s-17.5 -29 -31.5 -45l-100 -115c-18 -20.667 -31 -39.667 -39 -57s-12 -37 -12 -59c0 -25.333 7.83301 -46.333 23.5 -63s37.5 -25 65.5 -25c33.333 0 61.833 10.167 85.5 30.5
s39.167 48.5 46.5 84.5h71zM302.002 492.998l-16 -86h-83l16 86h83z" />
    <glyph glyph-name="Agrave" unicode="&#xc0;" horiz-adv-x="581" 
d="M418 223l-53 384l-204 -384h257zM521 0h-74l-22 162h-296l-87 -162h-78l389 712h61zM416 776h-60l-72 151h80z" />
    <glyph glyph-name="Aacute" unicode="&#xc1;" horiz-adv-x="581" 
d="M521 0h-74l-22 162h-296l-87 -162h-78l389 712h61zM418 223l-53 384l-204 -384h257zM522 927l-130 -151h-66l112 151h84z" />
    <glyph glyph-name="Acircumflex" unicode="&#xc2;" horiz-adv-x="581" 
d="M521 0h-74l-22 162h-296l-87 -162h-78l389 712h61zM418 223l-53 384l-204 -384h257zM529 781h-63l-64 106l-109 -106h-69l150 153h65z" />
    <glyph glyph-name="Atilde" unicode="&#xc3;" horiz-adv-x="581" 
d="M521 0h-74l-22 162h-296l-87 -162h-78l389 712h61zM418 223l-53 384l-204 -384h257zM538 840c-17.333 -16.667 -33.666 -28.667 -48.999 -36s-31.333 -11 -48 -11c-24 0 -47 8 -69 24c-10.667 7.33301 -19.334 12.333 -26.001 15s-15 4 -25 4s-19.667 -2.66699 -29 -8
s-20.333 -14 -33 -26l-30 39c18 16.667 34.333 28.667 49 36s30.334 11 47.001 11c24.667 0 48 -8 70 -24c11.333 -8 20.166 -13.167 26.499 -15.5s14.5 -3.5 24.5 -3.5c18 0 38.667 11.333 62 34z" />
    <glyph glyph-name="Adieresis" unicode="&#xc4;" horiz-adv-x="581" 
d="M521 0h-74l-22 162h-296l-87 -162h-78l389 712h61zM418 223l-53 384l-204 -384h257zM542 872l-17 -88h-71l18 88h70zM341 872l-18 -88h-69l17 88h70z" />
    <glyph glyph-name="Aring" unicode="&#xc5;" horiz-adv-x="581" 
d="M521 0h-74l-22 162h-296l-87 -162h-78l389 712h61zM418 223l-53 384l-204 -384h257zM509 867c0 -32.667 -11.5 -60.667 -34.5 -84s-50.833 -35 -83.5 -35s-60.334 11.667 -83.001 35s-34 51.333 -34 84s11.333 60.334 34 83.001s50.334 34 83.001 34
s60.5 -11.333 83.5 -34s34.5 -50.334 34.5 -83.001zM462 867c0 18.667 -7.16699 34.834 -21.5 48.501s-30.833 20.5 -49.5 20.5s-35 -6.83301 -49 -20.5s-21 -29.834 -21 -48.501s7 -35.167 21 -49.5s30.333 -21.5 49 -21.5s35.167 7.16699 49.5 21.5s21.5 30.833 21.5 49.5
z" />
    <glyph glyph-name="AE" unicode="&#xc6;" horiz-adv-x="881" 
d="M920 712l-13 -63h-346l-52 -260h296l-13 -64h-296l-52 -262h351l-13 -63h-423l12 62l22 111h-232l-120 -173h-82l499 712h462zM489 649l-287 -415h204z" />
    <glyph glyph-name="Ccedilla" unicode="&#xc7;" horiz-adv-x="607" 
d="M592 509h-72.998c0 44.667 -11.667 80.167 -35 106.5s-55.333 39.5 -96 39.5c-52 0 -98 -20 -138 -60c-19.333 -19.333 -34.666 -45.666 -45.999 -78.999s-24 -86.666 -38 -159.999c-8.66699 -45.333 -14.834 -80.5 -18.501 -105.5s-5.5 -45.833 -5.5 -62.5
c0 -40 13 -71.833 39 -95.5s57.667 -35.5 95 -35.5c45.333 0 84.5 14 117.5 42s57.167 62.667 72.5 104h74c-20.667 -65.333 -55 -116.5 -103 -153.5s-102.667 -55.5 -164 -55.5c-58 0 -106.5 17.167 -145.5 51.5s-58.5 81.166 -58.5 140.499c0 14.667 1.66699 34.667 5 60
s9.66602 62 18.999 110c8 44 15.167 79.833 21.5 107.5s13.333 52.167 21 73.5s16.5 40.166 26.5 56.499s22.333 31.833 37 46.5c24 24 52.667 43 86 57s67.666 21 102.999 21c66 0 116.5 -19.167 151.5 -57.5s52.5 -88.833 52.5 -151.5zM297.002 -66l-83 -146h-77l96 146
h64z" />
    <glyph glyph-name="Egrave" unicode="&#xc8;" horiz-adv-x="572" 
d="M611 712l-13 -63h-346l-52 -258h297l-12 -63h-297l-54 -265h353l-12 -63h-426l13 63l117 586l13 63h419zM429 776h-60l-72 151h80z" />
    <glyph glyph-name="Eacute" unicode="&#xc9;" horiz-adv-x="572" 
d="M611 712l-13 -63h-346l-52 -258h297l-12 -63h-297l-54 -265h353l-12 -63h-426l13 63l117 586l13 63h419zM520 927l-130 -151h-66l112 151h84z" />
    <glyph glyph-name="Ecircumflex" unicode="&#xca;" horiz-adv-x="572" 
d="M611 712l-13 -63h-346l-52 -258h297l-12 -63h-297l-54 -265h353l-12 -63h-426l13 63l117 586l13 63h419zM540 781h-63l-64 106l-109 -106h-69l150 153h65z" />
    <glyph glyph-name="Edieresis" unicode="&#xcb;" horiz-adv-x="572" 
d="M611 712l-13 -63h-346l-52 -258h297l-12 -63h-297l-54 -265h353l-12 -63h-426l13 63l117 586l13 63h419zM542 872l-17 -88h-71l18 88h70zM341 872l-18 -88h-69l17 88h70z" />
    <glyph glyph-name="Igrave" unicode="&#xcc;" horiz-adv-x="268" 
d="M264 712l-13 -63l-117 -586l-13 -63h-72l13 63l117 586l13 63h72zM263 776h-60l-72 151h80z" />
    <glyph glyph-name="Iacute" unicode="&#xcd;" horiz-adv-x="268" 
d="M264 712l-13 -63l-117 -586l-13 -63h-72l13 63l117 586l13 63h72zM366 927l-130 -151h-66l112 151h84z" />
    <glyph glyph-name="Icircumflex" unicode="&#xce;" horiz-adv-x="268" 
d="M264 712l-13 -63l-117 -586l-13 -63h-72l13 63l117 586l13 63h72zM380 781h-63l-64 106l-109 -106h-69l150 153h65z" />
    <glyph glyph-name="Idieresis" unicode="&#xcf;" horiz-adv-x="268" 
d="M264 712l-13 -63l-117 -586l-13 -63h-72l13 63l117 586l13 63h72zM389 872l-17 -88h-71l18 88h70zM188 872l-18 -88h-69l17 88h70z" />
    <glyph glyph-name="Eth" unicode="&#xd0;" horiz-adv-x="653" 
d="M626 518c0 -18 -1.5 -37.666 -4.5 -58.999s-8.5 -53 -16.5 -95c-8 -43.333 -16 -80.333 -24 -111s-16.5 -57.334 -25.5 -80.001s-19.167 -42.667 -30.5 -60s-25.333 -33.333 -42 -48c-23.333 -21.333 -51 -37.5 -83 -48.5s-66 -16.5 -102 -16.5h-236l13 63l53 268h-73
l11 56h73l53 263l13 62h222c26 0 50.667 -3.33301 74 -10s44.5 -17.5 63.5 -32.5s34 -35 45 -60s16.5 -55.5 16.5 -91.5zM554 515.001c0 42 -11.667 74.833 -35 98.5s-58.666 35.5 -105.999 35.5h-148l-53 -262h154l-11 -56h-154l-54 -268h147c27.333 0 53.166 4 77.499 12
s46.5 21 66.5 39c21.333 19.333 38.833 47.5 52.5 84.5s27.5 92.167 41.5 165.5c8.66699 44.667 14.5 77 17.5 97s4.5 38 4.5 54z" />
    <glyph glyph-name="Ntilde" unicode="&#xd1;" horiz-adv-x="696" 
d="M692 712l-13 -63l-130 -649h-67l-245 577l-103 -514l-13 -63h-72l13 63l130 649h67l245 -577l102 514l13 63h73zM597 840c-17.333 -16.667 -33.668 -28.668 -49.001 -36.001s-31.333 -11 -48 -11c-24 0 -47 8 -69 24c-11.333 8 -20 13.167 -26 15.5s-14.333 3.5 -25 3.5
c-10 0 -19.833 -2.66699 -29.5 -8s-20.5 -14 -32.5 -26l-30 39c17.333 16.667 33.5 28.667 48.5 36s30.833 11 47.5 11c13.333 0 25.666 -2.16699 36.999 -6.5s22.333 -10.166 33 -17.499s19.334 -12.333 26.001 -15s15 -4 25 -4c16.667 0 37.334 11.333 62.001 34z" />
    <glyph glyph-name="Ograve" unicode="&#xd2;" horiz-adv-x="617" 
d="M590 526c0 -14.667 -1.83105 -33.6689 -5.49805 -57.002s-10.167 -61 -19.5 -113c-8 -43.333 -15.333 -79.166 -22 -107.499s-13.667 -52.833 -21 -73.5s-16 -39.167 -26 -55.5s-22.333 -31.833 -37 -46.5c-24.667 -24.667 -54 -44 -88 -58s-69 -21 -105 -21
c-57.333 0 -104.5 17.833 -141.5 53.5s-55.5 81.834 -55.5 138.501c0 16 1.66699 36 5 60s9.66602 60.667 18.999 110c8 43.333 15.333 79.166 22 107.499s13.667 52.833 21 73.5s16 39.167 26 55.5s22.333 31.833 37 46.5c24.667 24.667 54 44 88 58s69 21 105 21
c57.333 0 104.666 -17.667 141.999 -53s56 -81.666 56 -138.999zM516.002 521.998c0 41.333 -12.501 73.832 -37.501 97.499s-54.5 35.5 -88.5 35.5c-54.667 0 -101.667 -20.333 -141 -61c-9.33301 -9.33301 -17.666 -20 -24.999 -32s-14 -26.833 -20 -44.5
s-12 -39.5 -18 -65.5s-12.667 -58 -20 -96c-9.33301 -48 -15.666 -83.667 -18.999 -107s-5 -43 -5 -59c0 -41.333 12.5 -73.833 37.5 -97.5s54.5 -35.5 88.5 -35.5c54.667 0 101.667 20.333 141 61c10 10 18.5 20.833 25.5 32.5s13.5 26.334 19.5 44.001s12 39.5 18 65.5
s12.667 58 20 96c9.33301 48.667 15.666 84.5 18.999 107.5s5 42.5 5 58.5zM440.001 775.997h-60l-72 151h80z" />
    <glyph glyph-name="Oacute" unicode="&#xd3;" horiz-adv-x="617" 
d="M590 526c0 -14.667 -1.83105 -33.6689 -5.49805 -57.002s-10.167 -61 -19.5 -113c-8 -43.333 -15.333 -79.166 -22 -107.499s-13.667 -52.833 -21 -73.5s-16 -39.167 -26 -55.5s-22.333 -31.833 -37 -46.5c-24.667 -24.667 -54 -44 -88 -58s-69 -21 -105 -21
c-57.333 0 -104.5 17.833 -141.5 53.5s-55.5 81.834 -55.5 138.501c0 16 1.66699 36 5 60s9.66602 60.667 18.999 110c8 43.333 15.333 79.166 22 107.499s13.667 52.833 21 73.5s16 39.167 26 55.5s22.333 31.833 37 46.5c24.667 24.667 54 44 88 58s69 21 105 21
c57.333 0 104.666 -17.667 141.999 -53s56 -81.666 56 -138.999zM516.002 521.998c0 41.333 -12.501 73.832 -37.501 97.499s-54.5 35.5 -88.5 35.5c-54.667 0 -101.667 -20.333 -141 -61c-9.33301 -9.33301 -17.666 -20 -24.999 -32s-14 -26.833 -20 -44.5
s-12 -39.5 -18 -65.5s-12.667 -58 -20 -96c-9.33301 -48 -15.666 -83.667 -18.999 -107s-5 -43 -5 -59c0 -41.333 12.5 -73.833 37.5 -97.5s54.5 -35.5 88.5 -35.5c54.667 0 101.667 20.333 141 61c10 10 18.5 20.833 25.5 32.5s13.5 26.334 19.5 44.001s12 39.5 18 65.5
s12.667 58 20 96c9.33301 48.667 15.666 84.5 18.999 107.5s5 42.5 5 58.5zM545.001 926.997l-130 -151h-66l112 151h84z" />
    <glyph glyph-name="Ocircumflex" unicode="&#xd4;" horiz-adv-x="617" 
d="M590 526c0 -14.667 -1.83105 -33.6689 -5.49805 -57.002s-10.167 -61 -19.5 -113c-8 -43.333 -15.333 -79.166 -22 -107.499s-13.667 -52.833 -21 -73.5s-16 -39.167 -26 -55.5s-22.333 -31.833 -37 -46.5c-24.667 -24.667 -54 -44 -88 -58s-69 -21 -105 -21
c-57.333 0 -104.5 17.833 -141.5 53.5s-55.5 81.834 -55.5 138.501c0 16 1.66699 36 5 60s9.66602 60.667 18.999 110c8 43.333 15.333 79.166 22 107.499s13.667 52.833 21 73.5s16 39.167 26 55.5s22.333 31.833 37 46.5c24.667 24.667 54 44 88 58s69 21 105 21
c57.333 0 104.666 -17.667 141.999 -53s56 -81.666 56 -138.999zM516.002 521.998c0 41.333 -12.501 73.832 -37.501 97.499s-54.5 35.5 -88.5 35.5c-54.667 0 -101.667 -20.333 -141 -61c-9.33301 -9.33301 -17.666 -20 -24.999 -32s-14 -26.833 -20 -44.5
s-12 -39.5 -18 -65.5s-12.667 -58 -20 -96c-9.33301 -48 -15.666 -83.667 -18.999 -107s-5 -43 -5 -59c0 -41.333 12.5 -73.833 37.5 -97.5s54.5 -35.5 88.5 -35.5c54.667 0 101.667 20.333 141 61c10 10 18.5 20.833 25.5 32.5s13.5 26.334 19.5 44.001s12 39.5 18 65.5
s12.667 58 20 96c9.33301 48.667 15.666 84.5 18.999 107.5s5 42.5 5 58.5zM553.001 780.997h-63l-64 106l-109 -106h-69l150 153h65z" />
    <glyph glyph-name="Otilde" unicode="&#xd5;" horiz-adv-x="617" 
d="M590 526c0 -14.667 -1.83105 -33.6689 -5.49805 -57.002s-10.167 -61 -19.5 -113c-8 -43.333 -15.333 -79.166 -22 -107.499s-13.667 -52.833 -21 -73.5s-16 -39.167 -26 -55.5s-22.333 -31.833 -37 -46.5c-24.667 -24.667 -54 -44 -88 -58s-69 -21 -105 -21
c-57.333 0 -104.5 17.833 -141.5 53.5s-55.5 81.834 -55.5 138.501c0 16 1.66699 36 5 60s9.66602 60.667 18.999 110c8 43.333 15.333 79.166 22 107.499s13.667 52.833 21 73.5s16 39.167 26 55.5s22.333 31.833 37 46.5c24.667 24.667 54 44 88 58s69 21 105 21
c57.333 0 104.666 -17.667 141.999 -53s56 -81.666 56 -138.999zM516.002 521.998c0 41.333 -12.501 73.832 -37.501 97.499s-54.5 35.5 -88.5 35.5c-54.667 0 -101.667 -20.333 -141 -61c-9.33301 -9.33301 -17.666 -20 -24.999 -32s-14 -26.833 -20 -44.5
s-12 -39.5 -18 -65.5s-12.667 -58 -20 -96c-9.33301 -48 -15.666 -83.667 -18.999 -107s-5 -43 -5 -59c0 -41.333 12.5 -73.833 37.5 -97.5s54.5 -35.5 88.5 -35.5c54.667 0 101.667 20.333 141 61c10 10 18.5 20.833 25.5 32.5s13.5 26.334 19.5 44.001s12 39.5 18 65.5
s12.667 58 20 96c9.33301 48.667 15.666 84.5 18.999 107.5s5 42.5 5 58.5zM562.001 839.997c-17.333 -16.667 -33.667 -28.667 -49 -36s-31.333 -11 -48 -11c-24 0 -47 8 -69 24c-10.667 8 -19.334 13.167 -26.001 15.5s-15 3.5 -25 3.5s-19.833 -2.66699 -29.5 -8
s-20.5 -14 -32.5 -26l-30 39c17.333 16.667 33.5 28.667 48.5 36s30.833 11 47.5 11c23.333 0 46.666 -8 69.999 -24c10.667 -7.33301 19.334 -12.333 26.001 -15s15 -4 25 -4c16.667 0 37.334 11.333 62.001 34z" />
    <glyph glyph-name="Odieresis" unicode="&#xd6;" horiz-adv-x="617" 
d="M590 526c0 -14.667 -1.83105 -33.6689 -5.49805 -57.002s-10.167 -61 -19.5 -113c-8 -43.333 -15.333 -79.166 -22 -107.499s-13.667 -52.833 -21 -73.5s-16 -39.167 -26 -55.5s-22.333 -31.833 -37 -46.5c-24.667 -24.667 -54 -44 -88 -58s-69 -21 -105 -21
c-57.333 0 -104.5 17.833 -141.5 53.5s-55.5 81.834 -55.5 138.501c0 16 1.66699 36 5 60s9.66602 60.667 18.999 110c8 43.333 15.333 79.166 22 107.499s13.667 52.833 21 73.5s16 39.167 26 55.5s22.333 31.833 37 46.5c24.667 24.667 54 44 88 58s69 21 105 21
c57.333 0 104.666 -17.667 141.999 -53s56 -81.666 56 -138.999zM516.002 521.998c0 41.333 -12.501 73.832 -37.501 97.499s-54.5 35.5 -88.5 35.5c-54.667 0 -101.667 -20.333 -141 -61c-9.33301 -9.33301 -17.666 -20 -24.999 -32s-14 -26.833 -20 -44.5
s-12 -39.5 -18 -65.5s-12.667 -58 -20 -96c-9.33301 -48 -15.666 -83.667 -18.999 -107s-5 -43 -5 -59c0 -41.333 12.5 -73.833 37.5 -97.5s54.5 -35.5 88.5 -35.5c54.667 0 101.667 20.333 141 61c10 10 18.5 20.833 25.5 32.5s13.5 26.334 19.5 44.001s12 39.5 18 65.5
s12.667 58 20 96c9.33301 48.667 15.666 84.5 18.999 107.5s5 42.5 5 58.5zM560.001 871.997l-17 -88h-71l18 88h70zM359.001 871.997l-18 -88h-69l17 88h70z" />
    <glyph glyph-name="multiply" unicode="&#xd7;" horiz-adv-x="496" 
d="M468 416l-172 -149l115 -152l-49 -43l-115 152l-172 -149l-37 48l172 149l-115 153l50 43l115 -153l172 149z" />
    <glyph glyph-name="Oslash" unicode="&#xd8;" horiz-adv-x="618" 
d="M619 756l-70 -106.999c27.333 -33.333 41 -74.333 41 -123c0 -16 -1.66699 -36 -5 -60s-9.66602 -60.667 -18.999 -110c-8 -43.333 -15.333 -79.166 -22 -107.499s-13.667 -52.833 -21 -73.5s-16 -39.167 -26 -55.5s-22.333 -31.833 -37 -46.5
c-24.667 -24.667 -54 -44 -88 -58s-69 -21 -105 -21c-46 0 -85 11 -117 33l-46 -71h-63l69 107c-12.667 16 -22.834 34.667 -30.501 56s-11.5 43.666 -11.5 66.999c0 14.667 1.83301 33.667 5.5 57s10.167 61 19.5 113c8 43.333 15.333 79.166 22 107.499
s13.667 52.833 21 73.5s16 39.167 26 55.5s22.333 31.833 37 46.5c24.667 24.667 54 44 88 58s69 21 105 21c46 0 85 -11 117 -33l46 71h64zM142 190.001c0 -22.667 3.99805 -42.667 11.998 -60l318 495c-22.667 20 -50 30 -82 30c-54.667 0 -101.667 -20.333 -141 -61
c-9.33301 -9.33301 -17.666 -20 -24.999 -32s-14 -26.833 -20 -44.5s-12 -39.5 -18 -65.5s-12.667 -58 -20 -96c-9.33301 -48 -15.666 -83.667 -18.999 -107s-5 -43 -5 -59zM515.998 522.001c0 22.667 -3.99902 42.332 -11.999 58.999l-319 -495
c22 -19.333 49.667 -29 83 -29c54.667 0 101.667 20.333 141 61c10 10 18.5 20.833 25.5 32.5s13.5 26.334 19.5 44.001s12 39.5 18 65.5s12.667 58 20 96c9.33301 48.667 15.666 84.5 18.999 107.5s5 42.5 5 58.5z" />
    <glyph glyph-name="Ugrave" unicode="&#xd9;" horiz-adv-x="649" 
d="M654 712l-12.001 -62.999l-83 -415c-15.333 -76.667 -47.833 -135.834 -97.5 -177.501s-110.167 -62.5 -181.5 -62.5c-24.667 0 -48.667 3.83301 -72 11.5s-44.5 19.5 -63.5 35.5s-34.167 36.167 -45.5 60.5s-17 52.833 -17 85.5c0 9.33301 0.666992 19.333 2 30
s3 21 5 31l92 464h73l-94 -471c0 -3.33301 -0.666992 -10 -2 -20c-2 -14 -3 -24.333 -3 -31c0 -36 10.833 -67 32.5 -93s54.834 -39 99.501 -39c48 0 90.667 16 128 48s62 78.667 74 140l80 403l12 63h73zM462.999 776.001h-60l-72 151h80z" />
    <glyph glyph-name="Uacute" unicode="&#xda;" horiz-adv-x="649" 
d="M654 712l-12.001 -62.999l-83 -415c-15.333 -76.667 -47.833 -135.834 -97.5 -177.501s-110.167 -62.5 -181.5 -62.5c-24.667 0 -48.667 3.83301 -72 11.5s-44.5 19.5 -63.5 35.5s-34.167 36.167 -45.5 60.5s-17 52.833 -17 85.5c0 9.33301 0.666992 19.333 2 30
s3 21 5 31l92 464h73l-94 -471c0 -3.33301 -0.666992 -10 -2 -20c-2 -14 -3 -24.333 -3 -31c0 -36 10.833 -67 32.5 -93s54.834 -39 99.501 -39c48 0 90.667 16 128 48s62 78.667 74 140l80 403l12 63h73zM567.999 927.001l-130 -151h-66l112 151h84z" />
    <glyph glyph-name="Ucircumflex" unicode="&#xdb;" horiz-adv-x="649" 
d="M654 712l-12.001 -62.999l-83 -415c-15.333 -76.667 -47.833 -135.834 -97.5 -177.501s-110.167 -62.5 -181.5 -62.5c-24.667 0 -48.667 3.83301 -72 11.5s-44.5 19.5 -63.5 35.5s-34.167 36.167 -45.5 60.5s-17 52.833 -17 85.5c0 9.33301 0.666992 19.333 2 30
s3 21 5 31l92 464h73l-94 -471c0 -3.33301 -0.666992 -10 -2 -20c-2 -14 -3 -24.333 -3 -31c0 -36 10.833 -67 32.5 -93s54.834 -39 99.501 -39c48 0 90.667 16 128 48s62 78.667 74 140l80 403l12 63h73zM576.999 781.001h-63l-64 106l-109 -106h-69l150 153h65z" />
    <glyph glyph-name="Udieresis" unicode="&#xdc;" horiz-adv-x="649" 
d="M654 712l-12.001 -62.999l-83 -415c-15.333 -76.667 -47.833 -135.834 -97.5 -177.501s-110.167 -62.5 -181.5 -62.5c-24.667 0 -48.667 3.83301 -72 11.5s-44.5 19.5 -63.5 35.5s-34.167 36.167 -45.5 60.5s-17 52.833 -17 85.5c0 9.33301 0.666992 19.333 2 30
s3 21 5 31l92 464h73l-94 -471c0 -3.33301 -0.666992 -10 -2 -20c-2 -14 -3 -24.333 -3 -31c0 -36 10.833 -67 32.5 -93s54.834 -39 99.501 -39c48 0 90.667 16 128 48s62 78.667 74 140l80 403l12 63h73zM579.999 872.001l-17 -88h-71l18 88h70zM378.999 872.001l-18 -88
h-69l17 88h70z" />
    <glyph glyph-name="Yacute" unicode="&#xdd;" horiz-adv-x="490" 
d="M575 712l-282 -421l-59 -291h-73l60 296l-121 416h76l94 -344l224 344h81zM473 927l-130 -151h-66l112 151h84z" />
    <glyph glyph-name="Thorn" unicode="&#xde;" horiz-adv-x="611" 
d="M586 396c0 -34 -5.66895 -65.6709 -17.002 -95.0039s-28 -55.166 -50 -77.499s-48.667 -39.666 -80 -51.999s-66.333 -18.5 -105 -18.5h-181l-32 -153h-72l43 216l100 496h72l-29 -144h169c31.333 0 58.833 -4.66699 82.5 -14s42.834 -22.166 57.501 -38.499
s25.334 -34.666 32.001 -54.999s10 -41.833 10 -64.5zM512.998 391.996c0 32 -9.5 58.667 -28.5 80s-48.833 32 -89.5 32h-172l-58 -287h172c52 0 94.333 16.333 127 49s49 74.667 49 126z" />
    <glyph glyph-name="germandbls" unicode="&#xdf;" horiz-adv-x="531" 
d="M525 574c0 -29.333 -7.49707 -57 -22.4971 -83s-36.5 -46.667 -64.5 -62c29.333 -16 44 -41.667 44 -77c0 -10 -1.66699 -22.667 -5 -38l-33 -172c-8.66699 -45.333 -27 -80.333 -55 -105s-63.333 -37 -106 -37h-57l11 60h41c21.333 0 41.333 7 60 21s31 36.667 37 68
l34 170c2 10 3 18.333 3 25c0 19.333 -5.83301 33.833 -17.5 43.5s-26.834 14.5 -45.501 14.5h-44l12 58h35c31.333 0 56.333 11.333 75 34s28 48.667 28 78c0 26 -6.66699 45.667 -20 59c-18 18 -43.333 27 -76 27c-42 0 -74.833 -12 -98.5 -36
s-39.834 -57.333 -48.501 -100l-92 -459l-13 -63h-70l13 63l92 462c26 129.333 100.667 194 224 194c47.333 0 85.666 -12.667 114.999 -38s44 -61 44 -107z" />
    <glyph glyph-name="agrave" unicode="&#xe0;" horiz-adv-x="501" 
d="M443 371c0 -3.33301 -0.670898 -9.33203 -2.00391 -17.999c-2 -10 -3 -17 -3 -21l-20 -102l-46 -230h-69l11 49c-18.667 -18.667 -39.167 -32.5 -61.5 -41.5s-48.833 -13.5 -79.5 -13.5c-42.667 0 -78 9.66699 -106 29s-42 49.666 -42 90.999c0 22 3.5 43 10.5 63
s18.167 37.333 33.5 52c19.333 18.667 41 32 65 40s50.667 12 80 12h144l11 52c2.66699 12 4 23 4 33c0 23.333 -8.66699 41.333 -26 54s-41.666 19 -72.999 19c-29.333 0 -54.166 -4.66699 -74.499 -14s-39.833 -24.333 -58.5 -45l-41 48
c22.667 24.667 47.834 42.667 75.501 54s61.834 17 102.501 17c20 0 39.333 -1.83301 58 -5.5s36.167 -10.167 52.5 -19.5s29.5 -22.5 39.5 -39.5s15 -38.167 15 -63.5zM336.996 172.001l11 56.999h-127c-38 0 -68.667 -9.66699 -92 -29s-35 -46.666 -35 -81.999
c0 -21.333 7.83301 -37.333 23.5 -48s40.5 -16 74.5 -16c44.667 0 79.667 12.667 105 38c20.667 19.333 34 46 40 80zM347.996 589h-60l-72 151h80z" />
    <glyph glyph-name="aacute" unicode="&#xe1;" horiz-adv-x="501" 
d="M443 371c0 -3.33301 -0.670898 -9.33203 -2.00391 -17.999c-2 -10 -3 -17 -3 -21l-20 -102l-46 -230h-69l11 49c-18.667 -18.667 -39.167 -32.5 -61.5 -41.5s-48.833 -13.5 -79.5 -13.5c-42.667 0 -78 9.66699 -106 29s-42 49.666 -42 90.999c0 22 3.5 43 10.5 63
s18.167 37.333 33.5 52c19.333 18.667 41 32 65 40s50.667 12 80 12h144l11 52c2.66699 12 4 23 4 33c0 23.333 -8.66699 41.333 -26 54s-41.666 19 -72.999 19c-29.333 0 -54.166 -4.66699 -74.499 -14s-39.833 -24.333 -58.5 -45l-41 48
c22.667 24.667 47.834 42.667 75.501 54s61.834 17 102.501 17c20 0 39.333 -1.83301 58 -5.5s36.167 -10.167 52.5 -19.5s29.5 -22.5 39.5 -39.5s15 -38.167 15 -63.5zM336.996 172.001l11 56.999h-127c-38 0 -68.667 -9.66699 -92 -29s-35 -46.666 -35 -81.999
c0 -21.333 7.83301 -37.333 23.5 -48s40.5 -16 74.5 -16c44.667 0 79.667 12.667 105 38c20.667 19.333 34 46 40 80zM452.996 740l-130 -151h-66l112 151h84z" />
    <glyph glyph-name="acircumflex" unicode="&#xe2;" horiz-adv-x="501" 
d="M443 371c0 -3.33301 -0.670898 -9.33203 -2.00391 -17.999c-2 -10 -3 -17 -3 -21l-20 -102l-46 -230h-69l11 49c-18.667 -18.667 -39.167 -32.5 -61.5 -41.5s-48.833 -13.5 -79.5 -13.5c-42.667 0 -78 9.66699 -106 29s-42 49.666 -42 90.999c0 22 3.5 43 10.5 63
s18.167 37.333 33.5 52c19.333 18.667 41 32 65 40s50.667 12 80 12h144l11 52c2.66699 12 4 23 4 33c0 23.333 -8.66699 41.333 -26 54s-41.666 19 -72.999 19c-29.333 0 -54.166 -4.66699 -74.499 -14s-39.833 -24.333 -58.5 -45l-41 48
c22.667 24.667 47.834 42.667 75.501 54s61.834 17 102.501 17c20 0 39.333 -1.83301 58 -5.5s36.167 -10.167 52.5 -19.5s29.5 -22.5 39.5 -39.5s15 -38.167 15 -63.5zM336.996 172.001l11 56.999h-127c-38 0 -68.667 -9.66699 -92 -29s-35 -46.666 -35 -81.999
c0 -21.333 7.83301 -37.333 23.5 -48s40.5 -16 74.5 -16c44.667 0 79.667 12.667 105 38c20.667 19.333 34 46 40 80zM458.996 594h-63l-64 106l-109 -106h-69l150 153h65z" />
    <glyph glyph-name="atilde" unicode="&#xe3;" horiz-adv-x="501" 
d="M443 371c0 -3.33301 -0.670898 -9.33203 -2.00391 -17.999c-2 -10 -3 -17 -3 -21l-20 -102l-46 -230h-69l11 49c-18.667 -18.667 -39.167 -32.5 -61.5 -41.5s-48.833 -13.5 -79.5 -13.5c-42.667 0 -78 9.66699 -106 29s-42 49.666 -42 90.999c0 22 3.5 43 10.5 63
s18.167 37.333 33.5 52c19.333 18.667 41 32 65 40s50.667 12 80 12h144l11 52c2.66699 12 4 23 4 33c0 23.333 -8.66699 41.333 -26 54s-41.666 19 -72.999 19c-29.333 0 -54.166 -4.66699 -74.499 -14s-39.833 -24.333 -58.5 -45l-41 48
c22.667 24.667 47.834 42.667 75.501 54s61.834 17 102.501 17c20 0 39.333 -1.83301 58 -5.5s36.167 -10.167 52.5 -19.5s29.5 -22.5 39.5 -39.5s15 -38.167 15 -63.5zM336.996 172.001l11 56.999h-127c-38 0 -68.667 -9.66699 -92 -29s-35 -46.666 -35 -81.999
c0 -21.333 7.83301 -37.333 23.5 -48s40.5 -16 74.5 -16c44.667 0 79.667 12.667 105 38c20.667 19.333 34 46 40 80zM469.996 654c-17.333 -16.667 -33.667 -28.667 -49 -36s-31.333 -11 -48 -11c-24 0 -47 8 -69 24c-11.333 8 -20.166 13.167 -26.499 15.5
s-14.5 3.5 -24.5 3.5c-16.667 0 -37.334 -11.333 -62.001 -34l-30 39c18 16.667 34.333 28.667 49 36s30.334 11 47.001 11c24.667 0 48 -8 70 -24c11.333 -8 20.166 -13.167 26.499 -15.5s14.5 -3.5 24.5 -3.5s19.667 2.66699 29 8s20.333 14 33 26z" />
    <glyph glyph-name="adieresis" unicode="&#xe4;" horiz-adv-x="501" 
d="M443 371c0 -3.33301 -0.670898 -9.33203 -2.00391 -17.999c-2 -10 -3 -17 -3 -21l-20 -102l-46 -230h-69l11 49c-18.667 -18.667 -39.167 -32.5 -61.5 -41.5s-48.833 -13.5 -79.5 -13.5c-42.667 0 -78 9.66699 -106 29s-42 49.666 -42 90.999c0 22 3.5 43 10.5 63
s18.167 37.333 33.5 52c19.333 18.667 41 32 65 40s50.667 12 80 12h144l11 52c2.66699 12 4 23 4 33c0 23.333 -8.66699 41.333 -26 54s-41.666 19 -72.999 19c-29.333 0 -54.166 -4.66699 -74.499 -14s-39.833 -24.333 -58.5 -45l-41 48
c22.667 24.667 47.834 42.667 75.501 54s61.834 17 102.501 17c20 0 39.333 -1.83301 58 -5.5s36.167 -10.167 52.5 -19.5s29.5 -22.5 39.5 -39.5s15 -38.167 15 -63.5zM336.996 172.001l11 56.999h-127c-38 0 -68.667 -9.66699 -92 -29s-35 -46.666 -35 -81.999
c0 -21.333 7.83301 -37.333 23.5 -48s40.5 -16 74.5 -16c44.667 0 79.667 12.667 105 38c20.667 19.333 34 46 40 80zM463.996 685l-17 -88h-71l18 88h70zM262.996 685l-18 -88h-69l17 88h70z" />
    <glyph glyph-name="aring" unicode="&#xe5;" horiz-adv-x="501" 
d="M443 371c0 -3.33301 -0.670898 -9.33203 -2.00391 -17.999c-2 -10 -3 -17 -3 -21l-20 -102l-46 -230h-69l11 49c-18.667 -18.667 -39.167 -32.5 -61.5 -41.5s-48.833 -13.5 -79.5 -13.5c-42.667 0 -78 9.66699 -106 29s-42 49.666 -42 90.999c0 22 3.5 43 10.5 63
s18.167 37.333 33.5 52c19.333 18.667 41 32 65 40s50.667 12 80 12h144l11 52c2.66699 12 4 23 4 33c0 23.333 -8.66699 41.333 -26 54s-41.666 19 -72.999 19c-29.333 0 -54.166 -4.66699 -74.499 -14s-39.833 -24.333 -58.5 -45l-41 48
c22.667 24.667 47.834 42.667 75.501 54s61.834 17 102.501 17c20 0 39.333 -1.83301 58 -5.5s36.167 -10.167 52.5 -19.5s29.5 -22.5 39.5 -39.5s15 -38.167 15 -63.5zM336.996 172.001l11 56.999h-127c-38 0 -68.667 -9.66699 -92 -29s-35 -46.666 -35 -81.999
c0 -21.333 7.83301 -37.333 23.5 -48s40.5 -16 74.5 -16c44.667 0 79.667 12.667 105 38c20.667 19.333 34 46 40 80zM440.996 687c0 -32.667 -11.5 -60.667 -34.5 -84s-50.833 -35 -83.5 -35c-32 0 -59.5 11.667 -82.5 35s-34.5 51.333 -34.5 84s11.5 60.334 34.5 83.001
s50.5 34 82.5 34c32.667 0 60.5 -11.333 83.5 -34s34.5 -50.334 34.5 -83.001zM393.996 687c0 18.667 -7 34.834 -21 48.501s-30.667 20.5 -50 20.5c-18.667 0 -35 -6.83301 -49 -20.5s-21 -29.834 -21 -48.501s7 -35.167 21 -49.5s30.333 -21.5 49 -21.5
c19.333 0 36 7 50 21s21 30.667 21 50z" />
    <glyph glyph-name="ae" unicode="&#xe6;" horiz-adv-x="799" 
d="M746 331c0 -13.333 -1.00195 -29.166 -3.00195 -47.499s-5 -36.5 -9 -54.5h-317c-4 -20.667 -6 -41.334 -6 -62.001c0 -34 8.83301 -61.167 26.5 -81.5s44.167 -30.5 79.5 -30.5c28 0 52.5 4.66699 73.5 14s42.5 24 64.5 44l42 -47c-26 -24.667 -54 -42.834 -84 -54.501
s-63.667 -17.5 -101 -17.5c-34 0 -64.333 7.5 -91 22.5s-46.334 36.167 -59.001 63.5c-19.333 -29.333 -43.333 -51 -72 -65s-64.334 -21 -107.001 -21c-48 0 -86.333 9.33301 -115 28s-43 49.334 -43 92.001c0 21.333 3.66699 42.166 11 62.499s18.333 37.833 33 52.5
c18.667 18.667 40 32 64 40s51 12 81 12h144l11 51c2.66699 12 4 23.333 4 34c0 23.333 -8.66699 41.333 -26 54s-41.666 19 -72.999 19c-29.333 0 -54.166 -4.66699 -74.499 -14s-39.833 -24.333 -58.5 -45l-41 48c22.667 24.667 47.834 42.667 75.501 54
s61.834 17 102.501 17c32.667 0 62.5 -5.66699 89.5 -17s46.833 -31.333 59.5 -60c19.333 24.667 42.333 43.667 69 57s56.667 20 90 20c50.667 0 90 -15.667 118 -47s42 -71.666 42 -120.999zM347.998 229h-127c-38 0 -68.667 -9.66699 -92 -29s-35 -46.666 -35 -81.999
c0 -21.333 7.83301 -37.5 23.5 -48.5s40.5 -16.5 74.5 -16.5c44 0 79 13 105 39c20.667 19.333 34 45.666 40 78.999zM677.998 331c0 36 -8.83301 63.167 -26.5 81.5s-40.167 27.5 -67.5 27.5c-37.333 0 -69.5 -13 -96.5 -39s-47.5 -66 -61.5 -120h248
c0 4.66699 0.666992 12 2 22c1.33301 10.667 2 20 2 28z" />
    <glyph glyph-name="ccedilla" unicode="&#xe7;" horiz-adv-x="466" 
d="M450 426l-51.999 -43.9971c-12.667 19.333 -26.5 33.333 -41.5 42s-33.5 13 -55.5 13c-41.333 0 -77.666 -16 -108.999 -48c-16.667 -17.333 -30.167 -38.5 -40.5 -63.5s-18.166 -51.167 -23.499 -78.5c-5.33301 -28 -8 -52.667 -8 -74
c0 -38.667 10.333 -67.834 31 -87.501s46 -29.5 76 -29.5c23.333 0 44.166 4.5 62.499 13.5s37.166 23.5 56.499 43.5l41 -50c-46 -46 -100.667 -69 -164 -69c-56 0 -98.833 16.5 -128.5 49.5s-44.5 75.5 -44.5 127.5c0 11.333 0.5 23.666 1.5 36.999s2.83301 26.333 5.5 39
c14.667 81.333 44.167 143.666 88.5 186.999s98.5 65 162.5 65c32.667 0 60.167 -6.16699 82.5 -18.5s42.166 -30.5 59.499 -54.5zM242.001 -65.9971l-83 -146h-77l96 146h64z" />
    <glyph glyph-name="egrave" unicode="&#xe8;" horiz-adv-x="506" 
d="M385 330c0 36 -9 63.168 -27 81.501s-40.667 27.5 -68 27.5c-36.667 0 -68.5 -13 -95.5 -39s-47.5 -66 -61.5 -120h248c0 4.66699 0.666992 12 2 22c1.33301 11.333 2 20.666 2 27.999zM453 330.001c0 -12.667 -0.998047 -27.999 -2.99805 -45.999s-5 -36.333 -9 -55
h-317c-4 -20.667 -6 -41.334 -6 -62.001c0 -34 8.83301 -61.167 26.5 -81.5s44.167 -30.5 79.5 -30.5c28 0 52.5 4.66699 73.5 14s42.5 24 64.5 44l42 -47c-50.667 -48 -112.667 -72 -186 -72c-50.667 0 -91.334 14.5 -122.001 43.5s-46 71.167 -46 126.5
c0 38.667 4.66699 77.667 14 117s23.833 75.5 43.5 108.5s45.167 59.5 76.5 79.5s67.666 30 108.999 30c50.667 0 90 -15.833 118 -47.5s42 -72.167 42 -121.5zM364.002 589.002h-60l-72 151h80z" />
    <glyph glyph-name="eacute" unicode="&#xe9;" horiz-adv-x="506" 
d="M385 330c0 36 -9 63.168 -27 81.501s-40.667 27.5 -68 27.5c-36.667 0 -68.5 -13 -95.5 -39s-47.5 -66 -61.5 -120h248c0 4.66699 0.666992 12 2 22c1.33301 11.333 2 20.666 2 27.999zM453 330.001c0 -12.667 -0.998047 -27.999 -2.99805 -45.999s-5 -36.333 -9 -55
h-317c-4 -20.667 -6 -41.334 -6 -62.001c0 -34 8.83301 -61.167 26.5 -81.5s44.167 -30.5 79.5 -30.5c28 0 52.5 4.66699 73.5 14s42.5 24 64.5 44l42 -47c-50.667 -48 -112.667 -72 -186 -72c-50.667 0 -91.334 14.5 -122.001 43.5s-46 71.167 -46 126.5
c0 38.667 4.66699 77.667 14 117s23.833 75.5 43.5 108.5s45.167 59.5 76.5 79.5s67.666 30 108.999 30c50.667 0 90 -15.833 118 -47.5s42 -72.167 42 -121.5zM469.002 740.002l-130 -151h-66l112 151h84z" />
    <glyph glyph-name="ecircumflex" unicode="&#xea;" horiz-adv-x="506" 
d="M385 330c0 36 -9 63.168 -27 81.501s-40.667 27.5 -68 27.5c-36.667 0 -68.5 -13 -95.5 -39s-47.5 -66 -61.5 -120h248c0 4.66699 0.666992 12 2 22c1.33301 11.333 2 20.666 2 27.999zM453 330.001c0 -12.667 -0.998047 -27.999 -2.99805 -45.999s-5 -36.333 -9 -55
h-317c-4 -20.667 -6 -41.334 -6 -62.001c0 -34 8.83301 -61.167 26.5 -81.5s44.167 -30.5 79.5 -30.5c28 0 52.5 4.66699 73.5 14s42.5 24 64.5 44l42 -47c-50.667 -48 -112.667 -72 -186 -72c-50.667 0 -91.334 14.5 -122.001 43.5s-46 71.167 -46 126.5
c0 38.667 4.66699 77.667 14 117s23.833 75.5 43.5 108.5s45.167 59.5 76.5 79.5s67.666 30 108.999 30c50.667 0 90 -15.833 118 -47.5s42 -72.167 42 -121.5zM474.002 594.002h-63l-64 106l-109 -106h-69l150 153h65z" />
    <glyph glyph-name="edieresis" unicode="&#xeb;" horiz-adv-x="506" 
d="M385 330c0 36 -9 63.168 -27 81.501s-40.667 27.5 -68 27.5c-36.667 0 -68.5 -13 -95.5 -39s-47.5 -66 -61.5 -120h248c0 4.66699 0.666992 12 2 22c1.33301 11.333 2 20.666 2 27.999zM453 330.001c0 -12.667 -0.998047 -27.999 -2.99805 -45.999s-5 -36.333 -9 -55
h-317c-4 -20.667 -6 -41.334 -6 -62.001c0 -34 8.83301 -61.167 26.5 -81.5s44.167 -30.5 79.5 -30.5c28 0 52.5 4.66699 73.5 14s42.5 24 64.5 44l42 -47c-50.667 -48 -112.667 -72 -186 -72c-50.667 0 -91.334 14.5 -122.001 43.5s-46 71.167 -46 126.5
c0 38.667 4.66699 77.667 14 117s23.833 75.5 43.5 108.5s45.167 59.5 76.5 79.5s67.666 30 108.999 30c50.667 0 90 -15.833 118 -47.5s42 -72.167 42 -121.5zM478.002 685.002l-17 -88h-71l18 88h70zM277.002 685.002l-18 -88h-69l17 88h70z" />
    <glyph glyph-name="igrave" unicode="&#xec;" horiz-adv-x="241" 
d="M205 493l-85 -430l-13 -63h-70l13 63l85 430h70zM223 589h-60l-72 151h80z" />
    <glyph glyph-name="iacute" unicode="&#xed;" horiz-adv-x="241" 
d="M205 493l-85 -430l-13 -63h-70l13 63l85 430h70zM328 740l-130 -151h-66l112 151h84z" />
    <glyph glyph-name="icircumflex" unicode="&#xee;" horiz-adv-x="241" 
d="M205 493l-85 -430l-13 -63h-70l13 63l85 430h70zM333 594h-63l-64 106l-109 -106h-69l150 153h65z" />
    <glyph glyph-name="idieresis" unicode="&#xef;" horiz-adv-x="241" 
d="M205 493l-85 -430l-13 -63h-70l13 63l85 430h70zM335 685l-17 -88h-71l18 88h70zM134 685l-18 -88h-69l17 88h70z" />
    <glyph glyph-name="eth" unicode="&#xf0;" horiz-adv-x="504" 
d="M451 331c0 -13.333 -0.833984 -27.168 -2.50098 -41.501s-4.16699 -29.166 -7.5 -44.499c-9.33301 -48 -21.5 -88.333 -36.5 -121s-33.833 -58.667 -56.5 -78c-39.333 -34.667 -85.666 -52 -138.999 -52c-16.667 0 -34 2.33301 -52 7s-35 13 -51 25
s-29.167 28.833 -39.5 50.5s-15.5 48.5 -15.5 80.5c0 12.667 1 27.167 3 43.5s4.33301 31.166 7 44.499c10 51.333 22.5 92.333 37.5 123s33.167 55.334 54.5 74.001c38 34 79 51 123 51c18 0 32.833 -1 44.5 -3s22.167 -5.33301 31.5 -10l-38 101h-112l10 51h87l-30 82h70
l29 -82h78l-9 -51h-54l40 -111c10.667 -30 18 -55.667 22 -77s6 -42 6 -62zM380.999 331.998c0 35.333 -9 61.167 -27 77.5s-40 24.5 -66 24.5c-16.667 0 -33 -3.33301 -49 -10s-30 -16 -42 -28c-15.333 -14.667 -28.166 -33.834 -38.499 -57.501
s-19.5 -54.834 -27.5 -93.501c-6.66699 -35.333 -10 -64.333 -10 -87c0 -35.333 9 -61.333 27 -78s40 -25 66 -25c16.667 0 33 3.5 49 10.5s30 16.5 42 28.5c15.333 14.667 28.166 33.834 38.499 57.501s19.5 54.834 27.5 93.501c6.66699 35.333 10 64.333 10 87z" />
    <glyph glyph-name="ntilde" unicode="&#xf1;" 
d="M474 360c0 -14.667 -1.66992 -31.0029 -5.00293 -49.0029l-63 -311h-70l61 304c3.33301 18 5 33.333 5 46c0 28.667 -8.16699 50.334 -24.5 65.001s-37.833 22 -64.5 22c-10.667 0 -23 -1.66699 -37 -5s-28.167 -9.66602 -42.5 -18.999s-27.666 -23.166 -39.999 -41.499
s-21.166 -41.5 -26.499 -69.5l-60 -302h-70l61 304l37 189h69l-11 -55c35.333 40.667 84 61 146 61c38.667 0 70.834 -12.333 96.501 -37s38.5 -58.667 38.5 -102zM499.997 653.997c-17.333 -16.667 -33.6689 -28.667 -49.002 -36s-31.333 -11 -48 -11c-24 0 -47 8 -69 24
c-11.333 8 -20.166 13.167 -26.499 15.5s-14.5 3.5 -24.5 3.5c-17.333 0 -38 -11.333 -62 -34l-30 39c17.333 16.667 33.5 28.667 48.5 36s30.833 11 47.5 11c24.667 0 48 -8 70 -24c10.667 -7.33301 19.334 -12.333 26.001 -15s15 -4 25 -4s19.667 2.66699 29 8
s20.333 14 33 26z" />
    <glyph glyph-name="ograve" unicode="&#xf2;" horiz-adv-x="502" 
d="M452 336c0 -14 -0.833008 -29 -2.5 -45s-3.83398 -30.667 -6.50098 -44c-10 -51.333 -22.667 -92.5 -38 -123.5s-33.666 -56.167 -54.999 -75.5c-40 -36 -87 -54 -141 -54c-16 0 -33 2.33301 -51 7s-35.167 13.167 -51.5 25.5s-29.833 29.333 -40.5 51s-16 48.5 -16 80.5
c0 14 1 29 3 45s4 30.667 6 44c10 51.333 22.667 92.5 38 123.5s33.666 56.167 54.999 75.5c20 18 42 31.333 66 40s49 13 75 13c16.667 0 33.834 -2.33301 51.501 -7s34.667 -13 51 -25s29.833 -28.833 40.5 -50.5s16 -48.5 16 -80.5zM383 333
c0 35.333 -9.16797 61.501 -27.501 78.501s-40.833 25.5 -67.5 25.5c-16.667 0 -33.167 -3.33301 -49.5 -10s-30.5 -16 -42.5 -28c-15.333 -15.333 -28.166 -34.666 -38.499 -57.999s-19.5 -54.666 -27.5 -93.999c-7.33301 -38 -11 -67 -11 -87
c0 -35.333 9.16699 -61.5 27.5 -78.5s40.833 -25.5 67.5 -25.5c16.667 0 33.334 3.66699 50.001 11s30.667 16.666 42 27.999c15.333 15.333 28.166 34.666 38.499 57.999s19.5 54.666 27.5 93.999c7.33301 38 11 66.667 11 86zM342.999 589.001h-60l-72 151h80z" />
    <glyph glyph-name="oacute" unicode="&#xf3;" horiz-adv-x="502" 
d="M452 336c0 -14 -0.833008 -29 -2.5 -45s-3.83398 -30.667 -6.50098 -44c-10 -51.333 -22.667 -92.5 -38 -123.5s-33.666 -56.167 -54.999 -75.5c-40 -36 -87 -54 -141 -54c-16 0 -33 2.33301 -51 7s-35.167 13.167 -51.5 25.5s-29.833 29.333 -40.5 51s-16 48.5 -16 80.5
c0 14 1 29 3 45s4 30.667 6 44c10 51.333 22.667 92.5 38 123.5s33.666 56.167 54.999 75.5c20 18 42 31.333 66 40s49 13 75 13c16.667 0 33.834 -2.33301 51.501 -7s34.667 -13 51 -25s29.833 -28.833 40.5 -50.5s16 -48.5 16 -80.5zM383 333
c0 35.333 -9.16797 61.501 -27.501 78.501s-40.833 25.5 -67.5 25.5c-16.667 0 -33.167 -3.33301 -49.5 -10s-30.5 -16 -42.5 -28c-15.333 -15.333 -28.166 -34.666 -38.499 -57.999s-19.5 -54.666 -27.5 -93.999c-7.33301 -38 -11 -67 -11 -87
c0 -35.333 9.16699 -61.5 27.5 -78.5s40.833 -25.5 67.5 -25.5c16.667 0 33.334 3.66699 50.001 11s30.667 16.666 42 27.999c15.333 15.333 28.166 34.666 38.499 57.999s19.5 54.666 27.5 93.999c7.33301 38 11 66.667 11 86zM465.999 740.001l-130 -151h-66l112 151h84z
" />
    <glyph glyph-name="ocircumflex" unicode="&#xf4;" horiz-adv-x="502" 
d="M452 336c0 -14 -0.833008 -29 -2.5 -45s-3.83398 -30.667 -6.50098 -44c-10 -51.333 -22.667 -92.5 -38 -123.5s-33.666 -56.167 -54.999 -75.5c-40 -36 -87 -54 -141 -54c-16 0 -33 2.33301 -51 7s-35.167 13.167 -51.5 25.5s-29.833 29.333 -40.5 51s-16 48.5 -16 80.5
c0 14 1 29 3 45s4 30.667 6 44c10 51.333 22.667 92.5 38 123.5s33.666 56.167 54.999 75.5c20 18 42 31.333 66 40s49 13 75 13c16.667 0 33.834 -2.33301 51.501 -7s34.667 -13 51 -25s29.833 -28.833 40.5 -50.5s16 -48.5 16 -80.5zM383 333
c0 35.333 -9.16797 61.501 -27.501 78.501s-40.833 25.5 -67.5 25.5c-16.667 0 -33.167 -3.33301 -49.5 -10s-30.5 -16 -42.5 -28c-15.333 -15.333 -28.166 -34.666 -38.499 -57.999s-19.5 -54.666 -27.5 -93.999c-7.33301 -38 -11 -67 -11 -87
c0 -35.333 9.16699 -61.5 27.5 -78.5s40.833 -25.5 67.5 -25.5c16.667 0 33.334 3.66699 50.001 11s30.667 16.666 42 27.999c15.333 15.333 28.166 34.666 38.499 57.999s19.5 54.666 27.5 93.999c7.33301 38 11 66.667 11 86zM470.999 594.001h-63l-64 106l-109 -106h-69
l150 153h65z" />
    <glyph glyph-name="otilde" unicode="&#xf5;" horiz-adv-x="502" 
d="M452 336c0 -14 -0.833008 -29 -2.5 -45s-3.83398 -30.667 -6.50098 -44c-10 -51.333 -22.667 -92.5 -38 -123.5s-33.666 -56.167 -54.999 -75.5c-40 -36 -87 -54 -141 -54c-16 0 -33 2.33301 -51 7s-35.167 13.167 -51.5 25.5s-29.833 29.333 -40.5 51s-16 48.5 -16 80.5
c0 14 1 29 3 45s4 30.667 6 44c10 51.333 22.667 92.5 38 123.5s33.666 56.167 54.999 75.5c20 18 42 31.333 66 40s49 13 75 13c16.667 0 33.834 -2.33301 51.501 -7s34.667 -13 51 -25s29.833 -28.833 40.5 -50.5s16 -48.5 16 -80.5zM383 333
c0 35.333 -9.16797 61.501 -27.501 78.501s-40.833 25.5 -67.5 25.5c-16.667 0 -33.167 -3.33301 -49.5 -10s-30.5 -16 -42.5 -28c-15.333 -15.333 -28.166 -34.666 -38.499 -57.999s-19.5 -54.666 -27.5 -93.999c-7.33301 -38 -11 -67 -11 -87
c0 -35.333 9.16699 -61.5 27.5 -78.5s40.833 -25.5 67.5 -25.5c16.667 0 33.334 3.66699 50.001 11s30.667 16.666 42 27.999c15.333 15.333 28.166 34.666 38.499 57.999s19.5 54.666 27.5 93.999c7.33301 38 11 66.667 11 86zM482.999 654.001
c-17.333 -16.667 -33.667 -28.667 -49 -36s-31.333 -11 -48 -11c-24 0 -47 8 -69 24c-11.333 8 -20.166 13.167 -26.499 15.5s-14.5 3.5 -24.5 3.5c-16.667 0 -37.334 -11.333 -62.001 -34l-30 39c18 16.667 34.333 28.667 49 36s30.334 11 47.001 11c24.667 0 48 -8 70 -24
c11.333 -8 20.166 -13.167 26.499 -15.5s14.5 -3.5 24.5 -3.5s19.667 2.66699 29 8s20.333 14 33 26z" />
    <glyph glyph-name="odieresis" unicode="&#xf6;" horiz-adv-x="502" 
d="M452 336c0 -14 -0.833008 -29 -2.5 -45s-3.83398 -30.667 -6.50098 -44c-10 -51.333 -22.667 -92.5 -38 -123.5s-33.666 -56.167 -54.999 -75.5c-40 -36 -87 -54 -141 -54c-16 0 -33 2.33301 -51 7s-35.167 13.167 -51.5 25.5s-29.833 29.333 -40.5 51s-16 48.5 -16 80.5
c0 14 1 29 3 45s4 30.667 6 44c10 51.333 22.667 92.5 38 123.5s33.666 56.167 54.999 75.5c20 18 42 31.333 66 40s49 13 75 13c16.667 0 33.834 -2.33301 51.501 -7s34.667 -13 51 -25s29.833 -28.833 40.5 -50.5s16 -48.5 16 -80.5zM383 333
c0 35.333 -9.16797 61.501 -27.501 78.501s-40.833 25.5 -67.5 25.5c-16.667 0 -33.167 -3.33301 -49.5 -10s-30.5 -16 -42.5 -28c-15.333 -15.333 -28.166 -34.666 -38.499 -57.999s-19.5 -54.666 -27.5 -93.999c-7.33301 -38 -11 -67 -11 -87
c0 -35.333 9.16699 -61.5 27.5 -78.5s40.833 -25.5 67.5 -25.5c16.667 0 33.334 3.66699 50.001 11s30.667 16.666 42 27.999c15.333 15.333 28.166 34.666 38.499 57.999s19.5 54.666 27.5 93.999c7.33301 38 11 66.667 11 86zM475.999 685.001l-17 -88h-71l18 88h70z
M274.999 685.001l-18 -88h-69l17 88h70z" />
    <glyph glyph-name="divide" unicode="&#xf7;" horiz-adv-x="496" 
d="M459 302l-13 -64h-399l13 64h399zM335 484l-16 -84h-83l17 84h82zM270 140l-16 -83h-83l17 83h82z" />
    <glyph glyph-name="oslash" unicode="&#xf8;" horiz-adv-x="503" 
d="M497 537l-72.9971 -97.001c19.333 -26 29 -60.667 29 -104c0 -14 -0.833008 -29 -2.5 -45s-3.83398 -30.667 -6.50098 -44c-9.33301 -51.333 -21.833 -92.5 -37.5 -123.5s-34.167 -56.167 -55.5 -75.5c-40 -36 -87 -54 -141 -54c-16 0 -32.833 2.33301 -50.5 7
s-33.834 12.334 -48.501 23.001l-51 -68h-55l74 99c-19.333 27.333 -29 61.666 -29 102.999c0 13.333 1 27.333 3 42s4.33301 30.334 7 47.001c9.33301 51.333 21.833 92.5 37.5 123.5s34.167 56.167 55.5 75.5c20 18 42 31.333 66 40s49 13 75 13
c15.333 0 31.666 -2.16699 48.999 -6.5s33.333 -11.833 48 -22.5l50 67h56zM384.003 332.999c0 17.333 -2.66504 33.0029 -7.99805 47.0029l-226 -302c15.333 -14.667 36.666 -22 63.999 -22c16.667 0 33.5 3.66699 50.5 11s31.167 16.666 42.5 27.999
c15.333 15.333 28.166 34.666 38.499 57.999s19.5 54.666 27.5 93.999c7.33301 38 11 66.667 11 86zM120.005 160.002c0 -16.667 2 -31.667 6 -45l226 301c-16.667 14 -37.667 21 -63 21c-16.667 0 -33.167 -3.33301 -49.5 -10s-30.5 -16 -42.5 -28
c-16 -16 -29.167 -35.5 -39.5 -58.5s-19.5 -54.167 -27.5 -93.5c-6.66699 -34 -10 -63 -10 -87z" />
    <glyph glyph-name="ugrave" unicode="&#xf9;" 
d="M341 55c-35.333 -40.667 -83.667 -61 -145 -61c-39.333 0 -71.833 12.333 -97.5 37s-38.5 58.667 -38.5 102c0 11.333 1.66699 26.333 5 45l1 4l62 311h70l-61 -304c-3.33301 -18 -5 -33.333 -5 -46c0 -28 8.33301 -49.5 25 -64.5s38.334 -22.5 65.001 -22.5
c10.667 0 22.834 1.66699 36.501 5s27.667 9.83301 42 19.5s27.666 23.5 39.999 41.5s21.166 41 26.499 69l60 302h71l-98 -493h-69zM372.999 589h-60l-72 151h80z" />
    <glyph glyph-name="uacute" unicode="&#xfa;" 
d="M341 55c-35.333 -40.667 -83.667 -61 -145 -61c-39.333 0 -71.833 12.333 -97.5 37s-38.5 58.667 -38.5 102c0 11.333 1.66699 26.333 5 45l1 4l62 311h70l-61 -304c-3.33301 -18 -5 -33.333 -5 -46c0 -28 8.33301 -49.5 25 -64.5s38.334 -22.5 65.001 -22.5
c10.667 0 22.834 1.66699 36.501 5s27.667 9.83301 42 19.5s27.666 23.5 39.999 41.5s21.166 41 26.499 69l60 302h71l-98 -493h-69zM477.999 740l-130 -151h-66l112 151h84z" />
    <glyph glyph-name="ucircumflex" unicode="&#xfb;" 
d="M341 55c-35.333 -40.667 -83.667 -61 -145 -61c-39.333 0 -71.833 12.333 -97.5 37s-38.5 58.667 -38.5 102c0 11.333 1.66699 26.333 5 45l1 4l62 311h70l-61 -304c-3.33301 -18 -5 -33.333 -5 -46c0 -28 8.33301 -49.5 25 -64.5s38.334 -22.5 65.001 -22.5
c10.667 0 22.834 1.66699 36.501 5s27.667 9.83301 42 19.5s27.666 23.5 39.999 41.5s21.166 41 26.499 69l60 302h71l-98 -493h-69zM482.999 594h-63l-64 106l-109 -106h-69l150 153h65z" />
    <glyph glyph-name="udieresis" unicode="&#xfc;" 
d="M341 55c-35.333 -40.667 -83.667 -61 -145 -61c-39.333 0 -71.833 12.333 -97.5 37s-38.5 58.667 -38.5 102c0 11.333 1.66699 26.333 5 45l1 4l62 311h70l-61 -304c-3.33301 -18 -5 -33.333 -5 -46c0 -28 8.33301 -49.5 25 -64.5s38.334 -22.5 65.001 -22.5
c10.667 0 22.834 1.66699 36.501 5s27.667 9.83301 42 19.5s27.666 23.5 39.999 41.5s21.166 41 26.499 69l60 302h71l-98 -493h-69zM487.999 685l-17 -88h-71l18 88h70zM286.999 685l-18 -88h-69l17 88h70z" />
    <glyph glyph-name="yacute" unicode="&#xfd;" horiz-adv-x="424" 
d="M462 493l-259 -482.001l-69 -129c-8 -14.667 -15.333 -26.667 -22 -36s-13.334 -17 -20.001 -23c-12.667 -11.333 -27 -19.666 -43 -24.999s-35.667 -8 -59 -8h-31l13 62h21c22.667 0 39.834 4.5 51.501 13.5s24.167 26.167 37.5 51.5l49 94l-71 482h70l51 -397l204 397
h77zM419 739.999l-130 -151h-66l112 151h84z" />
    <glyph glyph-name="thorn" unicode="&#xfe;" horiz-adv-x="519" 
d="M470 345c0 -28 -3.66992 -60.667 -11.0029 -98c-9.33301 -48 -20.666 -88.5 -33.999 -121.5s-30.333 -59.833 -51 -80.5c-18 -18 -38 -31 -60 -39s-45.667 -12 -71 -12c-26.667 0 -51 5.33301 -73 16s-38.667 28 -50 52l-57 -281h-70l93 465l93 466h70l-55 -275
c14.667 18 32.334 32.833 53.001 44.5s48.334 17.5 83.001 17.5c47.333 0 82.5 -13.833 105.5 -41.5s34.5 -65.167 34.5 -112.5zM398.997 334c0 31.333 -6.66797 56.333 -20.001 75s-36 28 -68 28c-24 0 -44.833 -4.83301 -62.5 -14.5s-32.5 -23.167 -44.5 -40.5
s-21.667 -37.166 -29 -59.499s-13.666 -47.5 -18.999 -75.5c-3.33301 -16.667 -6 -32.5 -8 -47.5s-3 -28.5 -3 -40.5c0 -31.333 6.83301 -56.333 20.5 -75s36.5 -28 68.5 -28c24 0 44.833 5 62.5 15s32.334 23.667 44.001 41s21.167 37 28.5 59s13.666 47.333 18.999 76
c3.33301 17.333 6 33.166 8 47.499s3 27.5 3 39.5z" />
    <glyph glyph-name="ydieresis" unicode="&#xff;" horiz-adv-x="424" 
d="M462 493l-259 -482.001l-69 -129c-8 -14.667 -15.333 -26.667 -22 -36s-13.334 -17 -20.001 -23c-12.667 -11.333 -27 -19.666 -43 -24.999s-35.667 -8 -59 -8h-31l13 62h21c22.667 0 39.834 4.5 51.501 13.5s24.167 26.167 37.5 51.5l49 94l-71 482h70l51 -397l204 397
h77zM432 684.999l-17 -88h-71l18 88h70zM231 684.999l-18 -88h-69l17 88h70z" />
    <glyph glyph-name="Amacron" unicode="&#x100;" horiz-adv-x="581" 
d="M521 0h-74l-22 162h-296l-87 -162h-78l389 712h61zM418 223l-53 384l-204 -384h257zM546 853l-12 -54h-286l10 54h288z" />
    <glyph glyph-name="amacron" unicode="&#x101;" horiz-adv-x="501" 
d="M443 371c0 -3.33301 -0.670898 -9.33203 -2.00391 -17.999c-2 -10 -3 -17 -3 -21l-20 -102l-46 -230h-69l11 49c-18.667 -18.667 -39.167 -32.5 -61.5 -41.5s-48.833 -13.5 -79.5 -13.5c-42.667 0 -78 9.66699 -106 29s-42 49.666 -42 90.999c0 22 3.5 43 10.5 63
s18.167 37.333 33.5 52c19.333 18.667 41 32 65 40s50.667 12 80 12h144l11 52c2.66699 12 4 23 4 33c0 23.333 -8.66699 41.333 -26 54s-41.666 19 -72.999 19c-29.333 0 -54.166 -4.66699 -74.499 -14s-39.833 -24.333 -58.5 -45l-41 48
c22.667 24.667 47.834 42.667 75.501 54s61.834 17 102.501 17c20 0 39.333 -1.83301 58 -5.5s36.167 -10.167 52.5 -19.5s29.5 -22.5 39.5 -39.5s15 -38.167 15 -63.5zM336.996 172.001l11 56.999h-127c-38 0 -68.667 -9.66699 -92 -29s-35 -46.666 -35 -81.999
c0 -21.333 7.83301 -37.333 23.5 -48s40.5 -16 74.5 -16c44.667 0 79.667 12.667 105 38c20.667 19.333 34 46 40 80zM468.996 666l-12 -54h-286l10 54h288z" />
    <glyph glyph-name="Abreve" unicode="&#x102;" horiz-adv-x="581" 
d="M521 0h-74l-22 162h-296l-87 -162h-78l389 712h61zM418 223l-53 384l-204 -384h257zM568 915c-9.33301 -48 -29 -83.333 -59 -106s-69.667 -34 -119 -34c-42 0 -75.333 11 -100 33s-37 49.667 -37 83c0 8 0.666992 16 2 24h55c0 -56.667 29.333 -85 88 -85
c28.667 0 53 7 73 21s34 35.333 42 64h55z" />
    <glyph glyph-name="abreve" unicode="&#x103;" horiz-adv-x="501" 
d="M443 371c0 -3.33301 -0.670898 -9.33203 -2.00391 -17.999c-2 -10 -3 -17 -3 -21l-20 -102l-46 -230h-69l11 49c-18.667 -18.667 -39.167 -32.5 -61.5 -41.5s-48.833 -13.5 -79.5 -13.5c-42.667 0 -78 9.66699 -106 29s-42 49.666 -42 90.999c0 22 3.5 43 10.5 63
s18.167 37.333 33.5 52c19.333 18.667 41 32 65 40s50.667 12 80 12h144l11 52c2.66699 12 4 23 4 33c0 23.333 -8.66699 41.333 -26 54s-41.666 19 -72.999 19c-29.333 0 -54.166 -4.66699 -74.499 -14s-39.833 -24.333 -58.5 -45l-41 48
c22.667 24.667 47.834 42.667 75.501 54s61.834 17 102.501 17c20 0 39.333 -1.83301 58 -5.5s36.167 -10.167 52.5 -19.5s29.5 -22.5 39.5 -39.5s15 -38.167 15 -63.5zM336.996 172.001l11 56.999h-127c-38 0 -68.667 -9.66699 -92 -29s-35 -46.666 -35 -81.999
c0 -21.333 7.83301 -37.333 23.5 -48s40.5 -16 74.5 -16c44.667 0 79.667 12.667 105 38c20.667 19.333 34 46 40 80zM491.996 728c-9.33301 -48 -29 -83.333 -59 -106s-69.667 -34 -119 -34c-42 0 -75.333 11 -100 33s-37 49.667 -37 83c0 8 0.666992 16 2 24h55
c0 -56.667 29.333 -85 88 -85c28.667 0 53 7 73 21s34 35.333 42 64h55z" />
    <glyph glyph-name="Aogonek" unicode="&#x104;" horiz-adv-x="581" 
d="M521 0h-74l-22 162h-296l-87 -162h-78l389 712h61zM418 223l-53 384l-204 -384h257zM539 -208h-75l-24 147h62z" />
    <glyph glyph-name="aogonek" unicode="&#x105;" horiz-adv-x="501" 
d="M443 371c0 -3.33301 -0.670898 -9.33203 -2.00391 -17.999c-2 -10 -3 -17 -3 -21l-20 -102l-46 -230h-69l11 49c-18.667 -18.667 -39.167 -32.5 -61.5 -41.5s-48.833 -13.5 -79.5 -13.5c-42.667 0 -78 9.66699 -106 29s-42 49.666 -42 90.999c0 22 3.5 43 10.5 63
s18.167 37.333 33.5 52c19.333 18.667 41 32 65 40s50.667 12 80 12h144l11 52c2.66699 12 4 23 4 33c0 23.333 -8.66699 41.333 -26 54s-41.666 19 -72.999 19c-29.333 0 -54.166 -4.66699 -74.499 -14s-39.833 -24.333 -58.5 -45l-41 48
c22.667 24.667 47.834 42.667 75.501 54s61.834 17 102.501 17c20 0 39.333 -1.83301 58 -5.5s36.167 -10.167 52.5 -19.5s29.5 -22.5 39.5 -39.5s15 -38.167 15 -63.5zM336.996 172.001l11 56.999h-127c-38 0 -68.667 -9.66699 -92 -29s-35 -46.666 -35 -81.999
c0 -21.333 7.83301 -37.333 23.5 -48s40.5 -16 74.5 -16c44.667 0 79.667 12.667 105 38c20.667 19.333 34 46 40 80zM388.996 -208h-75l-24 147h62z" />
    <glyph glyph-name="Cacute" unicode="&#x106;" horiz-adv-x="607" 
d="M592 509h-72.998c0 44.667 -11.667 80.167 -35 106.5s-55.333 39.5 -96 39.5c-52 0 -98 -20 -138 -60c-19.333 -19.333 -34.666 -45.666 -45.999 -78.999s-24 -86.666 -38 -159.999c-8.66699 -45.333 -14.834 -80.5 -18.501 -105.5s-5.5 -45.833 -5.5 -62.5
c0 -40 13 -71.833 39 -95.5s57.667 -35.5 95 -35.5c45.333 0 84.5 14 117.5 42s57.167 62.667 72.5 104h74c-20.667 -65.333 -55 -116.5 -103 -153.5s-102.667 -55.5 -164 -55.5c-58 0 -106.5 17.167 -145.5 51.5s-58.5 81.166 -58.5 140.499c0 14.667 1.66699 34.667 5 60
s9.66602 62 18.999 110c8 44 15.167 79.833 21.5 107.5s13.333 52.167 21 73.5s16.5 40.166 26.5 56.499s22.333 31.833 37 46.5c24 24 52.667 43 86 57s67.666 21 102.999 21c66 0 116.5 -19.167 151.5 -57.5s52.5 -88.833 52.5 -151.5zM547.002 927l-130 -151h-66l112 151
h84z" />
    <glyph glyph-name="cacute" unicode="&#x107;" horiz-adv-x="466" 
d="M450 426l-51.999 -43.9971c-12.667 19.333 -26.5 33.333 -41.5 42s-33.5 13 -55.5 13c-41.333 0 -77.666 -16 -108.999 -48c-16.667 -17.333 -30.167 -38.5 -40.5 -63.5s-18.166 -51.167 -23.499 -78.5c-5.33301 -28 -8 -52.667 -8 -74
c0 -38.667 10.333 -67.834 31 -87.501s46 -29.5 76 -29.5c23.333 0 44.166 4.5 62.499 13.5s37.166 23.5 56.499 43.5l41 -50c-46 -46 -100.667 -69 -164 -69c-56 0 -98.833 16.5 -128.5 49.5s-44.5 75.5 -44.5 127.5c0 11.333 0.5 23.666 1.5 36.999s2.83301 26.333 5.5 39
c14.667 81.333 44.167 143.666 88.5 186.999s98.5 65 162.5 65c32.667 0 60.167 -6.16699 82.5 -18.5s42.166 -30.5 59.499 -54.5zM447.001 740.003l-130 -151h-66l112 151h84z" />
    <glyph glyph-name="Ccaron" unicode="&#x10c;" horiz-adv-x="607" 
d="M592 509h-72.998c0 44.667 -11.667 80.167 -35 106.5s-55.333 39.5 -96 39.5c-52 0 -98 -20 -138 -60c-19.333 -19.333 -34.666 -45.666 -45.999 -78.999s-24 -86.666 -38 -159.999c-8.66699 -45.333 -14.834 -80.5 -18.501 -105.5s-5.5 -45.833 -5.5 -62.5
c0 -40 13 -71.833 39 -95.5s57.667 -35.5 95 -35.5c45.333 0 84.5 14 117.5 42s57.167 62.667 72.5 104h74c-20.667 -65.333 -55 -116.5 -103 -153.5s-102.667 -55.5 -164 -55.5c-58 0 -106.5 17.167 -145.5 51.5s-58.5 81.166 -58.5 140.499c0 14.667 1.66699 34.667 5 60
s9.66602 62 18.999 110c8 44 15.167 79.833 21.5 107.5s13.333 52.167 21 73.5s16.5 40.166 26.5 56.499s22.333 31.833 37 46.5c24 24 52.667 43 86 57s67.666 21 102.999 21c66 0 116.5 -19.167 151.5 -57.5s52.5 -88.833 52.5 -151.5zM578.002 934l-150 -153h-66l-90 153
h63l65 -106l108 106h70z" />
    <glyph glyph-name="ccaron" unicode="&#x10d;" horiz-adv-x="466" 
d="M450 426l-51.999 -43.9971c-12.667 19.333 -26.5 33.333 -41.5 42s-33.5 13 -55.5 13c-41.333 0 -77.666 -16 -108.999 -48c-16.667 -17.333 -30.167 -38.5 -40.5 -63.5s-18.166 -51.167 -23.499 -78.5c-5.33301 -28 -8 -52.667 -8 -74
c0 -38.667 10.333 -67.834 31 -87.501s46 -29.5 76 -29.5c23.333 0 44.166 4.5 62.499 13.5s37.166 23.5 56.499 43.5l41 -50c-46 -46 -100.667 -69 -164 -69c-56 0 -98.833 16.5 -128.5 49.5s-44.5 75.5 -44.5 127.5c0 11.333 0.5 23.666 1.5 36.999s2.83301 26.333 5.5 39
c14.667 81.333 44.167 143.666 88.5 186.999s98.5 65 162.5 65c32.667 0 60.167 -6.16699 82.5 -18.5s42.166 -30.5 59.499 -54.5zM485.001 747.003l-150 -153h-66l-90 153h63l65 -106l108 106h70z" />
    <glyph glyph-name="Dcaron" unicode="&#x10e;" horiz-adv-x="639" 
d="M541 515c0 42 -11.666 74.834 -34.999 98.501s-58.666 35.5 -105.999 35.5h-148l-118 -586h147c27.333 0 53 4 77 12s46 21 66 39c21.333 19.333 39.166 47.666 53.499 84.999s28.166 92.333 41.499 165c8.66699 44.667 14.5 77 17.5 97s4.5 38 4.5 54zM613.001 518.001
c0 -18 -1.5 -37.666 -4.5 -58.999s-8.5 -53 -16.5 -95c-8 -43.333 -16 -80.333 -24 -111s-16.5 -57.334 -25.5 -80.001s-19.167 -42.667 -30.5 -60s-25.333 -33.333 -42 -48c-23.333 -21.333 -51 -37.5 -83 -48.5s-66 -16.5 -102 -16.5h-236l13 63l117 585l13 64h222
c26 0 50.667 -3.33301 74 -10s44.5 -17.5 63.5 -32.5s34 -35 45 -60s16.5 -55.5 16.5 -91.5zM594.001 934.002l-150 -153h-66l-90 153h63l65 -106l108 106h70z" />
    <glyph glyph-name="dcaron" unicode="&#x10f;" horiz-adv-x="519" 
d="M400 431l56.998 280.999h70l-93 -465l-49 -247h-69l12 59c-20.667 -24.667 -42 -41.667 -64 -51s-46.333 -14 -73 -14c-49.333 0 -85.166 14.167 -107.499 42.5s-33.5 65.833 -33.5 112.5c0 30 3.66699 62.667 11 98c9.33301 46.667 20.5 86.334 33.5 119.001
s30.167 59.667 51.5 81c18.667 18.667 38.834 32 60.501 40s45.5 12 71.5 12s49.667 -5.16699 71 -15.5s38.333 -27.833 51 -52.5zM374.998 335.999c0 30.667 -6.83203 55.168 -20.499 73.501s-36.5 27.5 -68.5 27.5c-24 0 -44.833 -4.83301 -62.5 -14.5
s-32.334 -23.167 -44.001 -40.5s-21.167 -37 -28.5 -59s-13.666 -47.333 -18.999 -76c-3.33301 -16.667 -6 -32.5 -8 -47.5s-3 -28.833 -3 -41.5c0 -30.667 6.66699 -55.334 20 -74.001s36 -28 68 -28c24 0 44.833 5 62.5 15s32.5 23.667 44.5 41s21.667 37.166 29 59.499
s13.666 47.5 18.999 75.5c3.33301 17.333 6 33.333 8 48s3 28.334 3 41.001zM675.999 654l-88 -70l33 164h73z" />
    <glyph glyph-name="Dcroat" unicode="&#x110;" horiz-adv-x="653" 
d="M626 518c0 -18 -1.5 -37.666 -4.5 -58.999s-8.5 -53 -16.5 -95c-8 -43.333 -16 -80.333 -24 -111s-16.5 -57.334 -25.5 -80.001s-19.167 -42.667 -30.5 -60s-25.333 -33.333 -42 -48c-23.333 -21.333 -51 -37.5 -83 -48.5s-66 -16.5 -102 -16.5h-236l13 63l53 268h-73
l11 56h73l53 263l13 62h222c26 0 50.667 -3.33301 74 -10s44.5 -17.5 63.5 -32.5s34 -35 45 -60s16.5 -55.5 16.5 -91.5zM554 515.001c0 42 -11.667 74.833 -35 98.5s-58.666 35.5 -105.999 35.5h-148l-53 -262h154l-11 -56h-154l-54 -268h147c27.333 0 53.166 4 77.499 12
s46.5 21 66.5 39c21.333 19.333 38.833 47.5 52.5 84.5s27.5 92.167 41.5 165.5c8.66699 44.667 14.5 77 17.5 97s4.5 38 4.5 54z" />
    <glyph glyph-name="dcroat" unicode="&#x111;" horiz-adv-x="519" 
d="M328 59c-20.667 -24.667 -42.002 -41.668 -64.002 -51.001s-46.333 -14 -73 -14c-49.333 0 -85.166 14.167 -107.499 42.5s-33.5 65.833 -33.5 112.5c0 30 3.66699 62.667 11 98c9.33301 46.667 20.5 86.334 33.5 119.001s30.167 59.667 51.5 81
c18.667 18.667 38.834 32 60.501 40s45.5 12 71.5 12s49.667 -5.16699 71 -15.5s38.333 -27.833 51 -52.5l29 141h-78l11 53h77l18 87h70l-17 -87h63l-11 -53h-63l-65 -325l-49 -247h-69zM374.998 335.999c0 30.667 -6.83203 55.168 -20.499 73.501s-36.5 27.5 -68.5 27.5
c-24 0 -44.833 -4.83301 -62.5 -14.5s-32.334 -23.167 -44.001 -40.5s-21.167 -37 -28.5 -59s-13.666 -47.333 -18.999 -76c-3.33301 -16.667 -6 -32.5 -8 -47.5s-3 -28.833 -3 -41.5c0 -30.667 6.66699 -55.334 20 -74.001s36 -28 68 -28c24 0 44.833 5 62.5 15
s32.5 23.667 44.5 41s21.667 37.166 29 59.499s13.666 47.5 18.999 75.5c3.33301 17.333 6 33.333 8 48s3 28.334 3 41.001z" />
    <glyph glyph-name="Emacron" unicode="&#x112;" horiz-adv-x="572" 
d="M611 712l-13 -63h-346l-52 -258h297l-12 -63h-297l-54 -265h353l-12 -63h-426l13 63l117 586l13 63h419zM547 853l-12 -54h-286l10 54h288z" />
    <glyph glyph-name="emacron" unicode="&#x113;" horiz-adv-x="506" 
d="M385 330c0 36 -9 63.168 -27 81.501s-40.667 27.5 -68 27.5c-36.667 0 -68.5 -13 -95.5 -39s-47.5 -66 -61.5 -120h248c0 4.66699 0.666992 12 2 22c1.33301 11.333 2 20.666 2 27.999zM453 330.001c0 -12.667 -0.998047 -27.999 -2.99805 -45.999s-5 -36.333 -9 -55
h-317c-4 -20.667 -6 -41.334 -6 -62.001c0 -34 8.83301 -61.167 26.5 -81.5s44.167 -30.5 79.5 -30.5c28 0 52.5 4.66699 73.5 14s42.5 24 64.5 44l42 -47c-50.667 -48 -112.667 -72 -186 -72c-50.667 0 -91.334 14.5 -122.001 43.5s-46 71.167 -46 126.5
c0 38.667 4.66699 77.667 14 117s23.833 75.5 43.5 108.5s45.167 59.5 76.5 79.5s67.666 30 108.999 30c50.667 0 90 -15.833 118 -47.5s42 -72.167 42 -121.5zM481.002 666.002l-12 -54h-286l10 54h288z" />
    <glyph glyph-name="Edotaccent" unicode="&#x116;" horiz-adv-x="572" 
d="M611 712l-13 -63h-346l-52 -258h297l-12 -63h-297l-54 -265h353l-12 -63h-426l13 63l117 586l13 63h419zM457 888l-14 -72h-78l14 72h78z" />
    <glyph glyph-name="edotaccent" unicode="&#x117;" horiz-adv-x="506" 
d="M385 330c0 36 -9 63.168 -27 81.501s-40.667 27.5 -68 27.5c-36.667 0 -68.5 -13 -95.5 -39s-47.5 -66 -61.5 -120h248c0 4.66699 0.666992 12 2 22c1.33301 11.333 2 20.666 2 27.999zM453 330.001c0 -12.667 -0.998047 -27.999 -2.99805 -45.999s-5 -36.333 -9 -55
h-317c-4 -20.667 -6 -41.334 -6 -62.001c0 -34 8.83301 -61.167 26.5 -81.5s44.167 -30.5 79.5 -30.5c28 0 52.5 4.66699 73.5 14s42.5 24 64.5 44l42 -47c-50.667 -48 -112.667 -72 -186 -72c-50.667 0 -91.334 14.5 -122.001 43.5s-46 71.167 -46 126.5
c0 38.667 4.66699 77.667 14 117s23.833 75.5 43.5 108.5s45.167 59.5 76.5 79.5s67.666 30 108.999 30c50.667 0 90 -15.833 118 -47.5s42 -72.167 42 -121.5zM381.002 701.002l-14 -72h-78l14 72h78z" />
    <glyph glyph-name="Eogonek" unicode="&#x118;" horiz-adv-x="572" 
d="M611 712l-13 -63h-346l-52 -258h297l-12 -63h-297l-54 -265h353l-12 -63h-426l13 63l117 586l13 63h419zM462 -208h-75l-24 147h62z" />
    <glyph glyph-name="eogonek" unicode="&#x119;" horiz-adv-x="506" 
d="M385 330c0 36 -9 63.168 -27 81.501s-40.667 27.5 -68 27.5c-36.667 0 -68.5 -13 -95.5 -39s-47.5 -66 -61.5 -120h248c0 4.66699 0.666992 12 2 22c1.33301 11.333 2 20.666 2 27.999zM453 330.001c0 -12.667 -0.998047 -27.999 -2.99805 -45.999s-5 -36.333 -9 -55
h-317c-4 -20.667 -6 -41.334 -6 -62.001c0 -34 8.83301 -61.167 26.5 -81.5s44.167 -30.5 79.5 -30.5c28 0 52.5 4.66699 73.5 14s42.5 24 64.5 44l42 -47c-50.667 -48 -112.667 -72 -186 -72c-50.667 0 -91.334 14.5 -122.001 43.5s-46 71.167 -46 126.5
c0 38.667 4.66699 77.667 14 117s23.833 75.5 43.5 108.5s45.167 59.5 76.5 79.5s67.666 30 108.999 30c50.667 0 90 -15.833 118 -47.5s42 -72.167 42 -121.5zM288.002 -207.998h-75l-24 147h62z" />
    <glyph glyph-name="Ecaron" unicode="&#x11a;" horiz-adv-x="572" 
d="M611 712l-13 -63h-346l-52 -258h297l-12 -63h-297l-54 -265h353l-12 -63h-426l13 63l117 586l13 63h419zM570 934l-150 -153h-66l-90 153h63l65 -106l108 106h70z" />
    <glyph glyph-name="ecaron" unicode="&#x11b;" horiz-adv-x="506" 
d="M385 330c0 36 -9 63.168 -27 81.501s-40.667 27.5 -68 27.5c-36.667 0 -68.5 -13 -95.5 -39s-47.5 -66 -61.5 -120h248c0 4.66699 0.666992 12 2 22c1.33301 11.333 2 20.666 2 27.999zM453 330.001c0 -12.667 -0.998047 -27.999 -2.99805 -45.999s-5 -36.333 -9 -55
h-317c-4 -20.667 -6 -41.334 -6 -62.001c0 -34 8.83301 -61.167 26.5 -81.5s44.167 -30.5 79.5 -30.5c28 0 52.5 4.66699 73.5 14s42.5 24 64.5 44l42 -47c-50.667 -48 -112.667 -72 -186 -72c-50.667 0 -91.334 14.5 -122.001 43.5s-46 71.167 -46 126.5
c0 38.667 4.66699 77.667 14 117s23.833 75.5 43.5 108.5s45.167 59.5 76.5 79.5s67.666 30 108.999 30c50.667 0 90 -15.833 118 -47.5s42 -72.167 42 -121.5zM501.002 747.002l-150 -153h-66l-90 153h63l65 -106l108 106h70z" />
    <glyph glyph-name="Gbreve" unicode="&#x11e;" horiz-adv-x="619" 
d="M593 508l-73.0029 -0.00195312c0 44.667 -11.833 80.334 -35.5 107.001s-55.5 40 -95.5 40c-52.667 0 -99 -20 -139 -60c-10 -10 -18.667 -21.167 -26 -33.5s-14.166 -27.666 -20.499 -45.999s-12.5 -40.166 -18.5 -65.499s-12.667 -56.666 -20 -93.999
c-8.66699 -46 -14.667 -81.167 -18 -105.5s-5 -44.5 -5 -60.5c0 -42.667 13.833 -75.5 41.5 -98.5s59.5 -34.5 95.5 -34.5c19.333 0 39 3.66699 59 11s39.167 18.666 57.5 33.999s34.666 35.5 48.999 60.5s24.833 54.5 31.5 88.5l12 59h-167l11 62h239l-11 -58l-10 -55
c-8 -42.667 -19 -78.834 -33 -108.501s-32.667 -56.167 -56 -79.5s-50.833 -42 -82.5 -56s-66.5 -21 -104.5 -21c-58 0 -106.667 17.333 -146 52s-59 81.334 -59 140.001c0 17.333 1.83301 38.333 5.5 63s9.83398 60.334 18.501 107.001s16.334 84 23.001 112
s13.5 52.167 20.5 72.5s15.333 38.166 25 53.499s21.834 30.333 36.501 45c24 24 52.833 43.167 86.5 57.5s68.5 21.5 104.5 21.5c66 0 116.5 -19.333 151.5 -58s52.5 -89.334 52.5 -152.001zM576.997 914.998c-9.33301 -48 -29 -83.333 -59 -106s-69.667 -34 -119 -34
c-42 0 -75.333 11 -100 33s-37 49.667 -37 83c0 8 0.666992 16 2 24h55c0 -56.667 29.333 -85 88 -85c28.667 0 53 7 73 21s34 35.333 42 64h55z" />
    <glyph glyph-name="gbreve" unicode="&#x11f;" horiz-adv-x="517" 
d="M374 337c0 66.667 -29.6689 100 -89.002 100c-23.333 0 -43.666 -4.83301 -60.999 -14.5s-32 -23.167 -44 -40.5s-21.667 -36.833 -29 -58.5s-13.666 -46.167 -18.999 -73.5c-7.33301 -38 -11 -66.667 -11 -86c0 -30.667 6.83301 -55 20.5 -73s36.5 -27 68.5 -27
c22.667 0 42.667 5 60 15s32 23.5 44 40.5s21.833 36.5 29.5 58.5s14.167 46.333 19.5 73c7.33301 38 11 66.667 11 86zM399.998 430l11.998 63h69l-49 -243l-52 -261c-8 -42 -20.333 -77.167 -37 -105.5s-35.834 -50.333 -57.501 -66s-43.834 -26.667 -66.501 -33
s-45.667 -9.5 -69 -9.5c-63.333 0 -113.666 22 -150.999 66l50 44c12.667 -16 26.834 -28.333 42.501 -37s35.167 -13 58.5 -13c38 0 71.5 12.5 100.5 37.5s49.167 63.833 60.5 116.5l16 76c-16.667 -20.667 -35.667 -36.334 -57 -47.001s-47.666 -16 -78.999 -16
c-44 0 -78.5 13.333 -103.5 40s-37.5 64 -37.5 112c0 26 3.66699 58.333 11 97c8.66699 46 19.5 85.167 32.5 117.5s29.833 58.833 50.5 79.5c18 18 38.333 31 61 39s46.334 12 71.001 12c27.333 0 51.833 -5.16699 73.5 -15.5s38.5 -28.166 50.5 -53.499zM499.996 728
c-9.33301 -48 -29 -83.333 -59 -106s-69.667 -34 -119 -34c-42 0 -75.333 11 -100 33s-37 49.667 -37 83c0 8 0.666992 16 2 24h55c0 -56.667 29.333 -85 88 -85c28.667 0 53 7 73 21s34 35.333 42 64h55z" />
    <glyph glyph-name="Gcedilla" unicode="&#x122;" horiz-adv-x="619" 
d="M593 508l-73.0029 -0.00195312c0 44.667 -11.833 80.334 -35.5 107.001s-55.5 40 -95.5 40c-52.667 0 -99 -20 -139 -60c-10 -10 -18.667 -21.167 -26 -33.5s-14.166 -27.666 -20.499 -45.999s-12.5 -40.166 -18.5 -65.499s-12.667 -56.666 -20 -93.999
c-8.66699 -46 -14.667 -81.167 -18 -105.5s-5 -44.5 -5 -60.5c0 -42.667 13.833 -75.5 41.5 -98.5s59.5 -34.5 95.5 -34.5c19.333 0 39 3.66699 59 11s39.167 18.666 57.5 33.999s34.666 35.5 48.999 60.5s24.833 54.5 31.5 88.5l12 59h-167l11 62h239l-11 -58l-10 -55
c-8 -42.667 -19 -78.834 -33 -108.501s-32.667 -56.167 -56 -79.5s-50.833 -42 -82.5 -56s-66.5 -21 -104.5 -21c-58 0 -106.667 17.333 -146 52s-59 81.334 -59 140.001c0 17.333 1.83301 38.333 5.5 63s9.83398 60.334 18.501 107.001s16.334 84 23.001 112
s13.5 52.167 20.5 72.5s15.333 38.166 25 53.499s21.834 30.333 36.501 45c24 24 52.833 43.167 86.5 57.5s68.5 21.5 104.5 21.5c66 0 116.5 -19.333 151.5 -58s52.5 -89.334 52.5 -152.001zM308.997 -66.002l-83 -146h-77l96 146h64z" />
    <glyph glyph-name="gcedilla" unicode="&#x123;" horiz-adv-x="517" 
d="M374 337c0 66.667 -29.6689 100 -89.002 100c-23.333 0 -43.666 -4.83301 -60.999 -14.5s-32 -23.167 -44 -40.5s-21.667 -36.833 -29 -58.5s-13.666 -46.167 -18.999 -73.5c-7.33301 -38 -11 -66.667 -11 -86c0 -30.667 6.83301 -55 20.5 -73s36.5 -27 68.5 -27
c22.667 0 42.667 5 60 15s32 23.5 44 40.5s21.833 36.5 29.5 58.5s14.167 46.333 19.5 73c7.33301 38 11 66.667 11 86zM399.998 430l11.998 63h69l-49 -243l-52 -261c-8 -42 -20.333 -77.167 -37 -105.5s-35.834 -50.333 -57.501 -66s-43.834 -26.667 -66.501 -33
s-45.667 -9.5 -69 -9.5c-63.333 0 -113.666 22 -150.999 66l50 44c12.667 -16 26.834 -28.333 42.501 -37s35.167 -13 58.5 -13c38 0 71.5 12.5 100.5 37.5s49.167 63.833 60.5 116.5l16 76c-16.667 -20.667 -35.667 -36.334 -57 -47.001s-47.666 -16 -78.999 -16
c-44 0 -78.5 13.333 -103.5 40s-37.5 64 -37.5 112c0 26 3.66699 58.333 11 97c8.66699 46 19.5 85.167 32.5 117.5s29.833 58.833 50.5 79.5c18 18 38.333 31 61 39s46.334 12 71.001 12c27.333 0 51.833 -5.16699 73.5 -15.5s38.5 -28.166 50.5 -53.499zM468.996 740
l-130 -151h-66l112 151h84z" />
    <glyph glyph-name="Imacron" unicode="&#x12a;" horiz-adv-x="268" 
d="M264 712l-13 -63l-117 -586l-13 -63h-72l13 63l117 586l13 63h72zM387 853l-12 -54h-286l10 54h288z" />
    <glyph glyph-name="imacron" unicode="&#x12b;" horiz-adv-x="241" 
d="M205 493l-85 -430l-13 -63h-70l13 63l85 430h70zM342 666l-12 -54h-286l10 54h288z" />
    <glyph glyph-name="Iogonek" unicode="&#x12e;" horiz-adv-x="268" 
d="M264 712l-13 -63l-117 -586l-13 -63h-72l13 63l117 586l13 63h72zM132 -208h-75l-24 147h62z" />
    <glyph glyph-name="iogonek" unicode="&#x12f;" horiz-adv-x="241" 
d="M251 706l-15 -73h-79l14 73h80zM205 493l-85 -430l-13 -63h-70l13 63l85 430h70zM123 -208h-75l-24 147h62z" />
    <glyph glyph-name="Idotaccent" unicode="&#x130;" horiz-adv-x="268" 
d="M264 712l-13 -63l-117 -586l-13 -63h-72l13 63l117 586l13 63h72zM296 888l-14 -72h-78l14 72h78z" />
    <glyph glyph-name="dotlessi" unicode="&#x131;" horiz-adv-x="241" 
d="M205 493l-85 -430l-13 -63h-70l13 63l85 430h70z" />
    <glyph glyph-name="Kcedilla" unicode="&#x136;" horiz-adv-x="621" 
d="M667 712l-14 -15l-254 -264l17 -46l147 -387h-79l-142 383l-181 -183l-27 -137l-13 -63h-72l13 63l117 586l13 63h72l-13 -63l-68 -342l393 405h91zM321 -66l-83 -146h-77l96 146h64z" />
    <glyph glyph-name="kcedilla" unicode="&#x137;" horiz-adv-x="513" 
d="M501 492l-196 -191l133 -301h-81l-106 256l-115 -109l-17 -84l-12 -63h-70l13 63l117 586l12 63h70l-13 -63l-81 -408l256 251h90zM260 -66l-83 -146h-77l96 146h64z" />
    <glyph glyph-name="Lacute" unicode="&#x139;" horiz-adv-x="546" 
d="M482 63l-12 -63h-421l13 63l117 586l13 63h72l-13 -63l-117 -586h348zM516 927l-130 -151h-66l112 151h84z" />
    <glyph glyph-name="lacute" unicode="&#x13a;" horiz-adv-x="285" 
d="M247 712l-13 -62.998l-103 -515c-1.33301 -7.33301 -2.33301 -13.333 -3 -18s-1 -9.66699 -1 -15c0 -13.333 4 -23.5 12 -30.5s22 -10.5 42 -10.5h41l-12 -60h-52c-12 0 -23.833 1.66699 -35.5 5s-22.5 8.5 -32.5 15.5s-18 16.667 -24 29s-9 27.166 -9 44.499
c0 15.333 1.33301 28.666 4 39.999l103 515l13 63h70zM386 927.002l-130 -151h-66l112 151h84z" />
    <glyph glyph-name="Lcedilla" unicode="&#x13b;" horiz-adv-x="546" 
d="M482 63l-12 -63h-421l13 63l117 586l13 63h72l-13 -63l-117 -586h348zM277 -66l-83 -146h-77l96 146h64z" />
    <glyph glyph-name="lcedilla" unicode="&#x13c;" horiz-adv-x="285" 
d="M247 712l-13 -62.998l-103 -515c-1.33301 -7.33301 -2.33301 -13.333 -3 -18s-1 -9.66699 -1 -15c0 -13.333 4 -23.5 12 -30.5s22 -10.5 42 -10.5h41l-12 -60h-52c-12 0 -23.833 1.66699 -35.5 5s-22.5 8.5 -32.5 15.5s-18 16.667 -24 29s-9 27.166 -9 44.499
c0 15.333 1.33301 28.666 4 39.999l103 515l13 63h70zM148 -65.998l-83 -146h-77l96 146h64z" />
    <glyph glyph-name="Lcaron" unicode="&#x13d;" horiz-adv-x="546" 
d="M482 63l-12 -63h-421l13 63l117 586l13 63h72l-13 -63l-117 -586h348zM497 712l-18 -94l-88 -70l33 164h73z" />
    <glyph glyph-name="lcaron" unicode="&#x13e;" horiz-adv-x="285" 
d="M247 712l-13 -62.998l-103 -515c-1.33301 -7.33301 -2.33301 -13.333 -3 -18s-1 -9.66699 -1 -15c0 -13.333 4 -23.5 12 -30.5s22 -10.5 42 -10.5h41l-12 -60h-52c-12 0 -23.833 1.66699 -35.5 5s-22.5 8.5 -32.5 15.5s-18 16.667 -24 29s-9 27.166 -9 44.499
c0 15.333 1.33301 28.666 4 39.999l103 515l13 63h70zM394 654.002l-88 -70l33 164h73z" />
    <glyph glyph-name="Lslash" unicode="&#x141;" horiz-adv-x="555" 
d="M491 63l-12 -63h-421l13 63l45 228l-78 -46l13 66l79 46l59 293l12 62h72l-12 -62l-49 -248l166 98l-13 -66l-167 -98l-55 -273h348z" />
    <glyph glyph-name="lslash" unicode="&#x142;" horiz-adv-x="303" 
d="M291 496l-13 -62.998l-86 -50l-49 -249l-1 -6c-2.66699 -10.667 -4 -19.667 -4 -27c0 -13.333 4.16699 -23.5 12.5 -30.5s22.5 -10.5 42.5 -10.5h41l-13 -60h-51c-12 0 -23.833 1.66699 -35.5 5s-22.5 8.5 -32.5 15.5s-18.167 16.667 -24.5 29s-9.5 27.166 -9.5 44.499
c0 15.333 1.33301 28.666 4 39.999l42 208l-67 -39l12 64l68 38l48 243l13 64h70l-13 -64l-40 -201z" />
    <glyph glyph-name="Nacute" unicode="&#x143;" horiz-adv-x="696" 
d="M692 712l-13 -63l-130 -649h-67l-245 577l-103 -514l-13 -63h-72l13 63l130 649h67l245 -577l102 514l13 63h73zM591 927l-130 -151h-66l112 151h84z" />
    <glyph glyph-name="nacute" unicode="&#x144;" 
d="M474 360c0 -14.667 -1.66992 -31.0029 -5.00293 -49.0029l-63 -311h-70l61 304c3.33301 18 5 33.333 5 46c0 28.667 -8.16699 50.334 -24.5 65.001s-37.833 22 -64.5 22c-10.667 0 -23 -1.66699 -37 -5s-28.167 -9.66602 -42.5 -18.999s-27.666 -23.166 -39.999 -41.499
s-21.166 -41.5 -26.499 -69.5l-60 -302h-70l61 304l37 189h69l-11 -55c35.333 40.667 84 61 146 61c38.667 0 70.834 -12.333 96.501 -37s38.5 -58.667 38.5 -102zM477.997 739.997l-130 -151h-66l112 151h84z" />
    <glyph glyph-name="Ncedilla" unicode="&#x145;" horiz-adv-x="696" 
d="M692 712l-13 -63l-130 -649h-67l-245 577l-103 -514l-13 -63h-72l13 63l130 649h67l245 -577l102 514l13 63h73zM341 -66l-83 -146h-77l96 146h64z" />
    <glyph glyph-name="ncedilla" unicode="&#x146;" 
d="M474 360c0 -14.667 -1.66992 -31.0029 -5.00293 -49.0029l-63 -311h-70l61 304c3.33301 18 5 33.333 5 46c0 28.667 -8.16699 50.334 -24.5 65.001s-37.833 22 -64.5 22c-10.667 0 -23 -1.66699 -37 -5s-28.167 -9.66602 -42.5 -18.999s-27.666 -23.166 -39.999 -41.499
s-21.166 -41.5 -26.499 -69.5l-60 -302h-70l61 304l37 189h69l-11 -55c35.333 40.667 84 61 146 61c38.667 0 70.834 -12.333 96.501 -37s38.5 -58.667 38.5 -102zM263.997 -66.0029l-83 -146h-77l96 146h64z" />
    <glyph glyph-name="Ncaron" unicode="&#x147;" horiz-adv-x="696" 
d="M692 712l-13 -63l-130 -649h-67l-245 577l-103 -514l-13 -63h-72l13 63l130 649h67l245 -577l102 514l13 63h73zM622 934l-150 -153h-66l-90 153h63l65 -106l108 106h70z" />
    <glyph glyph-name="ncaron" unicode="&#x148;" 
d="M474 360c0 -14.667 -1.66992 -31.0029 -5.00293 -49.0029l-63 -311h-70l61 304c3.33301 18 5 33.333 5 46c0 28.667 -8.16699 50.334 -24.5 65.001s-37.833 22 -64.5 22c-10.667 0 -23 -1.66699 -37 -5s-28.167 -9.66602 -42.5 -18.999s-27.666 -23.166 -39.999 -41.499
s-21.166 -41.5 -26.499 -69.5l-60 -302h-70l61 304l37 189h69l-11 -55c35.333 40.667 84 61 146 61c38.667 0 70.834 -12.333 96.501 -37s38.5 -58.667 38.5 -102zM515.997 746.997l-150 -153h-66l-90 153h63l65 -106l108 106h70z" />
    <glyph glyph-name="Omacron" unicode="&#x14c;" horiz-adv-x="617" 
d="M590 526c0 -14.667 -1.83105 -33.6689 -5.49805 -57.002s-10.167 -61 -19.5 -113c-8 -43.333 -15.333 -79.166 -22 -107.499s-13.667 -52.833 -21 -73.5s-16 -39.167 -26 -55.5s-22.333 -31.833 -37 -46.5c-24.667 -24.667 -54 -44 -88 -58s-69 -21 -105 -21
c-57.333 0 -104.5 17.833 -141.5 53.5s-55.5 81.834 -55.5 138.501c0 16 1.66699 36 5 60s9.66602 60.667 18.999 110c8 43.333 15.333 79.166 22 107.499s13.667 52.833 21 73.5s16 39.167 26 55.5s22.333 31.833 37 46.5c24.667 24.667 54 44 88 58s69 21 105 21
c57.333 0 104.666 -17.667 141.999 -53s56 -81.666 56 -138.999zM516.002 521.998c0 41.333 -12.501 73.832 -37.501 97.499s-54.5 35.5 -88.5 35.5c-54.667 0 -101.667 -20.333 -141 -61c-9.33301 -9.33301 -17.666 -20 -24.999 -32s-14 -26.833 -20 -44.5
s-12 -39.5 -18 -65.5s-12.667 -58 -20 -96c-9.33301 -48 -15.666 -83.667 -18.999 -107s-5 -43 -5 -59c0 -41.333 12.5 -73.833 37.5 -97.5s54.5 -35.5 88.5 -35.5c54.667 0 101.667 20.333 141 61c10 10 18.5 20.833 25.5 32.5s13.5 26.334 19.5 44.001s12 39.5 18 65.5
s12.667 58 20 96c9.33301 48.667 15.666 84.5 18.999 107.5s5 42.5 5 58.5zM564.001 852.997l-12 -54h-286l10 54h288z" />
    <glyph glyph-name="omacron" unicode="&#x14d;" horiz-adv-x="502" 
d="M452 336c0 -14 -0.833008 -29 -2.5 -45s-3.83398 -30.667 -6.50098 -44c-10 -51.333 -22.667 -92.5 -38 -123.5s-33.666 -56.167 -54.999 -75.5c-40 -36 -87 -54 -141 -54c-16 0 -33 2.33301 -51 7s-35.167 13.167 -51.5 25.5s-29.833 29.333 -40.5 51s-16 48.5 -16 80.5
c0 14 1 29 3 45s4 30.667 6 44c10 51.333 22.667 92.5 38 123.5s33.666 56.167 54.999 75.5c20 18 42 31.333 66 40s49 13 75 13c16.667 0 33.834 -2.33301 51.501 -7s34.667 -13 51 -25s29.833 -28.833 40.5 -50.5s16 -48.5 16 -80.5zM383 333
c0 35.333 -9.16797 61.501 -27.501 78.501s-40.833 25.5 -67.5 25.5c-16.667 0 -33.167 -3.33301 -49.5 -10s-30.5 -16 -42.5 -28c-15.333 -15.333 -28.166 -34.666 -38.499 -57.999s-19.5 -54.666 -27.5 -93.999c-7.33301 -38 -11 -67 -11 -87
c0 -35.333 9.16699 -61.5 27.5 -78.5s40.833 -25.5 67.5 -25.5c16.667 0 33.334 3.66699 50.001 11s30.667 16.666 42 27.999c15.333 15.333 28.166 34.666 38.499 57.999s19.5 54.666 27.5 93.999c7.33301 38 11 66.667 11 86zM479.999 666.001l-12 -54h-286l10 54h288z
" />
    <glyph glyph-name="Ohungarumlaut" unicode="&#x150;" horiz-adv-x="617" 
d="M590 526c0 -14.667 -1.83105 -33.6689 -5.49805 -57.002s-10.167 -61 -19.5 -113c-8 -43.333 -15.333 -79.166 -22 -107.499s-13.667 -52.833 -21 -73.5s-16 -39.167 -26 -55.5s-22.333 -31.833 -37 -46.5c-24.667 -24.667 -54 -44 -88 -58s-69 -21 -105 -21
c-57.333 0 -104.5 17.833 -141.5 53.5s-55.5 81.834 -55.5 138.501c0 16 1.66699 36 5 60s9.66602 60.667 18.999 110c8 43.333 15.333 79.166 22 107.499s13.667 52.833 21 73.5s16 39.167 26 55.5s22.333 31.833 37 46.5c24.667 24.667 54 44 88 58s69 21 105 21
c57.333 0 104.666 -17.667 141.999 -53s56 -81.666 56 -138.999zM516.002 521.998c0 41.333 -12.501 73.832 -37.501 97.499s-54.5 35.5 -88.5 35.5c-54.667 0 -101.667 -20.333 -141 -61c-9.33301 -9.33301 -17.666 -20 -24.999 -32s-14 -26.833 -20 -44.5
s-12 -39.5 -18 -65.5s-12.667 -58 -20 -96c-9.33301 -48 -15.666 -83.667 -18.999 -107s-5 -43 -5 -59c0 -41.333 12.5 -73.833 37.5 -97.5s54.5 -35.5 88.5 -35.5c54.667 0 101.667 20.333 141 61c10 10 18.5 20.833 25.5 32.5s13.5 26.334 19.5 44.001s12 39.5 18 65.5
s12.667 58 20 96c9.33301 48.667 15.666 84.5 18.999 107.5s5 42.5 5 58.5zM638.001 926.997l-131 -151h-65l112 151h84zM482.001 926.997l-131 -151h-65l112 151h84z" />
    <glyph glyph-name="ohungarumlaut" unicode="&#x151;" horiz-adv-x="502" 
d="M452 336c0 -14 -0.833008 -29 -2.5 -45s-3.83398 -30.667 -6.50098 -44c-10 -51.333 -22.667 -92.5 -38 -123.5s-33.666 -56.167 -54.999 -75.5c-40 -36 -87 -54 -141 -54c-16 0 -33 2.33301 -51 7s-35.167 13.167 -51.5 25.5s-29.833 29.333 -40.5 51s-16 48.5 -16 80.5
c0 14 1 29 3 45s4 30.667 6 44c10 51.333 22.667 92.5 38 123.5s33.666 56.167 54.999 75.5c20 18 42 31.333 66 40s49 13 75 13c16.667 0 33.834 -2.33301 51.501 -7s34.667 -13 51 -25s29.833 -28.833 40.5 -50.5s16 -48.5 16 -80.5zM383 333
c0 35.333 -9.16797 61.501 -27.501 78.501s-40.833 25.5 -67.5 25.5c-16.667 0 -33.167 -3.33301 -49.5 -10s-30.5 -16 -42.5 -28c-15.333 -15.333 -28.166 -34.666 -38.499 -57.999s-19.5 -54.666 -27.5 -93.999c-7.33301 -38 -11 -67 -11 -87
c0 -35.333 9.16699 -61.5 27.5 -78.5s40.833 -25.5 67.5 -25.5c16.667 0 33.334 3.66699 50.001 11s30.667 16.666 42 27.999c15.333 15.333 28.166 34.666 38.499 57.999s19.5 54.666 27.5 93.999c7.33301 38 11 66.667 11 86zM542.999 740.001l-131 -151h-65l112 151h84z
M386.999 740.001l-131 -151h-65l112 151h84z" />
    <glyph glyph-name="OE" unicode="&#x152;" horiz-adv-x="936" 
d="M975 712l-12.998 -64h-340l-52 -257h293l-13 -63h-292l-54 -264h349l-13 -64h-416l13 66c-19.333 -22 -44 -39.5 -74 -52.5s-62.667 -19.5 -98 -19.5c-56 0 -102.667 17.5 -140 52.5s-56 81.5 -56 139.5c0 16 1.66699 36 5 60s9.66602 60.667 18.999 110
c8 43.333 15.333 79.166 22 107.499s13.667 52.833 21 73.5s16 39.167 26 55.5s22.333 31.833 37 46.5c25.333 25.333 54.666 44.833 87.999 58.5s68 20.5 104 20.5c37.333 0 69.5 -7.66699 96.5 -23s47.5 -36.666 61.5 -63.999l16 81h410zM517.002 522
c0 41.333 -12.6689 73.832 -38.002 97.499s-55 35.5 -89 35.5c-54.667 0 -101.667 -20.333 -141 -61c-9.33301 -9.33301 -17.5 -19.833 -24.5 -31.5s-13.667 -26.667 -20 -45s-12.5 -40.166 -18.5 -65.499s-12.667 -57.333 -20 -96
c-9.33301 -48 -15.666 -83.833 -18.999 -107.5s-5 -43.167 -5 -58.5c0 -41.333 12.5 -73.833 37.5 -97.5s54.5 -35.5 88.5 -35.5c54.667 0 101.667 20.333 141 61c9.33301 9.33301 17.5 20 24.5 32s13.667 27 20 45s12.5 39.667 18.5 65s12.667 57.333 20 96l5 25l2 10
c6.66699 34 11.334 60.833 14.001 80.5s4 36.5 4 50.5z" />
    <glyph glyph-name="oe" unicode="&#x153;" horiz-adv-x="821" 
d="M768 330c0 -12.667 -1 -27.999 -3 -45.999s-5 -36.333 -9 -55h-318c-4 -20.667 -6 -41.334 -6 -62.001c0 -34 9 -61.167 27 -81.5s44.667 -30.5 80 -30.5c28 0 52.5 4.66699 73.5 14s42.5 24 64.5 44l42 -47c-50.667 -48 -112.667 -72 -186 -72
c-34.667 0 -65.167 7.5 -91.5 22.5s-45.833 40.167 -58.5 75.5c-20 -32.667 -45.167 -57.167 -75.5 -73.5s-63.166 -24.5 -98.499 -24.5c-16 0 -33 2.33301 -51 7s-35.167 13.167 -51.5 25.5s-29.833 29.333 -40.5 51s-16 48.5 -16 80.5c0 14 1 29 3 45s4 30.667 6 44
c9.33301 51.333 21.833 92.5 37.5 123.5s34.167 56.167 55.5 75.5c20 18 42 31.333 66 40s49 13 75 13c33.333 0 62.666 -8 87.999 -24s43.333 -40.333 54 -73c21.333 34.667 47 59.5 77 74.5s62 22.5 96 22.5c50.667 0 90 -15.833 118 -47.5s42 -72.167 42 -121.5z
M383 333.001c0 35.333 -9.16797 61.502 -27.501 78.502s-40.833 25.5 -67.5 25.5c-16.667 0 -33.167 -3.33301 -49.5 -10s-30.5 -16 -42.5 -28c-15.333 -15.333 -28.166 -34.666 -38.499 -57.999s-19.5 -54.666 -27.5 -93.999c-7.33301 -38 -11 -67 -11 -87
c0 -35.333 9.16699 -61.5 27.5 -78.5s40.833 -25.5 67.5 -25.5c16.667 0 33.334 3.66699 50.001 11s30.667 16.666 42 27.999c15.333 15.333 28.166 34.666 38.499 57.999s19.5 54.666 27.5 93.999c1.33301 7.33301 3.33301 17.666 6 30.999c3.33301 24.667 5 43 5 55z
M699.999 330.003c0 36 -9 63.334 -27 82.001s-40.667 28 -68 28c-36.667 0 -68.5 -13.167 -95.5 -39.5s-47.5 -66.5 -61.5 -120.5h247c0 5.33301 0.666992 12.666 2 21.999c2 12 3 21.333 3 28z" />
    <glyph glyph-name="Racute" unicode="&#x154;" horiz-adv-x="626" 
d="M541 544c0 32.667 -9.49902 58.166 -28.499 76.499s-47.167 27.5 -84.5 27.5h-176l-54 -266h178c51.333 0 91.666 16.333 120.999 49s44 70.334 44 113.001zM614.001 547.999c0 -54 -16.667 -101.834 -50 -143.501s-79.333 -68.167 -138 -79.5l104 -325h-80l-98 320h-166
l-52 -257l-13 -63h-72l13 63l117 586l13 63h245c32.667 0 60.5 -4.5 83.5 -13.5s41.333 -21.167 55 -36.5s23.5 -32.666 29.5 -51.999s9 -40 9 -62zM556.001 926.998l-130 -151h-66l112 151h84z" />
    <glyph glyph-name="racute" unicode="&#x155;" horiz-adv-x="399" 
d="M437 453l-57 -51c-8 10.667 -17.667 19.167 -29 25.5s-25 9.5 -41 9.5c-34.667 0 -65.334 -12.833 -92.001 -38.5s-43.667 -57.834 -51 -96.501l-47 -239l-13 -63h-70l13 63l85 430h69l-12 -60c15.333 20.667 34.833 36.834 58.5 48.501s50.167 17.5 79.5 17.5
c44.667 0 80.334 -15.333 107.001 -46zM410 740l-130 -151h-66l112 151h84z" />
    <glyph glyph-name="Rcedilla" unicode="&#x156;" horiz-adv-x="626" 
d="M541 544c0 32.667 -9.49902 58.166 -28.499 76.499s-47.167 27.5 -84.5 27.5h-176l-54 -266h178c51.333 0 91.666 16.333 120.999 49s44 70.334 44 113.001zM614.001 547.999c0 -54 -16.667 -101.834 -50 -143.501s-79.333 -68.167 -138 -79.5l104 -325h-80l-98 320h-166
l-52 -257l-13 -63h-72l13 63l117 586l13 63h245c32.667 0 60.5 -4.5 83.5 -13.5s41.333 -21.167 55 -36.5s23.5 -32.666 29.5 -51.999s9 -40 9 -62zM317.001 -66.002l-83 -146h-77l96 146h64z" />
    <glyph glyph-name="rcedilla" unicode="&#x157;" horiz-adv-x="399" 
d="M437 453l-57 -51c-8 10.667 -17.667 19.167 -29 25.5s-25 9.5 -41 9.5c-34.667 0 -65.334 -12.833 -92.001 -38.5s-43.667 -57.834 -51 -96.501l-47 -239l-13 -63h-70l13 63l85 430h69l-12 -60c15.333 20.667 34.833 36.834 58.5 48.501s50.167 17.5 79.5 17.5
c44.667 0 80.334 -15.333 107.001 -46zM125 -66l-83 -146h-77l96 146h64z" />
    <glyph glyph-name="Rcaron" unicode="&#x158;" horiz-adv-x="626" 
d="M541 544c0 32.667 -9.49902 58.166 -28.499 76.499s-47.167 27.5 -84.5 27.5h-176l-54 -266h178c51.333 0 91.666 16.333 120.999 49s44 70.334 44 113.001zM614.001 547.999c0 -54 -16.667 -101.834 -50 -143.501s-79.333 -68.167 -138 -79.5l104 -325h-80l-98 320h-166
l-52 -257l-13 -63h-72l13 63l117 586l13 63h245c32.667 0 60.5 -4.5 83.5 -13.5s41.333 -21.167 55 -36.5s23.5 -32.666 29.5 -51.999s9 -40 9 -62zM587.001 933.998l-150 -153h-66l-90 153h63l65 -106l108 106h70z" />
    <glyph glyph-name="rcaron" unicode="&#x159;" horiz-adv-x="399" 
d="M437 453l-57 -51c-8 10.667 -17.667 19.167 -29 25.5s-25 9.5 -41 9.5c-34.667 0 -65.334 -12.833 -92.001 -38.5s-43.667 -57.834 -51 -96.501l-47 -239l-13 -63h-70l13 63l85 430h69l-12 -60c15.333 20.667 34.833 36.834 58.5 48.501s50.167 17.5 79.5 17.5
c44.667 0 80.334 -15.333 107.001 -46zM453 747l-150 -153h-66l-90 153h63l65 -106l108 106h70z" />
    <glyph glyph-name="Sacute" unicode="&#x15a;" horiz-adv-x="559" 
d="M552 636l-52.001 -44.001c-18.667 21.333 -38.667 37.333 -60 48s-49 16 -83 16c-52.667 0 -95.667 -16.667 -129 -50c-15.333 -14.667 -27 -31.667 -35 -51s-12 -39 -12 -59c0 -26.667 9 -47.834 27 -63.501s43 -27.167 75 -34.5l33 -7l34 -8
c54 -12 93.167 -31.5 117.5 -58.5s36.5 -65.167 36.5 -114.5c0 -34 -6.83301 -64.5 -20.5 -91.5s-33 -49.833 -58 -68.5s-53.667 -32.667 -86 -42s-66.833 -14 -103.5 -14c-50 0 -91.833 7.66699 -125.5 23s-65.167 40.333 -94.5 75l55 48
c22 -27.333 46.667 -47.833 74 -61.5s60 -20.5 98 -20.5c52.667 0 97.167 14 133.5 42s54.5 63.667 54.5 107c0 34 -8.5 58.833 -25.5 74.5s-42.167 27.5 -75.5 35.5l-33 8l-34 8c-19.333 4.66699 -37.833 10.667 -55.5 18s-34 17.333 -49 30s-27 28.334 -36 47.001
s-13.5 40.334 -13.5 65.001c0 26 5 52.333 15 79s25.333 51 46 73s47.334 39.667 80.001 53s70.667 20 114 20c38 0 72.833 -6.5 104.5 -19.5s59.5 -33.833 83.5 -62.5zM522.999 926.999l-130 -151h-66l112 151h84z" />
    <glyph glyph-name="sacute" unicode="&#x15b;" horiz-adv-x="471" 
d="M434 444l-49.999 -42.999c-16 14 -32.667 23.833 -50 29.5s-39 8.5 -65 8.5c-38.667 0 -68.834 -9.83301 -90.501 -29.5s-32.5 -42.5 -32.5 -68.5c0 -30 24.333 -48.667 73 -56l33 -4l33 -5c43.333 -6 74.166 -18.5 92.499 -37.5s27.5 -46.833 27.5 -83.5
c0 -18.667 -3.83301 -37.167 -11.5 -55.5s-20.167 -35.5 -37.5 -51.5c-18 -18 -42 -31.5 -72 -40.5s-62.333 -13.5 -97 -13.5c-78 0 -138.667 23.667 -182 71l52 45c16.667 -19.333 35.5 -33.5 56.5 -42.5s47.5 -13.5 79.5 -13.5c45.333 0 80.333 10.167 105 30.5
s37 43.166 37 68.499c0 20.667 -5.66699 35.334 -17 44.001s-28.666 14.667 -51.999 18l-33 5l-34 5c-24 3.33301 -44.333 8.83301 -61 16.5s-29.5 16.5 -38.5 26.5s-15.167 20.333 -18.5 31s-5 21.667 -5 33c0 19.333 4 39.166 12 59.499s19.333 37.833 34 52.5
c36.667 36.667 88.667 55 156 55c64.667 0 116.667 -18.333 156 -55zM446.001 740.001l-130 -151h-66l112 151h84z" />
    <glyph glyph-name="Scommaaccent" unicode="&#x15e;" horiz-adv-x="559" 
d="M552 636l-52.001 -44.001c-18.667 21.333 -38.667 37.333 -60 48s-49 16 -83 16c-52.667 0 -95.667 -16.667 -129 -50c-15.333 -14.667 -27 -31.667 -35 -51s-12 -39 -12 -59c0 -26.667 9 -47.834 27 -63.501s43 -27.167 75 -34.5l33 -7l34 -8
c54 -12 93.167 -31.5 117.5 -58.5s36.5 -65.167 36.5 -114.5c0 -34 -6.83301 -64.5 -20.5 -91.5s-33 -49.833 -58 -68.5s-53.667 -32.667 -86 -42s-66.833 -14 -103.5 -14c-50 0 -91.833 7.66699 -125.5 23s-65.167 40.333 -94.5 75l55 48
c22 -27.333 46.667 -47.833 74 -61.5s60 -20.5 98 -20.5c52.667 0 97.167 14 133.5 42s54.5 63.667 54.5 107c0 34 -8.5 58.833 -25.5 74.5s-42.167 27.5 -75.5 35.5l-33 8l-34 8c-19.333 4.66699 -37.833 10.667 -55.5 18s-34 17.333 -49 30s-27 28.334 -36 47.001
s-13.5 40.334 -13.5 65.001c0 26 5 52.333 15 79s25.333 51 46 73s47.334 39.667 80.001 53s70.667 20 114 20c38 0 72.833 -6.5 104.5 -19.5s59.5 -33.833 83.5 -62.5zM277.999 -66.001l-83 -146h-77l96 146h64z" />
    <glyph glyph-name="scommaaccent" unicode="&#x15f;" horiz-adv-x="471" 
d="M434 444l-49.999 -42.999c-16 14 -32.667 23.833 -50 29.5s-39 8.5 -65 8.5c-38.667 0 -68.834 -9.83301 -90.501 -29.5s-32.5 -42.5 -32.5 -68.5c0 -30 24.333 -48.667 73 -56l33 -4l33 -5c43.333 -6 74.166 -18.5 92.499 -37.5s27.5 -46.833 27.5 -83.5
c0 -18.667 -3.83301 -37.167 -11.5 -55.5s-20.167 -35.5 -37.5 -51.5c-18 -18 -42 -31.5 -72 -40.5s-62.333 -13.5 -97 -13.5c-78 0 -138.667 23.667 -182 71l52 45c16.667 -19.333 35.5 -33.5 56.5 -42.5s47.5 -13.5 79.5 -13.5c45.333 0 80.333 10.167 105 30.5
s37 43.166 37 68.499c0 20.667 -5.66699 35.334 -17 44.001s-28.666 14.667 -51.999 18l-33 5l-34 5c-24 3.33301 -44.333 8.83301 -61 16.5s-29.5 16.5 -38.5 26.5s-15.167 20.333 -18.5 31s-5 21.667 -5 33c0 19.333 4 39.166 12 59.499s19.333 37.833 34 52.5
c36.667 36.667 88.667 55 156 55c64.667 0 116.667 -18.333 156 -55zM234.001 -65.999l-83 -146h-77l96 146h64z" />
    <glyph glyph-name="Scaron" unicode="&#x160;" horiz-adv-x="559" 
d="M552 636l-52.001 -44.001c-18.667 21.333 -38.667 37.333 -60 48s-49 16 -83 16c-52.667 0 -95.667 -16.667 -129 -50c-15.333 -14.667 -27 -31.667 -35 -51s-12 -39 -12 -59c0 -26.667 9 -47.834 27 -63.501s43 -27.167 75 -34.5l33 -7l34 -8
c54 -12 93.167 -31.5 117.5 -58.5s36.5 -65.167 36.5 -114.5c0 -34 -6.83301 -64.5 -20.5 -91.5s-33 -49.833 -58 -68.5s-53.667 -32.667 -86 -42s-66.833 -14 -103.5 -14c-50 0 -91.833 7.66699 -125.5 23s-65.167 40.333 -94.5 75l55 48
c22 -27.333 46.667 -47.833 74 -61.5s60 -20.5 98 -20.5c52.667 0 97.167 14 133.5 42s54.5 63.667 54.5 107c0 34 -8.5 58.833 -25.5 74.5s-42.167 27.5 -75.5 35.5l-33 8l-34 8c-19.333 4.66699 -37.833 10.667 -55.5 18s-34 17.333 -49 30s-27 28.334 -36 47.001
s-13.5 40.334 -13.5 65.001c0 26 5 52.333 15 79s25.333 51 46 73s47.334 39.667 80.001 53s70.667 20 114 20c38 0 72.833 -6.5 104.5 -19.5s59.5 -33.833 83.5 -62.5zM541.999 933.999l-150 -153h-66l-90 153h63l65 -106l108 106h70z" />
    <glyph glyph-name="scaron" unicode="&#x161;" horiz-adv-x="471" 
d="M434 444l-49.999 -42.999c-16 14 -32.667 23.833 -50 29.5s-39 8.5 -65 8.5c-38.667 0 -68.834 -9.83301 -90.501 -29.5s-32.5 -42.5 -32.5 -68.5c0 -30 24.333 -48.667 73 -56l33 -4l33 -5c43.333 -6 74.166 -18.5 92.499 -37.5s27.5 -46.833 27.5 -83.5
c0 -18.667 -3.83301 -37.167 -11.5 -55.5s-20.167 -35.5 -37.5 -51.5c-18 -18 -42 -31.5 -72 -40.5s-62.333 -13.5 -97 -13.5c-78 0 -138.667 23.667 -182 71l52 45c16.667 -19.333 35.5 -33.5 56.5 -42.5s47.5 -13.5 79.5 -13.5c45.333 0 80.333 10.167 105 30.5
s37 43.166 37 68.499c0 20.667 -5.66699 35.334 -17 44.001s-28.666 14.667 -51.999 18l-33 5l-34 5c-24 3.33301 -44.333 8.83301 -61 16.5s-29.5 16.5 -38.5 26.5s-15.167 20.333 -18.5 31s-5 21.667 -5 33c0 19.333 4 39.166 12 59.499s19.333 37.833 34 52.5
c36.667 36.667 88.667 55 156 55c64.667 0 116.667 -18.333 156 -55zM476.001 747.001l-150 -153h-66l-90 153h63l65 -106l108 106h70z" />
    <glyph glyph-name="Tcommaaccent" unicode="&#x162;" horiz-adv-x="520" 
d="M585 712l-13 -64h-194l-117 -585l-13 -63h-73l13 63l117 585h-196l13 64h463zM258 -66l-83 -146h-77l96 146h64z" />
    <glyph glyph-name="tcommaaccent" unicode="&#x163;" horiz-adv-x="319" 
d="M314 489l-11 -52.9971h-96l-61 -302c-2.66699 -12.667 -4 -23.334 -4 -32.001c0 -14 4.16699 -24.5 12.5 -31.5s22.5 -10.5 42.5 -10.5h40l-13 -60h-50c-12 0 -23.833 1.66699 -35.5 5s-22.5 8.5 -32.5 15.5s-18.167 16.667 -24.5 29s-9.5 27.166 -9.5 44.499
c0 5.33301 0.666992 12.666 2 21.999c1.33301 8.66699 2 14.667 2 18l60 302h-61l10 53h62l31 154h70l-31 -154h97zM158 -65.9971l-83 -146h-77l96 146h64z" />
    <glyph glyph-name="Tcaron" unicode="&#x164;" horiz-adv-x="520" 
d="M585 712l-13 -64h-194l-117 -585l-13 -63h-73l13 63l117 585h-196l13 64h463zM534 934l-150 -153h-66l-90 153h63l65 -106l108 106h70z" />
    <glyph glyph-name="tcaron" unicode="&#x165;" horiz-adv-x="319" 
d="M314 489l-11 -52.9971h-96l-61 -302c-2.66699 -12.667 -4 -23.334 -4 -32.001c0 -14 4.16699 -24.5 12.5 -31.5s22.5 -10.5 42.5 -10.5h40l-13 -60h-50c-12 0 -23.833 1.66699 -35.5 5s-22.5 8.5 -32.5 15.5s-18.167 16.667 -24.5 29s-9.5 27.166 -9.5 44.499
c0 5.33301 0.666992 12.666 2 21.999c1.33301 8.66699 2 14.667 2 18l60 302h-61l10 53h62l31 154h70l-31 -154h97zM414 654.003l-88 -70l33 164h73z" />
    <glyph glyph-name="Umacron" unicode="&#x16a;" horiz-adv-x="649" 
d="M654 712l-12.001 -62.999l-83 -415c-15.333 -76.667 -47.833 -135.834 -97.5 -177.501s-110.167 -62.5 -181.5 -62.5c-24.667 0 -48.667 3.83301 -72 11.5s-44.5 19.5 -63.5 35.5s-34.167 36.167 -45.5 60.5s-17 52.833 -17 85.5c0 9.33301 0.666992 19.333 2 30
s3 21 5 31l92 464h73l-94 -471c0 -3.33301 -0.666992 -10 -2 -20c-2 -14 -3 -24.333 -3 -31c0 -36 10.833 -67 32.5 -93s54.834 -39 99.501 -39c48 0 90.667 16 128 48s62 78.667 74 140l80 403l12 63h73zM583.999 853.001l-12 -54h-286l10 54h288z" />
    <glyph glyph-name="umacron" unicode="&#x16b;" 
d="M341 55c-35.333 -40.667 -83.667 -61 -145 -61c-39.333 0 -71.833 12.333 -97.5 37s-38.5 58.667 -38.5 102c0 11.333 1.66699 26.333 5 45l1 4l62 311h70l-61 -304c-3.33301 -18 -5 -33.333 -5 -46c0 -28 8.33301 -49.5 25 -64.5s38.334 -22.5 65.001 -22.5
c10.667 0 22.834 1.66699 36.501 5s27.667 9.83301 42 19.5s27.666 23.5 39.999 41.5s21.166 41 26.499 69l60 302h71l-98 -493h-69zM493.999 666l-12 -54h-286l10 54h288z" />
    <glyph glyph-name="Uring" unicode="&#x16e;" horiz-adv-x="649" 
d="M654 712l-12.001 -62.999l-83 -415c-15.333 -76.667 -47.833 -135.834 -97.5 -177.501s-110.167 -62.5 -181.5 -62.5c-24.667 0 -48.667 3.83301 -72 11.5s-44.5 19.5 -63.5 35.5s-34.167 36.167 -45.5 60.5s-17 52.833 -17 85.5c0 9.33301 0.666992 19.333 2 30
s3 21 5 31l92 464h73l-94 -471c0 -3.33301 -0.666992 -10 -2 -20c-2 -14 -3 -24.333 -3 -31c0 -36 10.833 -67 32.5 -93s54.834 -39 99.501 -39c48 0 90.667 16 128 48s62 78.667 74 140l80 403l12 63h73zM554.999 874.001c0 -32.667 -11.5 -60.667 -34.5 -84
s-50.833 -35 -83.5 -35s-60.334 11.667 -83.001 35s-34 51.333 -34 84s11.333 60.334 34 83.001s50.334 34 83.001 34s60.5 -11.333 83.5 -34s34.5 -50.334 34.5 -83.001zM507.999 874.001c0 18.667 -7.16699 34.834 -21.5 48.501s-30.833 20.5 -49.5 20.5
s-35 -6.83301 -49 -20.5s-21 -29.834 -21 -48.501s7 -35.167 21 -49.5s30.333 -21.5 49 -21.5s35.167 7.16699 49.5 21.5s21.5 30.833 21.5 49.5z" />
    <glyph glyph-name="uring" unicode="&#x16f;" 
d="M341 55c-35.333 -40.667 -83.667 -61 -145 -61c-39.333 0 -71.833 12.333 -97.5 37s-38.5 58.667 -38.5 102c0 11.333 1.66699 26.333 5 45l1 4l62 311h70l-61 -304c-3.33301 -18 -5 -33.333 -5 -46c0 -28 8.33301 -49.5 25 -64.5s38.334 -22.5 65.001 -22.5
c10.667 0 22.834 1.66699 36.501 5s27.667 9.83301 42 19.5s27.666 23.5 39.999 41.5s21.166 41 26.499 69l60 302h71l-98 -493h-69zM462.999 687c0 -32.667 -11.5 -60.667 -34.5 -84s-50.833 -35 -83.5 -35s-60.334 11.667 -83.001 35s-34 51.333 -34 84
s11.333 60.334 34 83.001s50.334 34 83.001 34s60.5 -11.333 83.5 -34s34.5 -50.334 34.5 -83.001zM415.999 687c0 18.667 -7.16699 34.834 -21.5 48.501s-30.833 20.5 -49.5 20.5s-35 -6.83301 -49 -20.5s-21 -29.834 -21 -48.501s7 -35.167 21 -49.5
s30.333 -21.5 49 -21.5s35.167 7.16699 49.5 21.5s21.5 30.833 21.5 49.5z" />
    <glyph glyph-name="Uhungarumlaut" unicode="&#x170;" horiz-adv-x="649" 
d="M654 712l-12.001 -62.999l-83 -415c-15.333 -76.667 -47.833 -135.834 -97.5 -177.501s-110.167 -62.5 -181.5 -62.5c-24.667 0 -48.667 3.83301 -72 11.5s-44.5 19.5 -63.5 35.5s-34.167 36.167 -45.5 60.5s-17 52.833 -17 85.5c0 9.33301 0.666992 19.333 2 30
s3 21 5 31l92 464h73l-94 -471c0 -3.33301 -0.666992 -10 -2 -20c-2 -14 -3 -24.333 -3 -31c0 -36 10.833 -67 32.5 -93s54.834 -39 99.501 -39c48 0 90.667 16 128 48s62 78.667 74 140l80 403l12 63h73zM653.999 927.001l-131 -151h-65l112 151h84zM497.999 927.001
l-131 -151h-65l112 151h84z" />
    <glyph glyph-name="uhungarumlaut" unicode="&#x171;" 
d="M341 55c-35.333 -40.667 -83.667 -61 -145 -61c-39.333 0 -71.833 12.333 -97.5 37s-38.5 58.667 -38.5 102c0 11.333 1.66699 26.333 5 45l1 4l62 311h70l-61 -304c-3.33301 -18 -5 -33.333 -5 -46c0 -28 8.33301 -49.5 25 -64.5s38.334 -22.5 65.001 -22.5
c10.667 0 22.834 1.66699 36.501 5s27.667 9.83301 42 19.5s27.666 23.5 39.999 41.5s21.166 41 26.499 69l60 302h71l-98 -493h-69zM559.999 740l-131 -151h-65l112 151h84zM403.999 740l-131 -151h-65l112 151h84z" />
    <glyph glyph-name="Uogonek" unicode="&#x172;" horiz-adv-x="649" 
d="M654 712l-12.001 -62.999l-83 -415c-15.333 -76.667 -47.833 -135.834 -97.5 -177.501s-110.167 -62.5 -181.5 -62.5c-24.667 0 -48.667 3.83301 -72 11.5s-44.5 19.5 -63.5 35.5s-34.167 36.167 -45.5 60.5s-17 52.833 -17 85.5c0 9.33301 0.666992 19.333 2 30
s3 21 5 31l92 464h73l-94 -471c0 -3.33301 -0.666992 -10 -2 -20c-2 -14 -3 -24.333 -3 -31c0 -36 10.833 -67 32.5 -93s54.834 -39 99.501 -39c48 0 90.667 16 128 48s62 78.667 74 140l80 403l12 63h73zM341.999 -207.999h-75l-24 147h62z" />
    <glyph glyph-name="uogonek" unicode="&#x173;" 
d="M341 55c-35.333 -40.667 -83.667 -61 -145 -61c-39.333 0 -71.833 12.333 -97.5 37s-38.5 58.667 -38.5 102c0 11.333 1.66699 26.333 5 45l1 4l62 311h70l-61 -304c-3.33301 -18 -5 -33.333 -5 -46c0 -28 8.33301 -49.5 25 -64.5s38.334 -22.5 65.001 -22.5
c10.667 0 22.834 1.66699 36.501 5s27.667 9.83301 42 19.5s27.666 23.5 39.999 41.5s21.166 41 26.499 69l60 302h71l-98 -493h-69zM416.999 -208h-75l-24 147h62z" />
    <glyph glyph-name="Ydieresis" unicode="&#x178;" horiz-adv-x="490" 
d="M575 712l-282 -421l-59 -291h-73l60 296l-121 416h76l94 -344l224 344h81zM496 872l-17 -88h-71l18 88h70zM295 872l-18 -88h-69l17 88h70z" />
    <glyph glyph-name="Zacute" unicode="&#x179;" horiz-adv-x="532" 
d="M565 712l-12 -60l-4 -5l-448 -583h341l-13 -64h-423l13 61l1 6l447 581h-324l12 64h410zM509 927l-130 -151h-66l112 151h84z" />
    <glyph glyph-name="zacute" unicode="&#x17a;" horiz-adv-x="440" 
d="M439 493l-12 -59l-330 -372h262l-12 -62h-347l12 59l329 372h-247l12 62h333zM431 740l-130 -151h-66l112 151h84z" />
    <glyph glyph-name="Zdotaccent" unicode="&#x17b;" horiz-adv-x="532" 
d="M565 712l-12 -60l-4 -5l-448 -583h341l-13 -64h-423l13 61l1 6l447 581h-324l12 64h410zM427 888l-14 -72h-78l14 72h78z" />
    <glyph glyph-name="zdotaccent" unicode="&#x17c;" horiz-adv-x="440" 
d="M439 493l-12 -59l-330 -372h262l-12 -62h-347l12 59l329 372h-247l12 62h333zM347 701l-14 -72h-78l14 72h78z" />
    <glyph glyph-name="Zcaron" unicode="&#x17d;" horiz-adv-x="532" 
d="M565 712l-12 -60l-4 -5l-448 -583h341l-13 -64h-423l13 61l1 6l447 581h-324l12 64h410zM540 934l-150 -153h-66l-90 153h63l65 -106l108 106h70z" />
    <glyph glyph-name="zcaron" unicode="&#x17e;" horiz-adv-x="440" 
d="M439 493l-12 -59l-330 -372h262l-12 -62h-347l12 59l329 372h-247l12 62h333zM469 747l-150 -153h-66l-90 153h63l65 -106l108 106h70z" />
    <glyph glyph-name="florin" unicode="&#x192;" horiz-adv-x="383" 
d="M448 714l-11.999 -60h-43c-44.667 0 -75.667 -24 -93 -72l-72 -197h102l-12 -53h-109l-202 -551h-71l203 551h-92l10 53h101l72 197c16 44 36.667 77 62 99s61.666 33 108.999 33h47z" />
    <glyph glyph-name="circumflex" unicode="&#x2c6;" horiz-adv-x="475" 
d="M460 594h-63l-64 106l-109 -106h-69l150 153h65z" />
    <glyph glyph-name="caron" unicode="&#x2c7;" horiz-adv-x="475" 
d="M491 747l-150 -153h-66l-90 153h63l65 -106l108 106h70z" />
    <glyph glyph-name="breve" unicode="&#x2d8;" horiz-adv-x="475" 
d="M491 728c-9.33301 -48 -29 -83.333 -59 -106s-69.667 -34 -119 -34c-42 0 -75.333 11 -100 33s-37 49.667 -37 83c0 8 0.666992 16 2 24h55c0 -56.667 29.333 -85 88 -85c28.667 0 53 7 73 21s34 35.333 42 64h55z" />
    <glyph glyph-name="dotaccent" unicode="&#x2d9;" horiz-adv-x="475" 
d="M368 701l-14 -72h-78l14 72h78z" />
    <glyph glyph-name="ring" unicode="&#x2da;" horiz-adv-x="475" 
d="M443 687c0 -32.667 -11.5 -60.667 -34.5 -84s-50.833 -35 -83.5 -35s-60.334 11.667 -83.001 35s-34 51.333 -34 84s11.333 60.334 34 83.001s50.334 34 83.001 34s60.5 -11.333 83.5 -34s34.5 -50.334 34.5 -83.001zM396 687c0 18.667 -7.16699 34.834 -21.5 48.501
s-30.833 20.5 -49.5 20.5s-35 -6.83301 -49 -20.5s-21 -29.834 -21 -48.501s7 -35.167 21 -49.5s30.333 -21.5 49 -21.5s35.167 7.16699 49.5 21.5s21.5 30.833 21.5 49.5z" />
    <glyph glyph-name="ogonek" unicode="&#x2db;" horiz-adv-x="475" 
d="M215 -208h-75l-24 147h62z" />
    <glyph glyph-name="tilde" unicode="&#x2dc;" horiz-adv-x="475" 
d="M472 654c-17.333 -16.667 -33.668 -28.667 -49.001 -36s-31.333 -11 -48 -11c-24 0 -47 8 -69 24c-11.333 8 -20.166 13.167 -26.499 15.5s-14.5 3.5 -24.5 3.5c-16.667 0 -37.334 -11.333 -62.001 -34l-30 39c18 16.667 34.333 28.667 49 36s30.334 11 47.001 11
c24.667 0 48 -8 70 -24c11.333 -8 20.166 -13.167 26.499 -15.5s14.5 -3.5 24.5 -3.5c16.667 0 37.334 11.333 62.001 34z" />
    <glyph glyph-name="hungarumlaut" unicode="&#x2dd;" horiz-adv-x="475" 
d="M526 740l-131 -151h-65l112 151h84zM370 740l-131 -151h-65l112 151h84z" />
    <glyph glyph-name="endash" unicode="&#x2013;" horiz-adv-x="496" 
d="M458 302l-13 -64h-396l12 64h397z" />
    <glyph glyph-name="emdash" unicode="&#x2014;" horiz-adv-x="871" 
d="M812 304l-13 -66h-729l13 66h729z" />
    <glyph glyph-name="quoteleft" unicode="&#x2018;" horiz-adv-x="250" 
d="M277 792l-33 -165h-84l17 85z" />
    <glyph glyph-name="quoteright" unicode="&#x2019;" horiz-adv-x="250" 
d="M261 712l-17 -85l-100 -80l33 165h84z" />
    <glyph glyph-name="quotesinglbase" unicode="&#x201a;" horiz-adv-x="250" 
d="M136 85l-17 -85l-101 -80l33 165h85z" />
    <glyph glyph-name="quotedblleft" unicode="&#x201c;" horiz-adv-x="413" 
d="M277 792l-33 -165h-84l17 85zM440 792l-34 -165h-83l17 85z" />
    <glyph glyph-name="quotedblright" unicode="&#x201d;" horiz-adv-x="413" 
d="M261 712l-17 -85l-100 -80l33 165h84zM424 712l-18 -85l-99 -80l33 165h84z" />
    <glyph glyph-name="quotedblbase" unicode="&#x201e;" horiz-adv-x="413" 
d="M136 85l-17 -85l-101 -80l33 165h85zM299 85l-18 -85l-100 -80l33 165h85z" />
    <glyph glyph-name="dagger" unicode="&#x2020;" horiz-adv-x="574" 
d="M556 507l-12 -62h-183l-89 -445h-70l89 445h-182l13 62h181l41 205h70l-41 -205h183z" />
    <glyph glyph-name="daggerdbl" unicode="&#x2021;" horiz-adv-x="574" 
d="M556 507l-12 -62h-183l-80 -395h185l-12 -62h-185l-41 -207h-70l42 207h-180l12 62h180l79 395h-182l13 62h181l41 205h70l-41 -205h183z" />
    <glyph glyph-name="bullet" unicode="&#x2022;" horiz-adv-x="505" 
d="M425 334c0 -44.667 -14.667 -81.667 -44 -111s-66.333 -44 -111 -44s-81.667 14.667 -111 44s-44 66.333 -44 111s14.667 81.667 44 111s66.333 44 111 44s81.667 -14.667 111 -44s44 -66.333 44 -111z" />
    <glyph glyph-name="ellipsis" unicode="&#x2026;" horiz-adv-x="721" 
d="M607 92l-17 -92h-90l19 92h88zM141 92l-18 -92h-89l19 92h88zM374 92l-18 -92h-88l18 92h88z" />
    <glyph glyph-name="perthousand" unicode="&#x2030;" horiz-adv-x="1129" 
d="M1066 263c0 -13.333 -0.999023 -24.998 -2.99902 -34.998l-18 -99c-7.33301 -42.667 -23.833 -75.834 -49.5 -99.501s-59.834 -35.5 -102.501 -35.5c-28.667 0 -53.834 8.5 -75.501 25.5s-32.5 43.5 -32.5 79.5c0 13.333 1 25 3 35l19 99
c8 43.333 24.667 76.666 50 99.999s59 35 101 35c28.667 0 53.834 -8.5 75.501 -25.5s32.5 -43.5 32.5 -79.5zM1012 259.002c0 18.667 -4.66602 33.334 -13.999 44.001s-25 16 -47 16c-25.333 0 -45.333 -7.66699 -60 -23s-24.334 -36.333 -29.001 -63l-20 -103
c-1.33301 -6 -2 -15 -2 -27c0 -18.667 4.66699 -33.334 14 -44.001s24.666 -16 45.999 -16c26 0 46.333 7.83301 61 23.5s24.334 36.5 29.001 62.5l19 103c2 9.33301 3 18.333 3 27zM388.002 614.002c0 -13.333 -1 -25 -3 -35l-19 -99
c-8 -43.333 -24.5 -76.666 -49.5 -99.999s-58.833 -35 -101.5 -35c-28.667 0 -53.834 8.5 -75.501 25.5s-32.5 43.5 -32.5 79.5c0 13.333 1 25 3 35l18 99c8 43.333 24.667 76.666 50 99.999s59.333 35 102 35c28.667 0 53.834 -8.5 75.501 -25.5s32.5 -43.5 32.5 -79.5z
M334.002 610.002c0 18.667 -4.66699 33.334 -14 44.001s-25 16 -47 16c-26 0 -46.333 -7.83301 -61 -23.5s-24.334 -36.5 -29.001 -62.5l-19 -103c-2 -8.66699 -3 -17.667 -3 -27c0 -18.667 4.66699 -33.334 14 -44.001s25 -16 47 -16c25.333 0 45.333 7.66699 60 23
s24.334 36.333 29.001 63l20 103c2 9.33301 3 18.333 3 27zM737.002 263.002c0 -13.333 -0.999023 -24.998 -2.99902 -34.998l-18 -99c-7.33301 -42.667 -23.833 -75.834 -49.5 -99.501s-59.834 -35.5 -102.501 -35.5c-28.667 0 -53.834 8.5 -75.501 25.5
s-32.5 43.5 -32.5 79.5c0 13.333 1 25 3 35l19 99c8 43.333 24.667 76.666 50 99.999s59 35 101 35c28.667 0 53.834 -8.5 75.501 -25.5s32.5 -43.5 32.5 -79.5zM683.003 259.004c0 18.667 -4.66602 33.334 -13.999 44.001s-25 16 -47 16
c-25.333 0 -45.333 -7.66699 -60 -23s-24.334 -36.333 -29.001 -63l-20 -103c-1.33301 -6 -2 -15 -2 -27c0 -18.667 4.66699 -33.334 14 -44.001s24.666 -16 45.999 -16c26 0 46.333 7.83301 61 23.5s24.334 36.5 29.001 62.5l19 103c2 9.33301 3 18.333 3 27z
M682.004 712.004l-459 -712h-60l458 712h61z" />
    <glyph glyph-name="guilsinglleft" unicode="&#x2039;" horiz-adv-x="312" 
d="M285 478l-19 -95l-138 -121l91 -121l-16 -84l-161 211z" />
    <glyph glyph-name="guilsinglright" unicode="&#x203a;" horiz-adv-x="312" 
d="M279 267l-242 -210l19 95l138 121l-92 121l17 84z" />
    <glyph glyph-name="fraction" unicode="&#x2044;" horiz-adv-x="179" 
d="M371 712l-459 -712h-60l459 712h60z" />
    <glyph glyph-name="uni20AC" unicode="&#x20ac;" horiz-adv-x="643" 
d="M625 509l-72.9961 0.00488281c0 44.667 -11.667 80.167 -35 106.5s-55.333 39.5 -96 39.5c-52.667 0 -99 -20 -139 -60c-14.667 -14.667 -26.834 -32.667 -36.501 -54s-18.834 -50 -27.501 -86h209l-9 -47h-210l-19 -98h210l-9 -47h-208
c-4.66699 -27.333 -7 -52.333 -7 -75c0 -40 13 -71.833 39 -95.5s57.667 -35.5 95 -35.5c40 0 77.5 13.167 112.5 39.5s60.833 61.833 77.5 106.5h74c-8.66699 -27.333 -20.667 -53.333 -36 -78s-34.166 -46.834 -56.499 -66.501s-48.333 -35.334 -78 -47.001
s-62.834 -17.5 -99.501 -17.5c-56.667 0 -104.334 17.167 -143.001 51.5s-58 81.166 -58 140.499c0 9.33301 0.666992 20.166 2 32.499s3.33301 27.166 6 44.499h-64l8 47h64l18 98h-63l9 47h64c10 45.333 21.333 82 34 110s30 53 52 75c24 24 52.667 43 86 57
s67.666 21 102.999 21c66 0 116.5 -19.167 151.5 -57.5s52.5 -88.833 52.5 -151.5z" />
    <glyph glyph-name="trademark" unicode="&#x2122;" horiz-adv-x="800" 
d="M838 712l-85 -427h-56l62 310l-135 -201h-54l-56 205l-64 -314h-55l84 427h55l72 -259l175 259h57zM407 712l-10 -51h-111l-76 -376h-55l75 376h-114l11 51h280z" />
    <glyph glyph-name="periodcentered" unicode="&#x2219;" horiz-adv-x="257" 
d="M187 315l-18 -90h-90l18 90h90z" />
    <glyph glyph-name="fi" unicode="&#xf001;" horiz-adv-x="537" 
d="M545 706l-15 -73h-79l14 73h80zM499 493l-85 -430l-13 -63h-70l13 63l85 430h70zM364 714l-11.999 -60h-36c-20 0 -36.833 -5.66699 -50.5 -17s-22.834 -29 -27.501 -53l-19 -95h102l-11 -53h-102l-87 -436h-70l87 436h-59l10 53h59l20 99c9.33301 46 27 78.5 53 97.5
s56 28.5 90 28.5h53z" />
    <glyph glyph-name="fl" unicode="&#xf002;" horiz-adv-x="579" 
d="M540 712l-13 -62.998l-103 -515c-1.33301 -7.33301 -2.33301 -13.333 -3 -18s-1 -9.66699 -1 -15c0 -13.333 4 -23.5 12 -30.5s22 -10.5 42 -10.5h41l-12 -60h-52c-12 0 -23.833 1.66699 -35.5 5s-22.5 8.5 -32.5 15.5s-18 16.667 -24 29s-9 27.166 -9 44.499
c0 15.333 1.33301 28.666 4 39.999l103 515l13 63h70zM364 714.002l-11.999 -60h-36c-20 0 -36.833 -5.66699 -50.5 -17s-22.834 -29 -27.501 -53l-19 -95h102l-11 -53h-102l-87 -436h-70l87 436h-59l10 53h59l20 99c9.33301 46 27 78.5 53 97.5s56 28.5 90 28.5h53z" />
    <glyph glyph-name="NULL" horiz-adv-x="236" 
 />
    <glyph glyph-name="nonmarkingreturn" horiz-adv-x="236" 
 />
    </font>
</defs>
</svg>
